<svg version="1.2" xmlns="http://www.w3.org/2000/svg" viewBox="0 0 899.86614 731.19068" width="900" height="732">
	<title>undraw_design-notes_vwa7</title>
	<style>
		.s0 { fill: #ffb6b6 } 
		.s1 { fill: #2f2e41 } 
		.s2 { fill: #ffb8b8 } 
		.s3 { fill: #3f3d56 } 
		.s4 { fill: #f0f0f0 } 
		.s5 { fill: #83c65e } 
		.s6 { fill: #e6e6e6 } 
		.s7 { fill: #ffffff } 
		.s8 { fill: #cacaca } 
	</style>
	<g id="Layer 1">
		<path class="s0" d="m256.43 462.75c-1.38-0.52-2.62-1.33-3.65-2.38-1.03-1.05-1.82-2.31-2.31-3.7-0.49-1.38-0.66-2.86-0.52-4.32 0.14-1.46 0.61-2.88 1.35-4.14l-23.07-27.29 18.44-2.2 19.08 26.25c2.05 1.39 3.5 3.49 4.1 5.9 0.6 2.4 0.29 4.94-0.86 7.13-1.15 2.19-3.06 3.88-5.38 4.76-2.31 0.88-4.87 0.87-7.18-0.01z"/>
		<path class="s0" d="m161.43 718.48h12.26l5.83-47.29h-18.09v47.29z"/>
		<path class="s1" d="m158.3 714.48h3.45l13.47-5.48 7.22 5.48h0.01c2.02 0 4.02 0.4 5.88 1.17 1.87 0.77 3.57 1.91 4.99 3.33 1.43 1.43 2.57 3.13 3.34 5 0.77 1.86 1.17 3.86 1.17 5.88v0.5l-39.53 0.01z"/>
		<path class="s0" d="m208.94 710.76l11.96 2.7 16.1-44.85-17.65-3.98-10.41 46.13z"/>
		<path class="s1" d="m206.77 706.16l3.36 0.76 14.35-2.37 5.84 6.93c1.97 0.45 3.84 1.27 5.49 2.44 1.65 1.17 3.05 2.64 4.13 4.35 1.08 1.71 1.81 3.62 2.15 5.61 0.35 1.99 0.29 4.03-0.15 6l-0.11 0.49-38.56-8.71z"/>
		<path class="s1" d="m138.98 475.24l11.09 124.21c0 0-4.15 74.57 9.25 100.81h19.44l9.62-107.62 1.21-72.24 41.68 60.95-26.55 117.15 23.93 2.14 43.07-127.14-47.32-119.35z"/>
		<path class="s2" d="m150.59 277.44c-15.81 0-28.59-12.78-28.59-28.59 0-15.81 12.78-28.59 28.59-28.59 15.81 0 28.6 12.78 28.6 28.59 0 15.81-12.79 28.59-28.6 28.59z"/>
		<path class="s3" d="m210.61 304.69l-33.21-10.07-4.32-13.29-35.62 5.78-7.57 12.98-24.5 22.78 28.7 129.78-0.87 28.35c0 0 18.37 8.27 98.05-10.77 0.95-0.23-1.05-1.23-1.05-1.23z"/>
		<path class="s3" d="m242.16 447.75l-38.94-52.14-11.04-92.41 0.33-0.15c3.01-1.45 6.34-2.13 9.68-1.98 3.34 0.16 6.6 1.14 9.46 2.86 2.87 1.73 5.27 4.14 6.97 7.01 1.71 2.88 2.67 6.14 2.81 9.48l2.29 57.1 38.67 51.03z"/>
		<path class="s1" d="m120.86 265.07q-0.29-0.41-0.59-0.82-0.1 0.25-0.23 0.5z"/>
		<path class="s1" d="m179.03 227.94q-0.71-1.55-1.69-2.94-0.99-1.39-2.21-2.57-1.22-1.19-2.65-2.12-1.42-0.94-2.99-1.6-1.56-0.62-3.21-0.94-1.64-0.32-3.32-0.32-1.68 0-3.33 0.32-1.64 0.33-3.2 0.96c-3.78-2.39-7.98-4.29-12.4-4.52-4.42-0.23-9.1 1.41-11.83 5.02q-0.22 0.36-0.47 0.7-0.24 0.35-0.5 0.69-0.26 0.33-0.53 0.66-0.27 0.32-0.56 0.63c-2.19 2.03-5.52 1.74-8.43 1.32q1.95 1.68 3.91 3.36-2.37 0.62-4.74 1.24 2.77 1.68 5.54 3.36c-5.36 3.21-7.79 10.23-7.15 16.6 0.61 6.04 3.52 11.56 7 16.46 1.39-2.93 1.09-6.44 1.07-9.74-0.02-3.49 0.59-7.45 3.39-9.4 1.88-1.32 4.31-1.38 6.58-1.36q4.3 0.02 8.6 0.17 4.3 0.14 8.59 0.41 4.29 0.27 8.58 0.66 4.28 0.39 8.55 0.9 0.58 0.02 1.15 0.12 0.57 0.09 1.12 0.25 0.56 0.16 1.09 0.39 0.53 0.23 1.03 0.51c2.52 1.72 3.01 5.27 3.26 8.38q0.5-1.93 0.87-3.88 0.38-1.95 0.62-3.92 0.24-1.98 0.36-3.96 0.11-1.98 0.09-3.97 0.04-1.52-0.07-3.04-0.12-1.52-0.4-3.01-0.27-1.5-0.7-2.96-0.43-1.46-1.02-2.86z"/>
		<path class="s4" d="m176.22 575c-24.88 0-45-20.12-45-45 0-24.88 20.12-45 45-45 24.89 0 45 20.12 45 45 0 24.88-20.11 45-45 45z"/>
		<path class="s3" d="m176.22 484q-0.86 0-1.73 0.03-0.87 0.04-1.73 0.1-0.87 0.07-1.73 0.16-0.86 0.1-1.72 0.23-1.75 0.25-3.44 0.66c-8.3 1.91-15.91 6.1-21.97 12.08-6.06 5.99-10.34 13.54-12.36 21.81-2.02 8.28-1.71 16.95 0.91 25.06 2.63 8.11 7.45 15.33 13.93 20.85q1.15 0.98 2.36 1.88c11.85 8.83 27.21 11.43 41.3 7 14.09-4.44 25.2-15.37 29.85-29.39 4.65-14.02 2.28-29.43-6.37-41.4-8.65-11.98-22.52-19.07-37.3-19.07zm0 90q-3.48 0-6.93-0.54-3.44-0.55-6.75-1.64-3.31-1.09-6.41-2.68-3.1-1.6-5.91-3.67-1.22-0.89-2.38-1.88c-6.31-5.33-11-12.33-13.52-20.2-2.52-7.88-2.77-16.3-0.73-24.31 2.05-8.01 6.32-15.28 12.31-20.97 5.99-5.7 13.46-9.59 21.56-11.23q1.68-0.34 3.38-0.55 0.67-0.08 1.34-0.14 0.68-0.07 1.35-0.11 0.67-0.04 1.35-0.06 0.67-0.02 1.34-0.02c11.67 0 22.86 4.64 31.12 12.89 8.25 8.25 12.88 19.44 12.88 31.11 0 11.67-4.63 22.86-12.88 31.11-8.26 8.25-19.45 12.89-31.12 12.89z"/>
		<path class="s5" d="m198.22 521h-44c-1.65 0-3-1.34-3-3 0-1.66 1.35-3 3-3h44c1.66 0 3 1.34 3 3 0 1.66-1.34 3-3 3z"/>
		<path class="s5" d="m198.22 533h-44c-1.65 0-3-1.34-3-3 0-1.66 1.35-3 3-3h44c1.66 0 3 1.34 3 3 0 1.66-1.34 3-3 3z"/>
		<path class="s5" d="m198.22 545h-44c-1.65 0-3-1.34-3-3 0-1.66 1.35-3 3-3h44c1.66 0 3 1.34 3 3 0 1.66-1.34 3-3 3z"/>
		<path class="s0" d="m179.1 497.77c-1.45-0.22-2.84-0.76-4.06-1.58-1.22-0.82-2.25-1.89-3.01-3.15-0.76-1.26-1.23-2.67-1.39-4.13-0.16-1.46 0.01-2.94 0.48-4.33l-28.15-22.01 17.61-5.92 24.03 21.81c2.28 0.96 4.14 2.72 5.21 4.95 1.07 2.23 1.29 4.77 0.61 7.15-0.68 2.38-2.2 4.43-4.29 5.76-2.09 1.33-4.59 1.85-7.04 1.45z"/>
		<path class="s3" d="m122.72 322.5l-17.33 0.37q-2.55 2.35-4.56 5.17-2.01 2.83-3.39 6.01-1.37 3.19-2.06 6.58-0.69 3.4-0.66 6.87v81.91l65.05 54.38 21.04-20.36-48.42-52.75z"/>
		<path class="s6" d="m256 127.57h643.87v412.36h-643.87z"/>
		<path class="s7" d="m274.42 179.29h607.04v336.25h-607.04z"/>
		<path class="s5" d="m255.73 127.21h643.86v27.35h-643.86z"/>
		<path class="s7" d="m276.06 146.26c-2.81 0-5.07-2.26-5.07-5.07 0-2.8 2.26-5.07 5.07-5.07 2.8 0 5.07 2.27 5.07 5.07 0 2.81-2.27 5.07-5.07 5.07z"/>
		<path class="s7" d="m295.3 146.26c-2.8 0-5.07-2.26-5.07-5.07 0-2.8 2.27-5.07 5.07-5.07 2.8 0 5.07 2.27 5.07 5.07 0 2.81-2.27 5.07-5.07 5.07z"/>
		<path class="s7" d="m314.54 146.26c-2.8 0-5.07-2.26-5.07-5.07 0-2.8 2.27-5.07 5.07-5.07 2.81 0 5.07 2.27 5.07 5.07 0 2.81-2.26 5.07-5.07 5.07z"/>
		<path class="s5" d="m512.48 214.18h129.98v73.35h-129.98z"/>
		<path class="s6" d="m512.48 307.95h129.98v78.92h-129.98z"/>
		<path class="s6" d="m670.32 214.18h155.98v116.13h-155.98z"/>
		<path class="s5" d="m670.32 364.52h155.98v116.13h-155.98z"/>
		<path class="s6" d="m330.32 214.18h155.98v116.13h-155.98z"/>
		<path class="s3" d="m621.21 79.64l-44.44 167.16 2.04 0.54 44.02-165.59-1.62-2.11z"/>
		<path class="s3" d="m749.46 421.59l-44.01 165.59 1.62 2.11 44.43-167.16-2.04-0.54z"/>
		<path class="s6" d="m483.22 400.65h-150c-0.92 0-1.81-0.37-2.47-1.03-0.66-0.65-1.03-1.54-1.03-2.47 0-0.93 0.37-1.82 1.03-2.48 0.66-0.65 1.55-1.02 2.47-1.02h150c0.93 0 1.82 0.37 2.48 1.02 0.65 0.66 1.02 1.55 1.02 2.48 0 0.93-0.37 1.82-1.02 2.47-0.66 0.66-1.55 1.03-2.48 1.03z"/>
		<path class="s6" d="m483.22 380.65h-150c-0.92 0-1.81-0.37-2.47-1.03-0.66-0.65-1.03-1.54-1.03-2.47 0-0.93 0.37-1.82 1.03-2.48 0.66-0.65 1.55-1.02 2.47-1.02h150c0.93 0 1.82 0.37 2.48 1.02 0.65 0.66 1.02 1.55 1.02 2.48 0 0.93-0.37 1.82-1.02 2.47-0.66 0.66-1.55 1.03-2.48 1.03z"/>
		<path class="s6" d="m483.22 420.65h-150c-0.92 0-1.81-0.37-2.47-1.03-0.66-0.65-1.03-1.54-1.03-2.47 0-0.93 0.37-1.82 1.03-2.48 0.66-0.65 1.55-1.02 2.47-1.02h150c0.93 0 1.82 0.37 2.48 1.02 0.65 0.66 1.02 1.55 1.02 2.48 0 0.93-0.37 1.82-1.02 2.47-0.66 0.66-1.55 1.03-2.48 1.03z"/>
		<path class="s6" d="m483.22 440.65h-150c-0.92 0-1.81-0.37-2.47-1.03-0.66-0.65-1.03-1.54-1.03-2.47 0-0.93 0.37-1.82 1.03-2.48 0.66-0.65 1.55-1.02 2.47-1.02h150c0.93 0 1.82 0.37 2.48 1.02 0.65 0.66 1.02 1.55 1.02 2.48 0 0.93-0.37 1.82-1.02 2.47-0.66 0.66-1.55 1.03-2.48 1.03z"/>
		<path class="s6" d="m483.22 460.65h-150c-0.92 0-1.81-0.37-2.47-1.03-0.66-0.65-1.03-1.54-1.03-2.47 0-0.93 0.37-1.82 1.03-2.48 0.66-0.65 1.55-1.02 2.47-1.02h150c0.93 0 1.82 0.37 2.48 1.02 0.65 0.66 1.02 1.55 1.02 2.48 0 0.93-0.37 1.82-1.02 2.47-0.66 0.66-1.55 1.03-2.48 1.03z"/>
		<path class="s6" d="m483.22 480.65h-150c-0.92 0-1.81-0.37-2.47-1.03-0.66-0.65-1.03-1.54-1.03-2.47 0-0.93 0.37-1.82 1.03-2.48 0.66-0.65 1.55-1.02 2.47-1.02h150c0.93 0 1.82 0.37 2.48 1.02 0.65 0.66 1.02 1.55 1.02 2.48 0 0.93-0.37 1.82-1.02 2.47-0.66 0.66-1.55 1.03-2.48 1.03z"/>
		<path class="s6" d="m639.47 420.65h-124c-0.93 0-1.82-0.37-2.47-1.03-0.66-0.65-1.03-1.54-1.03-2.47 0-0.93 0.37-1.82 1.03-2.48 0.65-0.65 1.54-1.02 2.47-1.02h124c0.93 0 1.82 0.37 2.48 1.02 0.65 0.66 1.02 1.55 1.02 2.48 0 0.93-0.37 1.82-1.02 2.47-0.66 0.66-1.55 1.03-2.48 1.03z"/>
		<path class="s6" d="m639.47 440.65h-124c-0.93 0-1.82-0.37-2.47-1.03-0.66-0.65-1.03-1.54-1.03-2.47 0-0.93 0.37-1.82 1.03-2.48 0.65-0.65 1.54-1.02 2.47-1.02h124c0.93 0 1.82 0.37 2.48 1.02 0.65 0.66 1.02 1.55 1.02 2.48 0 0.93-0.37 1.82-1.02 2.47-0.66 0.66-1.55 1.03-2.48 1.03z"/>
		<path class="s6" d="m639.47 460.65h-124c-0.93 0-1.82-0.37-2.47-1.03-0.66-0.65-1.03-1.54-1.03-2.47 0-0.93 0.37-1.82 1.03-2.48 0.65-0.65 1.54-1.02 2.47-1.02h124c0.93 0 1.82 0.37 2.48 1.02 0.65 0.66 1.02 1.55 1.02 2.48 0 0.93-0.37 1.82-1.02 2.47-0.66 0.66-1.55 1.03-2.48 1.03z"/>
		<path class="s6" d="m639.47 480.65h-124c-0.93 0-1.82-0.37-2.47-1.03-0.66-0.65-1.03-1.54-1.03-2.47 0-0.93 0.37-1.82 1.03-2.48 0.65-0.65 1.54-1.02 2.47-1.02h124c0.93 0 1.82 0.37 2.48 1.02 0.65 0.66 1.02 1.55 1.02 2.48 0 0.93-0.37 1.82-1.02 2.47-0.66 0.66-1.55 1.03-2.48 1.03z"/>
		<path class="s4" d="m624.22 91c-24.88 0-45-20.11-45-45 0-24.89 20.12-45 45-45 24.89 0 45 20.11 45 45 0 24.89-20.11 45-45 45z"/>
		<path class="s3" d="m624.22 0q-0.86 0-1.73 0.03-0.87 0.04-1.73 0.1-0.87 0.07-1.73 0.16-0.86 0.1-1.72 0.23-1.75 0.25-3.44 0.66c-8.3 1.91-15.91 6.1-21.97 12.08-6.06 5.99-10.34 13.54-12.36 21.81-2.02 8.28-1.71 16.95 0.91 25.06 2.63 8.11 7.45 15.33 13.93 20.85q1.15 0.98 2.36 1.88c11.85 8.83 27.21 11.43 41.3 7 14.09-4.44 25.2-15.37 29.85-29.39 4.65-14.02 2.28-29.43-6.37-41.4-8.65-11.98-22.52-19.07-37.3-19.07zm0 90q-3.48 0-6.93-0.54-3.44-0.55-6.75-1.64-3.31-1.09-6.41-2.68-3.1-1.6-5.91-3.67-1.22-0.89-2.38-1.88c-6.31-5.33-11-12.33-13.52-20.2-2.52-7.88-2.77-16.3-0.73-24.31 2.05-8.01 6.32-15.28 12.31-20.97 5.99-5.7 13.46-9.59 21.56-11.23q1.68-0.34 3.38-0.55 0.67-0.08 1.34-0.14 0.68-0.07 1.35-0.11 0.67-0.04 1.35-0.06 0.67-0.02 1.34-0.02c11.67 0 22.86 4.64 31.12 12.89 8.25 8.25 12.88 19.44 12.88 31.11 0 11.67-4.63 22.86-12.88 31.11-8.26 8.25-19.45 12.89-31.12 12.89z"/>
		<path class="s5" d="m646.22 37h-44c-1.65 0-3-1.34-3-3 0-1.66 1.35-3 3-3h44c1.66 0 3 1.34 3 3 0 1.66-1.34 3-3 3z"/>
		<path class="s5" d="m646.22 49h-44c-1.65 0-3-1.34-3-3 0-1.66 1.35-3 3-3h44c1.66 0 3 1.34 3 3 0 1.66-1.34 3-3 3z"/>
		<path class="s5" d="m646.22 61h-44c-1.65 0-3-1.34-3-3 0-1.66 1.35-3 3-3h44c1.66 0 3 1.34 3 3 0 1.66-1.34 3-3 3z"/>
		<path class="s4" d="m700.22 673c-24.88 0-45-20.12-45-45 0-24.88 20.12-45 45-45 24.89 0 45 20.12 45 45 0 24.88-20.11 45-45 45z"/>
		<path class="s3" d="m700.22 582q-0.86 0-1.73 0.03-0.87 0.04-1.73 0.1-0.87 0.07-1.73 0.16-0.86 0.1-1.72 0.23-1.75 0.25-3.44 0.66c-8.3 1.91-15.91 6.1-21.97 12.08-6.06 5.99-10.34 13.54-12.36 21.81-2.02 8.28-1.71 16.95 0.91 25.06 2.63 8.11 7.45 15.33 13.93 20.85q1.15 0.98 2.36 1.88c11.85 8.83 27.21 11.43 41.3 7 14.09-4.44 25.2-15.37 29.85-29.39 4.65-14.02 2.28-29.43-6.37-41.4-8.65-11.98-22.52-19.07-37.3-19.07zm0 90q-3.48 0-6.93-0.54-3.44-0.55-6.75-1.64-3.31-1.09-6.41-2.68-3.1-1.6-5.91-3.67-1.22-0.89-2.38-1.88c-6.31-5.33-11-12.33-13.52-20.2-2.52-7.88-2.77-16.3-0.73-24.31 2.05-8.01 6.32-15.28 12.31-20.97 5.99-5.7 13.46-9.59 21.56-11.23q1.68-0.34 3.38-0.55 0.67-0.08 1.34-0.14 0.68-0.07 1.35-0.11 0.67-0.04 1.35-0.06 0.67-0.02 1.34-0.02c11.67 0 22.86 4.64 31.12 12.89 8.25 8.25 12.88 19.44 12.88 31.11 0 11.67-4.63 22.86-12.88 31.11-8.26 8.25-19.45 12.89-31.12 12.89z"/>
		<path class="s5" d="m722.22 619h-44c-1.65 0-3-1.34-3-3 0-1.66 1.35-3 3-3h44c1.66 0 3 1.34 3 3 0 1.66-1.34 3-3 3z"/>
		<path class="s5" d="m722.22 631h-44c-1.65 0-3-1.34-3-3 0-1.66 1.35-3 3-3h44c1.66 0 3 1.34 3 3 0 1.66-1.34 3-3 3z"/>
		<path class="s5" d="m722.22 643h-44c-1.65 0-3-1.34-3-3 0-1.66 1.35-3 3-3h44c1.66 0 3 1.34 3 3 0 1.66-1.34 3-3 3z"/>
		<path class="s8" d="m347.48 731.19h-346.29c-0.31 0-0.62-0.13-0.84-0.35-0.22-0.22-0.35-0.52-0.35-0.84 0-0.32 0.13-0.62 0.35-0.84 0.22-0.22 0.53-0.35 0.84-0.35h346.29c0.32 0 0.62 0.13 0.84 0.35 0.23 0.22 0.35 0.52 0.35 0.84 0 0.32-0.12 0.62-0.35 0.84-0.22 0.22-0.52 0.35-0.84 0.35z"/>
	</g>
</svg>