<svg version="1.2" xmlns="http://www.w3.org/2000/svg" viewBox="0 0 654.016 451.84" width="655" height="452">
	<title>undraw_ship-it_vn4g</title>
	<style>
		.s0 { fill: #090814 } 
		.s1 { fill: #ffffff } 
		.s2 { fill: #cacaca } 
		.s3 { fill: #3f3d56 } 
		.s4 { fill: #83c65e } 
		.s5 { fill: #e6e6e6 } 
		.s6 { fill: none } 
		.s7 { fill: #e4e4e4 } 
	</style>
	<g id="Group_266">
		<path id="Path_4661-1962" class="s0" d="m642.88 0h-631.74c-1.48 0.01-2.94 0.32-4.29 0.89-1.36 0.58-2.59 1.42-3.62 2.47-1.04 1.05-1.85 2.3-2.41 3.66-0.55 1.37-0.83 2.83-0.82 4.31v429.2c-0.01 1.48 0.27 2.94 0.83 4.3 0.55 1.36 1.37 2.61 2.4 3.66 1.04 1.04 2.27 1.88 3.62 2.45 1.36 0.58 2.81 0.88 4.29 0.89h631.74c1.47-0.01 2.93-0.31 4.28-0.89 1.36-0.57 2.59-1.41 3.62-2.46 1.04-1.04 1.85-2.29 2.41-3.65 0.55-1.36 0.83-2.82 0.83-4.29v-429.21c0.01-1.48-0.27-2.94-0.83-4.31-0.55-1.36-1.37-2.61-2.4-3.66-1.03-1.05-2.26-1.89-3.62-2.46-1.36-0.58-2.81-0.89-4.29-0.9z"/>
		<path id="Path_4660-1963" class="s0" d="m550.21 2.24h-538.47c-1.25 0.01-2.49 0.25-3.64 0.73-1.15 0.48-2.2 1.18-3.08 2.07-0.88 0.88-1.58 1.93-2.05 3.08-0.48 1.15-0.73 2.39-0.73 3.63v360.38c0.01 1.25 0.25 2.48 0.73 3.63 0.48 1.15 1.18 2.2 2.06 3.08 0.88 0.88 1.93 1.58 3.08 2.06 1.15 0.48 2.38 0.72 3.63 0.73h538.47c1.25-0.01 2.48-0.25 3.63-0.73 1.15-0.48 2.2-1.18 3.08-2.06 0.88-0.88 1.58-1.93 2.06-3.08 0.47-1.15 0.72-2.38 0.72-3.63v-360.37c0-1.25-0.24-2.48-0.72-3.64-0.48-1.15-1.17-2.2-2.05-3.08-0.89-0.88-1.93-1.58-3.08-2.06-1.16-0.48-2.39-0.73-3.64-0.74z"/>
		<path id="Path_4021-1964" class="s1" d="m624.21 2.24h-612.41c-1.42 0.01-2.82 0.29-4.13 0.83-1.31 0.55-2.5 1.34-3.5 2.35-1.01 1-1.8 2.19-2.34 3.51-0.55 1.31-0.83 2.71-0.83 4.13v409.86c0 1.42 0.29 2.82 0.83 4.13 0.54 1.31 1.34 2.5 2.34 3.5 1 1 2.19 1.8 3.5 2.34 1.31 0.55 2.72 0.83 4.13 0.83h612.41c1.42 0 2.82-0.28 4.13-0.83 1.31-0.54 2.5-1.34 3.5-2.34 1.01-1 1.8-2.19 2.34-3.5 0.55-1.31 0.83-2.71 0.83-4.13v-409.86c0-1.42-0.28-2.82-0.82-4.14-0.54-1.31-1.34-2.5-2.34-3.5-1-1.01-2.19-1.8-3.5-2.35-1.31-0.54-2.72-0.83-4.14-0.83z"/>
		<path id="Path_4026-1965" class="s2" d="m605.67 58.72h-573.02c-0.61-0.01-1.19-0.25-1.61-0.67-0.43-0.43-0.67-1.01-0.67-1.61 0-0.61 0.24-1.19 0.67-1.62 0.42-0.42 1-0.66 1.61-0.66h573.02c0.61 0 1.19 0.24 1.62 0.66 0.42 0.43 0.66 1.01 0.66 1.62 0 0.6-0.24 1.18-0.66 1.61-0.43 0.42-1.01 0.66-1.62 0.67z"/>
		<path id="Ellipse_687" class="s3" d="m43.77 42.52c-7.38 0-13.35-6.1-13.35-13.65 0-7.55 5.97-13.65 13.35-13.65 7.39 0 13.36 6.1 13.36 13.65 0 7.55-5.97 13.65-13.36 13.65z"/>
		<path id="Ellipse_688" class="s3" d="m89.91 42.52c-7.39 0-13.36-6.1-13.36-13.65 0-7.55 5.97-13.65 13.36-13.65 7.38 0 13.35 6.1 13.35 13.65 0 7.55-5.97 13.65-13.35 13.65z"/>
		<path id="Ellipse_689" class="s4" d="m136.04 42.52c-7.38 0-13.35-6.1-13.35-13.65 0-7.55 5.97-13.65 13.35-13.65 7.39 0 13.36 6.1 13.36 13.65 0 7.55-5.97 13.65-13.36 13.65z"/>
		<path id="Ellipse_808" class="s5" d="m594.55 42.52c-7.39 0-13.36-6.1-13.36-13.65 0-7.55 5.97-13.65 13.36-13.65 7.38 0 13.35 6.1 13.35 13.65 0 7.55-5.97 13.65-13.35 13.65z"/>
		<g id="Group_265">
			<path id="Rectangle_946" class="s4" d="m350.04 162.97h131.54c13.26 0 24 10.75 24 24v30.55c0 13.26-10.74 24-24 24h-131.54c-13.26 0-24-10.74-24-24v-30.55c0-13.25 10.74-24 24-24z"/>
			<path id="Rectangle_947" class="s5" d="m154.01 162.97h131.54c13.26 0 24 10.75 24 24v30.55c0 13.26-10.74 24-24 24h-131.54c-13.26 0-24-10.74-24-24v-30.55c0-13.25 10.74-24 24-24z"/>
			<g id="Group_263">
				<path id="Path_4662-1966" class="s6" d="m388.88 176.44h53.86v53.86h-53.86z"/>
				<path id="Path_4663-1967" class="s1" d="m413.57 223.57q-0.41 0-0.8-0.14-0.38-0.15-0.69-0.42-0.31-0.28-0.5-0.64-0.19-0.37-0.24-0.78-0.16-1.3-0.53-2.56-0.37-1.26-0.94-2.44-0.57-1.18-1.34-2.25-0.76-1.07-1.68-2-0.93-0.92-1.99-1.68-1.07-0.76-2.24-1.33-1.18-0.58-2.43-0.95-1.25-0.37-2.55-0.53-0.58-0.06-1.06-0.38-0.47-0.33-0.73-0.85-0.26-0.52-0.24-1.09 0.03-0.58 0.33-1.08 0.91-1.56 2.14-2.87 1.24-1.32 2.74-2.32 1.51-1 3.2-1.63 1.69-0.63 3.48-0.87 1.23-2.89 3.21-5.32 1.98-2.44 4.56-4.24 2.57-1.8 5.54-2.83 2.97-1.02 6.1-1.2 0.06 0 0.13 0c1.17 0 2.34 0.24 3.43 0.69 1.09 0.45 2.08 1.11 2.91 1.94 0.83 0.84 1.5 1.83 1.95 2.91 0.45 1.09 0.68 2.26 0.68 3.44q0 0.06 0 0.12-0.17 3.14-1.19 6.11-1.03 2.96-2.83 5.54-1.8 2.57-4.24 4.55-2.44 1.98-5.33 3.22-0.23 1.79-0.87 3.49-0.64 1.7-1.64 3.2-1.01 1.51-2.33 2.75-1.32 1.24-2.89 2.14-0.13 0.08-0.26 0.13-0.14 0.06-0.28 0.1-0.14 0.03-0.29 0.05-0.15 0.02-0.29 0.02zm-11.76-19.39q1.16 0.37 2.27 0.87 1.1 0.5 2.14 1.13 1.04 0.63 1.99 1.38 0.96 0.74 1.82 1.6 0.85 0.86 1.6 1.82 0.75 0.95 1.38 1.99 0.62 1.04 1.12 2.14 0.5 1.11 0.87 2.26 0.7-0.74 1.26-1.59 0.55-0.86 0.95-1.8 0.39-0.94 0.6-1.94 0.22-0.99 0.25-2.01 0.01-0.34 0.12-0.66 0.11-0.32 0.31-0.6 0.2-0.27 0.47-0.47 0.28-0.2 0.6-0.31 2.5-0.88 4.65-2.45 2.14-1.57 3.74-3.69 1.6-2.12 2.51-4.61 0.91-2.5 1.06-5.15-0.01-0.88-0.35-1.68-0.34-0.81-0.96-1.43-0.63-0.62-1.43-0.97-0.81-0.34-1.69-0.35-2.65 0.15-5.15 1.06-2.49 0.92-4.61 2.51-2.12 1.6-3.69 3.74-1.57 2.15-2.44 4.66-0.12 0.32-0.32 0.59-0.2 0.27-0.47 0.47-0.28 0.2-0.6 0.31-0.32 0.12-0.66 0.13-1.02 0.03-2.01 0.24-1 0.22-1.94 0.61-0.94 0.39-1.79 0.95-0.86 0.55-1.6 1.25z"/>
				<path id="Path_4664-1968" class="s1" d="m397.77 224.68q-0.29 0-0.58-0.01-0.29-0.01-0.58-0.03-0.29-0.02-0.57-0.04-0.29-0.03-0.58-0.06-0.4-0.04-0.77-0.21-0.37-0.17-0.67-0.44-0.3-0.28-0.49-0.64-0.19-0.36-0.26-0.76-0.17-1.22-0.14-2.46 0.02-1.23 0.24-2.45 0.22-1.22 0.63-2.38 0.41-1.17 1-2.26 0.61-1.12 1.38-2.14 0.76-1.01 1.67-1.91 0.91-0.89 1.95-1.64 1.03-0.74 2.16-1.33 0.44-0.23 0.93-0.29 0.5-0.06 0.98 0.07 0.48 0.12 0.88 0.41 0.4 0.3 0.67 0.71 0.25 0.41 0.31 0.89 0.06 0.48-0.08 0.94-0.14 0.46-0.45 0.82-0.31 0.37-0.74 0.58-1.39 0.7-2.55 1.73-1.17 1.04-2.02 2.34-0.85 1.3-1.33 2.78-0.47 1.48-0.55 3.04 1.59-0.03 3.14-0.45 1.54-0.43 2.93-1.21 1.38-0.79 2.54-1.89 1.15-1.11 2-2.46 0.27-0.42 0.67-0.71 0.4-0.29 0.88-0.42 0.48-0.12 0.98-0.07 0.49 0.06 0.93 0.29 0.43 0.22 0.74 0.58 0.31 0.37 0.45 0.83 0.13 0.46 0.08 0.93-0.06 0.48-0.31 0.89-0.67 1.09-1.49 2.07-0.82 0.98-1.78 1.83-0.95 0.85-2.03 1.55-1.07 0.69-2.23 1.23-0.93 0.43-1.9 0.76-0.97 0.33-1.97 0.55-1 0.22-2.02 0.33-1.02 0.11-2.05 0.11z"/>
				<path id="Path_4665-1969" class="s1" d="m422.58 200.13c-1.43 0-2.71-0.86-3.26-2.18-0.54-1.32-0.24-2.83 0.77-3.84 1.01-1.01 2.52-1.31 3.84-0.76 1.32 0.54 2.17 1.83 2.17 3.25q0 0.7-0.27 1.35-0.26 0.65-0.76 1.14-0.5 0.5-1.14 0.77-0.65 0.26-1.35 0.27z"/>
			</g>
		</g>
		<path id="Path_2993-1970" class="s7" d="m239.8 327.1h157.99c1.36 0 2.67-0.55 3.64-1.51 0.97-0.97 1.51-2.28 1.51-3.65 0-1.36-0.54-2.67-1.51-3.64-0.97-0.97-2.28-1.51-3.64-1.51h-157.99c-1.36 0-2.67 0.54-3.64 1.51-0.97 0.97-1.51 2.28-1.51 3.64 0 1.37 0.54 2.68 1.51 3.65 0.97 0.96 2.28 1.51 3.64 1.51z"/>
		<path id="Path_2995-1971" class="s7" d="m239.81 353.08h68.48c1.36 0 2.67-0.54 3.64-1.5 0.97-0.97 1.51-2.28 1.51-3.65 0-1.36-0.54-2.68-1.51-3.64-0.97-0.97-2.28-1.51-3.64-1.51h-68.48c-1.37 0-2.68 0.54-3.65 1.51-0.97 0.97-1.51 2.28-1.51 3.64 0 1.37 0.54 2.68 1.51 3.65 0.97 0.96 2.28 1.51 3.65 1.5z"/>
	</g>
</svg>