<svg version="1.2" xmlns="http://www.w3.org/2000/svg" viewBox="0 0 810 463" width="810" height="463">
	<title>vec_consult</title>
	<style>
		.s0 { fill: #f0f0f0 } 
		.s1 { fill: #e6e6e6 } 
		.s2 { fill: #f2f2f2 } 
		.s3 { fill: #cacaca } 
		.s4 { fill: #cccccc } 
		.s5 { fill: #e4e4e4 } 
		.s6 { fill: #ffffff } 
		.s7 { fill: #3f3d56 } 
		.s8 { fill: #9e616a } 
		.s9 { fill: #1a4d29 } 
		.s10 { fill: #2f2e41 } 
		.s11 { fill: #83c65e } 
		.s12 { fill: #ffb6b6 } 
		.s13 { fill: #ffb8b8 } 
	</style>
	<g id="Layer 1">
		<path class="s0" d="m133.14 210.53v-130.05c0-1.86 0.74-3.64 2.05-4.95 1.31-1.32 3.1-2.05 4.96-2.05 1.85 0 3.63 0.73 4.95 2.05 1.31 1.31 2.05 3.09 2.05 4.95v130.05c0 1.85-0.74 3.63-2.05 4.95-1.32 1.32-3.1 2.06-4.95 2.06-1.86 0-3.65-0.74-4.96-2.06-1.31-1.32-2.05-3.1-2.05-4.95z"/>
		<path class="s0" d="m116.39 210.53v-130.05c0-1.86 0.74-3.64 2.05-4.95 1.31-1.32 3.09-2.05 4.95-2.05 1.85 0 3.63 0.73 4.95 2.05 1.31 1.31 2.05 3.09 2.05 4.95v130.05c0 1.85-0.74 3.63-2.05 4.95-1.32 1.32-3.1 2.06-4.95 2.06-1.86 0-3.64-0.74-4.95-2.06-1.31-1.32-2.05-3.1-2.05-4.95z"/>
		<path class="s0" d="m99.63 210.53v-130.05c0-1.86 0.74-3.64 2.05-4.95 1.31-1.32 3.09-2.05 4.95-2.05 1.85 0 3.63 0.73 4.95 2.05 1.32 1.31 2.06 3.09 2.06 4.95v130.05c0 1.85-0.74 3.63-2.06 4.95-1.32 1.32-3.1 2.06-4.95 2.06-1.86 0-3.64-0.74-4.95-2.06-1.31-1.32-2.05-3.1-2.05-4.95z"/>
		<path class="s1" d="m732.28 418.25q-1.05 0-2.1-0.09-1.06-0.09-2.1-0.27-1.03-0.18-2.06-0.45-1.02-0.27-2.01-0.62l-0.41-0.15 0.19-0.9c-4.75-9.62-3.09-22.77 4.25-33.59 6.68-9.83 16.84-16.99 25.8-23.3 1.14-0.8 2.49-1.24 3.88-1.26 1.39-0.03 2.75 0.36 3.93 1.11 1.16 0.76 2.08 1.85 2.62 3.13 0.54 1.28 0.69 2.69 0.43 4.06l-3.21 16.44c-2.32 11.86-5.07 23.08-13.22 30.08q-1.67 1.39-3.55 2.48-1.89 1.09-3.93 1.84-2.04 0.74-4.18 1.12-2.15 0.37-4.33 0.37z"/>
		<path class="s1" d="m753.27 446.66q-2.33-0.01-4.58-0.6-2.25-0.59-4.29-1.71-2.04-1.12-3.74-2.71-1.7-1.6-2.95-3.55l-0.24-0.37 0.56-0.48c1.43-7.82 8.17-14.79 17.22-17.78 8.23-2.73 17.31-2.28 25.32-1.89 1.06 0.05 2.08 0.42 2.93 1.05 0.85 0.63 1.49 1.5 1.85 2.5 0.35 0.99 0.41 2.07 0.15 3.1-0.26 1.03-0.82 1.95-1.61 2.66l-9 8.14c-6.55 5.91-13.08 11.25-20.96 11.63q-0.33 0.01-0.66 0.01z"/>
		<path class="s2" d="m725.3 455.35c-1.33-9.9-2.69-19.94-1.76-29.96 0.83-8.89 3.48-17.58 8.88-24.7q1.07-1.41 2.26-2.72 1.18-1.31 2.49-2.51 1.3-1.2 2.69-2.28 1.4-1.09 2.88-2.04c1.03-0.68 1.98 1 0.96 1.66q-2.57 1.67-4.84 3.71-2.27 2.05-4.2 4.42-1.93 2.37-3.46 5.02-1.53 2.64-2.63 5.49c-3.29 8.57-3.81 17.89-3.25 26.98 0.35 5.51 1.07 10.97 1.8 16.42q0.05 0.18 0.02 0.37-0.02 0.19-0.11 0.35-0.1 0.17-0.24 0.29-0.15 0.12-0.32 0.18-0.19 0.05-0.37 0.02-0.19-0.02-0.36-0.12-0.16-0.09-0.27-0.24-0.12-0.15-0.17-0.34z"/>
		<path class="s2" d="m721.54 461.05c6.41-11.58 13.83-24.47 27.11-28.58q1.38-0.43 2.79-0.72 1.42-0.29 2.85-0.44 1.44-0.15 2.88-0.16 1.44-0.01 2.88 0.12c1.22 0.1 0.91 2.01-0.3 1.9q-2.4-0.2-4.8 0.02-2.4 0.22-4.73 0.85-2.32 0.63-4.5 1.65-2.19 1.02-4.16 2.4c-5.13 3.58-9.13 8.54-12.51 13.81-2.07 3.22-3.93 6.58-5.78 9.93-0.59 1.08-2.33 0.3-1.73-0.78z"/>
		<path class="s3" d="m718.66 460.88l6.47 0.15-39-208.32-6.47 1.22 10.19 54.04h-32.81l10.19-54.04-6.48-1.22-38.66 208.32 6.14-0.15 20.33-107.89h49.77zm-68.6-115.91l5.47-29.01h35.83l5.46 29.01z"/>
		<path class="s0" d="m436.26 213.84v-68.4c0-2.03 3.15-3.68 7.01-3.68 3.86 0 7 1.65 7 3.68v68.4c0 2.03-3.14 3.7-7 3.7-3.86 0-7.01-1.67-7.01-3.7z"/>
		<path class="s0" d="m419.51 213.84v-68.4c0-2.03 3.14-3.68 7-3.68 3.86 0 7 1.65 7 3.68v68.4c0 2.03-3.14 3.7-7 3.7-3.86 0-7-1.67-7-3.7z"/>
		<path class="s0" d="m402.75 213.84v-68.4c0-2.03 3.14-3.68 7-3.68 3.87 0 7.01 1.65 7.01 3.68v68.4c0 2.03-3.14 3.7-7.01 3.7-3.86 0-7-1.67-7-3.7z"/>
		<path class="s4" d="m543.72 163.53q-0.02-0.15-0.08-0.3-0.05-0.15-0.14-0.28-0.08-0.13-0.19-0.25-0.11-0.11-0.24-0.19l-52.8-34.85q0.3-0.13 0.57-0.3 0.27-0.17 0.52-0.38 0.24-0.21 0.44-0.46 0.2-0.25 0.37-0.52 0.39-0.69 0.49-1.48 0.11-0.79-0.1-1.56-0.21-0.76-0.69-1.4-0.48-0.63-1.17-1.03l-4.34-2.5q-0.69-0.39-1.48-0.49-0.78-0.11-1.55 0.1-0.77 0.21-1.4 0.69-0.63 0.48-1.03 1.17-0.11 0.19-0.2 0.38-0.08 0.2-0.15 0.41-0.06 0.21-0.1 0.42-0.04 0.21-0.06 0.43l-38.1-25.16q-0.96-2.32-2.4-4.38-1.44-2.08-3.3-3.78-1.84-1.7-4.02-2.97-2.17-1.27-4.56-2.03v-11.09h-14v11.09c-2.32 0.73-4.5 1.83-6.46 3.25-1.97 1.42-3.7 3.14-5.13 5.1-1.42 1.96-2.54 4.13-3.29 6.43q-1.13 3.48-1.13 7.14v3h14.01c0 2.38 0.95 4.67 2.63 6.36 1.69 1.69 3.98 2.65 6.37 2.65 2.38 0 4.67-0.96 6.36-2.65 1.69-1.69 2.64-3.98 2.64-6.36h14.01v-3q0-0.54-0.03-1.08-0.02-0.54-0.07-1.07-0.06-0.54-0.13-1.08-0.08-0.53-0.18-1.06l96.41 63.64-40.05 48.69q-0.46 0-0.93 0-4.8 0-9.24 0.2 0.07-0.18 0.11-0.37 0.05-0.19 0.08-0.39 0.03-0.19 0.04-0.39 0.01-0.19 0-0.39-0.05-0.79-0.39-1.51-0.34-0.72-0.93-1.25-0.59-0.53-1.34-0.8-0.75-0.26-1.55-0.23l-5 0.26q-0.79 0.05-1.51 0.39-0.71 0.34-1.25 0.93-0.53 0.59-0.8 1.34-0.26 0.75-0.22 1.55 0.01 0.23 0.05 0.46 0.04 0.23 0.11 0.45 0.07 0.23 0.16 0.44 0.1 0.22 0.22 0.42c-8.83 0.94-14.55 2.24-14.55 2.9 0 1.08 15.36 0.05 34.6 0q0.14 0.38 0.44 0.64 0.31 0.26 0.71 0.33 0.4 0.07 0.78-0.07 0.38-0.14 0.64-0.45l0.37-0.45c19.18 0.05 34.48 1.07 34.48 0 0-1.03-13.6-3.55-31.24-3.96l39.59-48.12q0.1-0.12 0.17-0.26 0.07-0.14 0.11-0.29 0.05-0.16 0.06-0.31 0.01-0.16-0.02-0.32z"/>
		<path class="s5" d="m545.17 461.38h-123.27c-1.23 0-2.45-0.25-3.59-0.72-1.14-0.47-2.18-1.16-3.05-2.04-0.87-0.87-1.56-1.9-2.03-3.04-0.48-1.14-0.72-2.36-0.72-3.59v-202.3c0-1.1-0.22-2.19-0.64-3.21q-0.65-1.54-1.83-2.72c-0.78-0.78-1.71-1.4-2.72-1.82-1.02-0.42-2.11-0.64-3.21-0.64h-288.33c-1.1 0-2.19 0.22-3.21 0.64q-1.55 0.64-2.73 1.82-1.18 1.18-1.82 2.72c-0.42 1.02-0.64 2.11-0.64 3.21v202.3c0 1.23-0.25 2.45-0.72 3.59q-0.71 1.72-2.04 3.04-1.32 1.33-3.04 2.04c-1.14 0.47-2.36 0.72-3.59 0.72h-4.22c-1.23 0-2.45-0.25-3.59-0.72-1.14-0.47-2.18-1.16-3.06-2.04-0.87-0.87-1.56-1.9-2.03-3.04-0.48-1.14-0.72-2.36-0.72-3.59v-213.2c0-2.96 0.59-5.88 1.72-8.61 1.13-2.73 2.8-5.21 4.89-7.29 2.08-2.09 4.56-3.75 7.29-4.88 2.73-1.13 5.65-1.72 8.61-1.72h425.17c2.95 0 5.89 0.59 8.61 1.72 2.73 1.13 5.21 2.79 7.3 4.88 2.09 2.08 3.75 4.56 4.88 7.29 1.13 2.73 1.71 5.65 1.72 8.61v213.2c0 1.23-0.25 2.45-0.72 3.59q-0.71 1.72-2.04 3.04-1.32 1.33-3.04 2.04c-1.14 0.47-2.36 0.72-3.59 0.72z"/>
		<path class="s6" d="m413.01 268.81h141.05v6h-141.05z"/>
		<path class="s6" d="m413.01 349.84h141.05v6h-141.05z"/>
		<path class="s1" d="m296.24 215.29l-4.05-1.71-2.78-20.31h-37.04l-3.01 20.23-3.63 1.81q-0.27 0.14-0.39 0.41-0.13 0.28-0.06 0.57 0.07 0.29 0.3 0.48 0.24 0.18 0.53 0.18h49.8q0.3 0 0.54-0.19 0.24-0.2 0.3-0.5 0.06-0.3-0.08-0.58-0.15-0.27-0.43-0.39z"/>
		<path class="s4" d="m362.06 195.97h-181.93q-0.72 0-1.38-0.27-0.66-0.28-1.17-0.79-0.5-0.5-0.78-1.16-0.27-0.67-0.27-1.38v-25.66h189.12v25.66q0 0.71-0.27 1.38-0.27 0.66-0.78 1.16-0.51 0.51-1.16 0.79-0.67 0.27-1.38 0.27z"/>
		<path class="s7" d="m365.84 178.83h-189.48v-109.76q0.01-0.86 0.34-1.66 0.33-0.8 0.94-1.42 0.61-0.61 1.41-0.94 0.79-0.33 1.66-0.33h180.78q0.87 0 1.67 0.33 0.8 0.33 1.41 0.94 0.61 0.62 0.94 1.42 0.33 0.8 0.33 1.66z"/>
		<path class="s6" d="m354.52 170.87h-166.83q-0.68 0-1.29-0.25-0.62-0.26-1.09-0.73-0.47-0.47-0.73-1.09-0.25-0.61-0.25-1.28v-91.48q0-0.67 0.25-1.28 0.26-0.62 0.73-1.09 0.47-0.47 1.09-0.72 0.61-0.26 1.29-0.26h166.83q0.67 0 1.28 0.26 0.62 0.25 1.09 0.72 0.47 0.47 0.72 1.09 0.26 0.61 0.26 1.28v91.48q0 0.67-0.26 1.28-0.25 0.62-0.72 1.09-0.47 0.47-1.09 0.73-0.61 0.25-1.28 0.25z"/>
		<path class="s8" d="m541.56 83.19c1.59-0.23 3.22-0.11 4.76 0.36 1.55 0.46 2.97 1.26 4.17 2.34 1.2 1.08 2.15 2.4 2.78 3.88 0.63 1.5 0.93 3.1 0.88 4.71l36.59 14.07-16.58 11.85-32.19-15.19c-2.7-0.27-5.21-1.52-7.06-3.52-1.84-1.99-2.88-4.59-2.93-7.3-0.05-2.72 0.89-5.37 2.66-7.43 1.76-2.06 4.23-3.4 6.92-3.77z"/>
		<path class="s9" d="m680.45 76.28l6.19 11.25q-0.56 2.65-1.56 5.19-0.99 2.52-2.39 4.85-1.4 2.32-3.16 4.38-1.77 2.06-3.86 3.8c-9.47 7.98-59.01 37.75-59.01 37.75l-62.55-31.4 10.95-14.53 49.1 16.44q6.8-6.42 14.31-12.01 7.5-5.6 15.62-10.28 8.1-4.69 16.69-8.41 8.6-3.71 17.56-6.4z"/>
		<path class="s3" d="m668.94 262.45c-26.99 0-48.81-7.1-48.81-15.89 0-8.81 21.82-15.91 48.81-15.91 27 0 48.82 7.1 48.82 15.91 0 8.79-21.82 15.89-48.82 15.89z"/>
		<path class="s8" d="m559.44 447.41l-12.96-3.59 7.65-51.69 19.13 5.28z"/>
		<path class="s10" d="m559.27 460.88l-41.79-11.55 0.15-0.53c0.59-2.13 1.6-4.13 2.96-5.88 1.36-1.75 3.05-3.22 4.98-4.31 1.93-1.09 4.05-1.79 6.25-2.07 2.2-0.27 4.43-0.1 6.57 0.49h0.01l25.52 7.06z"/>
		<path class="s8" d="m521.86 447.57l-12.3-5.43 15.1-50.03 18.16 8.01z"/>
		<path class="s10" d="m519.74 460.88l-39.67-17.51 0.22-0.5c0.89-2.03 2.18-3.87 3.78-5.4 1.6-1.53 3.5-2.73 5.57-3.53 2.06-0.8 4.27-1.18 6.48-1.13 2.22 0.05 4.4 0.54 6.42 1.43h0.01l24.22 10.7z"/>
		<path class="s10" d="m706.93 207.67c0 0 6.52 20.2-33.49 45.75l-51.52 51.34-53.53 128.05-31.78-14.24 6.23-16.64 4.18-11.16 2.14-5.72 2.3-6.12 34.02-90.83 28.59-50.04 0.83-27.16 7.02-19.13 51.01-18.1z"/>
		<path class="s10" d="m680.92 208.67c0 0 6.52 20.2-33.49 45.75l-51.52 51.34-53.53 128.05-31.79-14.24 6.24-16.64 4.18-11.16 2.14-5.72 2.3-6.12 34.02-90.83 9.57-16.75q4.73-8.29 9.97-16.25 5.23-7.97 10.96-15.61 5.73-7.62 11.91-14.87 6.19-7.25 12.83-14.11l9.38-9.7 1-15.01 21.83-12.13z"/>
		<path class="s9" d="m650.1 109.77l16.01-34.01 27.93-3.81c0 0 21.81 27.79 16.08 66.83-2.15 14.65-3.9 29.23-4 42.02-0.03 3.4 2.95 4.92 3 8 0.05 3.03-5.65 7.96-4 10.01q0.87 1.06 1.57 2.23 0.71 1.18 1.21 2.46 0.51 1.27 0.82 2.61 0.3 1.33 0.4 2.7c-1.98 4.72-61.98-20.84-87.2-17.04z"/>
		<path class="s8" d="m689.78 54.83c-7.15 12.01-22.62 15.95-34.64 8.8-12-7.14-15.94-22.62-8.8-34.62 7.13-12.01 22.62-15.95 34.62-8.81 12.02 7.14 15.95 22.62 8.82 34.63z"/>
		<path class="s10" d="m684.2 32.84c-0.05 0.67-0.11 1.55-0.19 2.54q-0.03 1.02 0.1 2.03 0.13 1.01 0.41 1.98 0.27 0.98 0.7 1.91 0.43 0.93 1 1.77c1.41 2.39-0.28 16.82-0.28 16.82 41.38-28.84 8.69-57.82-4.11-55.25 0.27-3.66-10.16-2.21-10.16-2.21-3.97-6.19-12.69 2.02-12.69 2.02l1.68-2.82c-6.76 1.72-13.44 22.62-13.44 22.62 2.29 9.02 37.25 4.93 36.98 8.59z"/>
		<path class="s4" d="m523.66 123.16q5.33-7.08 10.09-14.56 4.78-7.47 8.96-15.27 4.19-7.82 7.76-15.93 3.58-8.1 6.53-16.46 0.34-1.01 0.31-2.06-0.02-1.06-0.41-2.05-0.38-0.98-1.08-1.77-0.71-0.79-1.64-1.29l-48.66-26.08q-0.59-0.32-1.24-0.5-0.65-0.17-1.32-0.2-0.67-0.03-1.32 0.1-0.66 0.12-1.28 0.39-0.62 0.27-1.17 0.68-0.55 0.41-0.99 0.92-0.45 0.52-0.76 1.13-0.31 0.6-0.48 1.26-2.12 8.04-5.16 15.78-3.04 7.73-6.98 15.05-3.92 7.34-8.67 14.15-4.76 6.81-10.27 13.03-0.46 0.5-0.79 1.1-0.33 0.61-0.51 1.26-0.19 0.66-0.23 1.34-0.03 0.68 0.09 1.35 0.12 0.66 0.38 1.28 0.26 0.62 0.65 1.16 0.4 0.54 0.9 0.98 0.51 0.44 1.1 0.76l48.67 26.08q0.93 0.49 1.98 0.64 1.04 0.14 2.08-0.08 1.03-0.22 1.93-0.79 0.89-0.57 1.53-1.4z"/>
		<path class="s6" d="m520.34 120.66q-0.19 0.25-0.46 0.41-0.27 0.16-0.58 0.23-0.3 0.06-0.61 0.02-0.31-0.05-0.59-0.19l-48.67-26.08q-0.17-0.09-0.33-0.22-0.15-0.13-0.26-0.3-0.12-0.16-0.2-0.34-0.08-0.19-0.11-0.38-0.04-0.21-0.03-0.42 0.01-0.21 0.07-0.42 0.06-0.2 0.16-0.38 0.11-0.19 0.25-0.34 5.68-6.41 10.57-13.42 4.89-7.02 8.94-14.57 4.04-7.53 7.17-15.49 3.13-7.97 5.31-16.24 0.05-0.21 0.15-0.4 0.09-0.18 0.23-0.35 0.14-0.16 0.31-0.28 0.17-0.13 0.36-0.21 0.18-0.08 0.38-0.12 0.2-0.04 0.4-0.03 0.2 0.01 0.39 0.06 0.19 0.05 0.37 0.15l48.66 26.08q0.28 0.15 0.49 0.38 0.21 0.23 0.33 0.53 0.11 0.29 0.12 0.6 0.02 0.31-0.08 0.61-2.89 8.22-6.41 16.18-3.51 7.96-7.62 15.63-4.12 7.67-8.8 15.01-4.68 7.33-9.91 14.29z"/>
		<path class="s11" d="m503.31 56.13l33.58 19.67c3.34 1.96 6.36-3.23 3.03-5.18l-33.58-19.68c-3.34-1.95-6.36 3.23-3.03 5.19z"/>
		<path class="s11" d="m497.31 67.14l33.57 19.66c3.34 1.96 6.37-3.23 3.03-5.18l-33.57-19.68c-3.34-1.95-6.36 3.23-3.03 5.2z"/>
		<path class="s11" d="m490.31 79.14l33.57 19.67c3.34 1.96 6.36-3.23 3.03-5.18l-33.57-19.68c-3.34-1.95-6.36 3.23-3.03 5.19z"/>
		<path class="s11" d="m483.3 89.14l33.58 19.67c3.34 1.96 6.36-3.23 3.03-5.18l-33.58-19.68c-3.34-1.95-6.36 3.23-3.03 5.19z"/>
		<path class="s11" d="m636.33 204.86l12.6 28.34q0.22 0.51 0.32 1.06 0.1 0.55 0.05 1.1-0.04 0.56-0.21 1.09-0.18 0.52-0.48 0.99-0.36 0.56-0.86 1-0.5 0.43-1.11 0.7-0.6 0.27-1.26 0.35-0.66 0.08-1.31-0.03-0.11-0.01-0.22-0.04-0.11-0.02-0.22-0.05-0.11-0.03-0.22-0.06-0.11-0.04-0.21-0.08-0.41-0.16-0.79-0.4-0.37-0.23-0.7-0.54-0.32-0.3-0.57-0.67-0.26-0.36-0.44-0.76l-12.6-28.34c-0.49-1.09-0.52-2.33-0.09-3.44 0.43-1.12 1.28-2.01 2.37-2.5 1.09-0.48 2.33-0.52 3.44-0.09 1.12 0.43 2.01 1.28 2.51 2.37z"/>
		<path class="s7" d="m647.91 230.92l2.52 5.71 1.29 8.12c0.09 0.53 0 1.08-0.26 1.55-0.26 0.48-0.67 0.85-1.16 1.07-0.49 0.22-1.05 0.27-1.57 0.15-0.53-0.13-1-0.43-1.33-0.85l-5.23-6.51-2.48-5.59z"/>
		<path class="s7" d="m625.3 196.98l1.8 11.34q0.09 0.57 0.42 1.03 0.33 0.47 0.83 0.74 0.51 0.27 1.08 0.3 0.57 0.02 1.09-0.21l1.79-0.8 3.45 7.78q0.18 0.37 0.57 0.53 0.38 0.14 0.76-0.02 0.38-0.18 0.53-0.56 0.14-0.38-0.02-0.76l-3.46-7.78 1.79-0.8q0.45-0.19 0.79-0.55 0.33-0.35 0.51-0.8 0.17-0.46 0.16-0.95-0.01-0.48-0.2-0.93-0.04-0.07-0.08-0.14-0.03-0.07-0.08-0.14-0.04-0.07-0.08-0.14-0.05-0.06-0.1-0.13l-7.22-8.93c-0.34-0.42-0.81-0.72-1.34-0.85-0.52-0.12-1.07-0.07-1.57 0.15-0.49 0.22-0.9 0.59-1.16 1.07-0.25 0.47-0.35 1.02-0.26 1.55z"/>
		<path class="s8" d="m630.52 217.46c0.29-1.6 0.91-3.1 1.84-4.42 0.93-1.32 2.14-2.41 3.54-3.21 1.4-0.81 2.96-1.29 4.57-1.42 1.6-0.14 3.22 0.08 4.73 0.64l24.88-30.29 6.02 19.46-24.55 25.78c-1.1 2.48-3.08 4.47-5.55 5.58-2.47 1.12-5.27 1.3-7.86 0.49-2.6-0.81-4.81-2.54-6.21-4.86-1.4-2.32-1.9-5.08-1.41-7.75z"/>
		<path class="s9" d="m661.85 215.48l-10.97-15.82 31.11-41.48-16.02-34.34 1.17-40.86 13.24-2.44 0.16 0.08q2.4 1.38 4.53 3.14 2.14 1.77 3.94 3.87 1.8 2.09 3.22 4.48 1.42 2.37 2.42 4.94c3.3 8.26 10.68 39.26 14.78 57.01q0.6 2.58 0.54 5.23-0.07 2.65-0.8 5.19-0.73 2.56-2.08 4.84-1.34 2.28-3.22 4.14z"/>
		<path class="s12" d="m353.35 139.02q-0.03 0.28-0.05 0.57-0.03 0.29-0.04 0.58-0.01 0.29-0.01 0.58 0 0.3 0.01 0.59l-56.09 40.81-15.41-6.82-13.33 21.91 26.11 14.72q1.58 0.89 3.36 1.24 1.78 0.34 3.58 0.11 1.8-0.24 3.44-1.03 1.63-0.79 2.93-2.06l56.46-55.14c5.92 1.5 12.14-0.81 15.64-5.82 3.5-5 3.54-11.65 0.1-16.69-3.44-5.04-9.64-7.43-15.57-6-5.94 1.44-10.37 6.39-11.13 12.45z"/>
		<path class="s11" d="m295.36 183.64l-16.37 27.25q-0.7 1.18-1.83 1.96-1.14 0.77-2.49 1.01-1.35 0.23-2.68-0.12-1.32-0.35-2.38-1.22l-24.5-20.11c-3.95-2.41-6.79-6.28-7.89-10.78-1.11-4.49-0.39-9.23 2.02-13.19 2.39-3.97 6.25-6.82 10.74-7.94 4.49-1.11 9.24-0.4 13.21 1.98l29.18 12.11q1.27 0.53 2.2 1.53 0.93 1.01 1.37 2.31 0.42 1.3 0.27 2.67-0.15 1.36-0.85 2.54z"/>
		<path class="s3" d="m257.33 420.57h-32.07v-53.13h32.07z"/>
		<path class="s3" d="m251.61 401.62l4.11-6.07 76.96 52.22-4.12 6.07z"/>
		<path class="s3" d="m149.91 447.77l76.96-52.22 4.11 6.07-76.95 52.22z"/>
		<path class="s3" d="m330.62 460.88c-5.57 0-10.07-4.51-10.07-10.08 0-5.57 4.5-10.07 10.07-10.07 5.57 0 10.08 4.5 10.08 10.07 0 5.57-4.51 10.08-10.08 10.08z"/>
		<path class="s3" d="m240.84 460.88c-5.58 0-10.08-4.51-10.08-10.08 0-5.57 4.5-10.07 10.08-10.07 5.57 0 10.08 4.5 10.08 10.07 0 5.57-4.51 10.08-10.08 10.08z"/>
		<path class="s3" d="m151.97 460.88c-5.57 0-10.07-4.51-10.07-10.08 0-5.57 4.5-10.07 10.07-10.07 5.57 0 10.07 4.5 10.07 10.07 0 5.57-4.5 10.08-10.07 10.08z"/>
		<path class="s3" d="m237.18 398.58h7.33v52.22h-7.33z"/>
		<path class="s3" d="m248.17 391.26h-13.75v-70.55h13.75z"/>
		<path class="s7" d="m201.9 331.7v-16.49c0-1.51 0.3-2.99 0.88-4.38 0.57-1.39 1.42-2.65 2.48-3.71 1.06-1.07 2.32-1.91 3.71-2.48 1.39-0.58 2.88-0.88 4.39-0.88h61.38c1.5 0 2.99 0.3 4.38 0.88 1.38 0.57 2.64 1.41 3.71 2.48 1.06 1.06 1.9 2.32 2.48 3.71 0.57 1.39 0.87 2.87 0.87 4.38v16.49c0 1.5-0.3 2.99-0.87 4.38-0.58 1.39-1.42 2.65-2.48 3.71-1.07 1.08-2.33 1.92-3.71 2.49-1.39 0.58-2.88 0.88-4.38 0.88h-61.38c-1.51 0-3-0.3-4.39-0.88-1.39-0.57-2.65-1.41-3.71-2.49-1.06-1.06-1.91-2.32-2.48-3.71-0.58-1.39-0.88-2.88-0.88-4.38z"/>
		<path class="s13" d="m312.77 444.43h16.97l8.08-44.03h-25.05z"/>
		<path class="s10" d="m308.43 460.88h54.75v-0.7c0-2.79-0.55-5.56-1.63-8.15-1.07-2.58-2.64-4.93-4.62-6.91-1.98-1.97-4.32-3.54-6.91-4.61-2.58-1.08-5.35-1.63-8.15-1.63h-33.44z"/>
		<path class="s10" d="m338.16 417.13l33.84-75.89c1.4-3.18 2.2-6.59 2.35-10.05 0.14-3.46-0.35-6.92-1.47-10.19-1.13-3.28-2.85-6.33-5.09-8.98-2.24-2.64-4.95-4.84-8.01-6.49l-73.4-39.36-33.5-2.86-30.89-2.8-0.23 0.37c-0.28 0.48-6.92 11.96-2.43 24.54 3.4 9.55 12.26 17 26.33 22.16 32.84 12.05 70.77 22.33 85.55 26.19q0.49 0.13 0.94 0.36 0.46 0.22 0.85 0.53 0.4 0.32 0.72 0.71 0.32 0.39 0.55 0.84 0.24 0.44 0.37 0.93 0.14 0.48 0.17 0.98 0.04 0.5-0.03 1-0.07 0.49-0.24 0.96l-31.43 70.64c-0.33 0.9-0.45 1.86-0.35 2.81 0.1 0.95 0.42 1.86 0.93 2.68 0.51 0.8 1.2 1.48 2.01 1.98 0.81 0.5 1.73 0.8 2.68 0.89l23.49 1.71q0.3 0.03 0.6 0.03 0.9 0 1.76-0.26 0.87-0.26 1.63-0.75 0.75-0.49 1.35-1.17 0.58-0.69 0.95-1.51z"/>
		<path class="s13" d="m301.69 444.43h16.98l8.07-44.03h-25.05z"/>
		<path class="s10" d="m297.36 460.88h54.74v-0.7c0-2.79-0.56-5.56-1.63-8.15-1.07-2.58-2.63-4.93-4.61-6.91-1.98-1.97-4.33-3.54-6.91-4.61-2.59-1.08-5.36-1.63-8.16-1.63h-33.43z"/>
		<path class="s10" d="m325.69 421.28l33.84-75.89c1.4-3.17 2.2-6.58 2.36-10.04 0.15-3.47-0.36-6.92-1.48-10.2-1.12-3.28-2.85-6.32-5.08-8.96-2.24-2.66-4.96-4.86-8-6.51l-73.41-39.36-33.49-2.85-24.2-2.1v-0.34c-0.29 0.49-6.94 11.97-2.44 24.54 3.41 9.55 5.34 17.01 19.41 22.16 32.84 12.05 70.77 22.33 85.56 26.2q0.49 0.12 0.94 0.35 0.45 0.22 0.85 0.54 0.39 0.31 0.71 0.7 0.32 0.39 0.56 0.84 0.23 0.46 0.37 0.94 0.13 0.48 0.17 0.98 0.03 0.5-0.04 1-0.06 0.49-0.23 0.97l-31.44 70.63c-0.33 0.9-0.45 1.86-0.35 2.81 0.1 0.95 0.42 1.86 0.93 2.67 0.51 0.8 1.2 1.48 2.01 1.98 0.81 0.5 1.73 0.8 2.68 0.89l23.5 1.71q0.29 0.03 0.59 0.03 0.9 0 1.77-0.26 0.86-0.25 1.62-0.74 0.75-0.5 1.34-1.18 0.59-0.69 0.95-1.51z"/>
		<path class="s13" d="m304.46 94.4c-4.35 18.29-22.66 29.57-40.94 25.22-18.3-4.36-29.58-22.66-25.22-40.96 4.35-18.3 22.65-29.57 40.95-25.22 18.3 4.35 29.56 22.66 25.21 40.96z"/>
		<path class="s4" d="m388.61 217.2q5.33-7.09 10.09-14.56 4.77-7.47 8.95-15.28 4.2-7.81 7.77-15.92 3.58-8.11 6.53-16.46 0.34-1.01 0.31-2.06-0.02-1.06-0.41-2.05-0.38-0.98-1.08-1.77-0.71-0.79-1.64-1.29l-48.66-26.08q-0.59-0.32-1.24-0.5-0.65-0.17-1.32-0.2-0.67-0.03-1.32 0.1-0.66 0.12-1.28 0.39-0.62 0.27-1.17 0.68-0.55 0.41-0.99 0.92-0.45 0.52-0.76 1.13-0.31 0.6-0.48 1.26-2.13 8.04-5.17 15.78-3.04 7.73-6.97 15.05-3.92 7.33-8.67 14.15-4.77 6.81-10.28 13.03-0.46 0.5-0.79 1.1-0.33 0.6-0.51 1.25-0.19 0.66-0.23 1.34-0.03 0.68 0.09 1.35 0.12 0.66 0.38 1.28 0.26 0.62 0.65 1.17 0.4 0.54 0.9 0.98 0.51 0.44 1.1 0.76l48.67 26.08q0.93 0.49 1.98 0.64 1.04 0.14 2.08-0.08 1.03-0.22 1.94-0.79 0.89-0.57 1.53-1.4z"/>
		<path class="s6" d="m385.28 214.69q-0.19 0.25-0.46 0.41-0.27 0.16-0.58 0.23-0.3 0.06-0.61 0.02-0.31-0.05-0.59-0.19l-48.67-26.08q-0.17-0.09-0.33-0.22-0.15-0.13-0.26-0.3-0.12-0.16-0.2-0.34-0.08-0.19-0.11-0.38-0.04-0.21-0.03-0.42 0.01-0.21 0.07-0.42 0.06-0.2 0.16-0.38 0.11-0.19 0.25-0.34 5.69-6.4 10.58-13.41 4.89-7.03 8.93-14.57 4.04-7.53 7.17-15.49 3.14-7.97 5.32-16.24 0.05-0.21 0.15-0.4 0.09-0.18 0.23-0.35 0.14-0.16 0.31-0.28 0.17-0.13 0.36-0.21 0.18-0.08 0.38-0.12 0.2-0.04 0.4-0.03 0.2 0.01 0.39 0.06 0.19 0.05 0.37 0.15l48.66 26.08q0.28 0.15 0.49 0.38 0.21 0.23 0.33 0.53 0.11 0.29 0.12 0.6 0.02 0.31-0.08 0.61-2.89 8.21-6.42 16.18-3.51 7.96-7.62 15.62-4.11 7.68-8.79 15.02-4.68 7.33-9.92 14.28z"/>
		<path class="s4" d="m368.26 150.17l33.57 19.67c3.34 1.96 6.36-3.23 3.03-5.19l-33.57-19.67c-3.34-1.95-6.36 3.23-3.03 5.19z"/>
		<path class="s4" d="m362.26 161.17l33.57 19.67c3.34 1.96 6.36-3.23 3.03-5.18l-33.57-19.68c-3.34-1.95-6.37 3.23-3.03 5.19z"/>
		<path class="s4" d="m357.54 172.13l30.53 18.12c3.04 1.81 6.29-1.93 3.26-3.73l-30.54-18.11c-3.03-1.8-6.28 1.92-3.25 3.72z"/>
		<path class="s4" d="m348.25 183.18l33.57 19.67c3.34 1.96 6.37-3.23 3.03-5.18l-33.57-19.68c-3.34-1.95-6.36 3.23-3.03 5.19z"/>
		<path class="s11" d="m290.99 268.92l-67.3-0.4-0.02-0.48c-1.28-33.77 2.84-64.36 12.61-93.51 0.14-1.09 0.29-2.26 0.44-3.4 1.67-13.05 3-23.4 15.4-27.26q-0.39-0.51-0.69-1.07-0.31-0.57-0.53-1.17-0.23-0.6-0.36-1.24-0.13-0.62-0.17-1.26-0.06-0.86 0.05-1.71 0.11-0.85 0.39-1.66 0.27-0.81 0.7-1.55 0.43-0.74 1-1.38 0.54-0.62 1.2-1.12 0.65-0.5 1.4-0.87 0.74-0.36 1.53-0.57 0.8-0.2 1.62-0.25l23.96-0.82q0.47 0 0.93 0.08 0.46 0.07 0.91 0.22 0.44 0.15 0.85 0.37 0.42 0.23 0.79 0.51 1.37 1.02 2.31 2.44 0.93 1.43 1.31 3.09 0.38 1.66 0.17 3.35-0.22 1.69-1 3.21c-0.28 0.56-0.39 0.82-0.43 0.93 0.85 4.46 3.38 9.76 6.05 15.36 3.83 8.04 8.16 17.14 9.28 26.87q0.22 1.97 0.29 3.95 0.07 1.99-0.03 3.97-0.09 1.97-0.34 3.94-0.25 1.96-0.66 3.9-0.19 1.04-0.31 2.1-0.11 1.05-0.15 2.12-0.05 1.06-0.02 2.12 0.03 1.06 0.14 2.11c0.21 4.19 0.42 8.14-1.94 11.96q-0.9 1.54-2.1 3.36l-3.33 7.95z"/>
		<path class="s7" d="m190 316.18v-137.52c0-2.22 0.44-4.41 1.29-6.46 0.85-2.05 2.09-3.91 3.66-5.48 1.57-1.58 3.43-2.83 5.48-3.67 2.05-0.85 4.24-1.29 6.46-1.3h4.67c2.23 0.01 4.43 0.45 6.48 1.3 2.05 0.84 3.91 2.09 5.48 3.67 1.56 1.57 2.81 3.43 3.66 5.48 0.85 2.05 1.29 4.24 1.29 6.46v137.52c0 2.22-0.44 4.41-1.29 6.46-0.85 2.05-2.1 3.91-3.66 5.48-1.57 1.57-3.43 2.81-5.48 3.66-2.05 0.85-4.25 1.29-6.48 1.3h-4.67c-2.22-0.01-4.41-0.45-6.46-1.3-2.05-0.85-3.91-2.09-5.48-3.66-1.57-1.57-2.81-3.43-3.66-5.48-0.85-2.05-1.29-4.24-1.29-6.46z"/>
		<path class="s12" d="m370.47 192.39q-0.18 0.23-0.35 0.46-0.17 0.23-0.34 0.47-0.16 0.24-0.31 0.49-0.16 0.25-0.3 0.5l-69.19 5.05-9.48-13.93-22.89 11.57 14.39 26.29q0.88 1.59 2.21 2.83 1.33 1.23 2.99 1.98 1.65 0.75 3.46 0.94 1.81 0.19 3.58-0.2l77.06-17.04c4.23 4.41 10.74 5.73 16.36 3.32 5.61-2.4 9.15-8.02 8.89-14.12-0.26-6.1-4.27-11.41-10.07-13.32-5.79-1.91-12.17-0.04-16.01 4.71z"/>
		<path class="s11" d="m297.66 199.67l-28.29 14.51q-1.22 0.62-2.59 0.69-1.37 0.05-2.64-0.46-1.27-0.52-2.22-1.51-0.94-1-1.39-2.3l-10.18-30.01c-1.03-2.04-1.65-4.26-1.83-6.54-0.18-2.28 0.09-4.57 0.8-6.75 0.71-2.18 1.83-4.2 3.31-5.94 1.49-1.74 3.3-3.17 5.33-4.21-12.53 6.43 13.58-11.84 23.54 7.56l18.4 25.69q0.79 1.12 1.06 2.47 0.26 1.35-0.06 2.68-0.33 1.33-1.17 2.41-0.86 1.08-2.07 1.71z"/>
		<path class="s10" d="m256.01 119.61c-2.04 0-4.3-0.99-6.85-2.99-3.72-2.93-6.94-6.44-9.53-10.39-2.6-3.96-4.53-8.31-5.72-12.89-1.19-4.59-1.62-9.33-1.29-14.05 0.34-4.72 1.44-9.35 3.27-13.72 1.86-4.42 5.32-10.43 11.3-13.95 4.3-2.53 9.35-3.45 13.75-4.11 3.81-0.57 7.67-1.02 11.46-1.34 4.53-0.39 9.77-0.65 14.56 1.16 3.49 1.33 6.47 3.68 9.35 5.95 1.01 0.79 2.05 1.61 3.09 2.37q0.94 0.74 1.95 1.37 1.02 0.63 2.09 1.15 1.08 0.52 2.2 0.93 1.12 0.41 2.28 0.69 0.49 0.1 0.95 0.31 0.46 0.2 0.86 0.5 0.41 0.29 0.74 0.67 0.33 0.37 0.58 0.81 0.25 0.45 0.4 0.93 0.15 0.49 0.19 1 0.05 0.51-0.02 1.01-0.07 0.51-0.24 0.99c-0.45 1.27-0.85 2.41-0.03 3.64q0.23 0.32 0.53 0.58 0.31 0.26 0.66 0.44 0.35 0.18 0.74 0.27 0.39 0.09 0.78 0.09 0.21-0.01 0.42 0.04 0.2 0.05 0.39 0.15 0.18 0.09 0.34 0.23 0.16 0.14 0.27 0.32 0.12 0.17 0.2 0.36 0.07 0.2 0.09 0.41 0.03 0.21 0 0.41-0.03 0.21-0.1 0.41l-0.13 0.33q0.26 0.03 0.51 0.12 0.25 0.08 0.47 0.23 0.23 0.14 0.41 0.34 0.18 0.19 0.31 0.42 0.19 0.33 0.26 0.71 0.07 0.37 0.02 0.75-0.06 0.37-0.24 0.71-0.17 0.34-0.45 0.6-1.14 1.08-2.41 1.99-1.27 0.91-2.66 1.63-1.39 0.73-2.86 1.25-1.47 0.53-3 0.84-1.05 0.21-2.12 0.31-1.06 0.1-2.13 0.1-1.07 0-2.14-0.11-1.06-0.11-2.11-0.32l-0.45-0.08 0.05-0.5c-11.35-4.05-21.59 2.82-27.43 10.68l-0.84-0.54q0.11-0.22 0.17-0.45 0.06-0.24 0.08-0.48 0.01-0.25-0.02-0.49-0.04-0.24-0.12-0.48-0.09-0.28-0.23-0.53-0.14-0.26-0.33-0.48-0.19-0.22-0.41-0.4-0.23-0.18-0.49-0.31-0.52-0.22-1.08-0.27-0.56-0.06-1.12 0.05-0.55 0.11-1.05 0.38-0.49 0.26-0.89 0.66-0.41 0.43-0.72 0.93-0.31 0.51-0.51 1.06-0.21 0.56-0.29 1.14-0.08 0.58-0.04 1.17 0.05 0.62 0.16 1.23 0.11 0.62 0.28 1.22 0.15 0.61 0.36 1.2 0.21 0.58 0.46 1.15c0.27 0.73 0.56 1.49 0.79 2.25q0.48 1.6 0.66 3.27 0.18 1.66 0.06 3.33-0.13 1.67-0.55 3.3-0.43 1.62-1.14 3.13c-0.89 1.87-2.49 4.24-5.09 4.98q-0.2 0.06-0.4 0.1-0.21 0.04-0.42 0.07-0.21 0.03-0.42 0.04-0.21 0.02-0.42 0.02z"/>
		<path class="s3" d="m808.8 462.88h-807.61c-0.31 0-0.62-0.13-0.84-0.35-0.22-0.23-0.35-0.53-0.35-0.84 0-0.32 0.13-0.62 0.35-0.84 0.22-0.23 0.53-0.35 0.84-0.35h807.61q0.5 0.01 0.85 0.34c0.22 0.23 0.35 0.53 0.35 0.85 0 0.31-0.13 0.62-0.35 0.84-0.23 0.22-0.53 0.35-0.85 0.35z"/>
	</g>
</svg>