<svg version="1.2" xmlns="http://www.w3.org/2000/svg" viewBox="0 0 882.126 576.272" width="883" height="577">
	<title>undraw_pair-programming_9jyg</title>
	<style>
		.s0 { fill: #9e616a } 
		.s1 { fill: #d3e93d } 
		.s2 { fill: #f2f2f2 } 
		.s3 { fill: #e6e6e6 } 
		.s4 { fill: #3f3d56 } 
		.s5 { fill: #2f2e41 } 
		.s6 { fill: #83c65e } 
		.s7 { opacity: .2;fill: #000000 } 
		.s8 { fill: #090814 } 
		.s9 { fill: #ffb9b9 } 
		.s10 { fill: #1a4d29 } 
		.s11 { opacity: .2;fill: #1a4d29 } 
	</style>
	<g id="Group_138">
		<g id="Group_137">
			<path id="Path_1240-1719" class="s0" d="m247.53 374.66l-54.67-3.36 1.44-36.8 38.57 3.17c-2.22 8.83-1.41 25.2 14.66 36.99z"/>
			<path id="Ellipse_405" class="s1" d="m436.48 97.97c-14.77 0-26.71-11.94-26.71-26.7 0-14.77 11.94-26.71 26.71-26.71 14.76 0 26.7 11.94 26.7 26.71 0 14.76-11.94 26.7-26.7 26.7z"/>
			<path id="Path_2166-1720" class="s2" d="m496.23 58.62q-0.56-1.85-1.63-3.46-1.08-1.61-2.56-2.85-1.49-1.24-3.27-2-1.78-0.76-3.71-0.98-0.02 0-0.04 0-0.02 0-0.05 0-0.02 0-0.04 0-0.02 0-0.05 0-0.02-0.01-0.05-0.01-0.03-0.01-0.06-0.02-0.02 0-0.05-0.01-0.03 0-0.06-0.01c-8.94-1.16-18.88 1.66-25.57 7.8q-0.93 0.84-1.76 1.77-0.84 0.93-1.57 1.95-0.74 1.01-1.36 2.1-0.63 1.08-1.14 2.22-0.93-1.27-2.14-2.28-1.2-1.01-2.62-1.7-1.41-0.69-2.95-1.02-1.54-0.33-3.12-0.28-2.03 0.14-3.92 0.88-1.9 0.74-3.48 2.01-1.58 1.28-2.71 2.97-1.12 1.7-1.69 3.65-0.06 0.24-0.04 0.49 0.01 0.24 0.11 0.47 0.09 0.23 0.25 0.42 0.16 0.19 0.37 0.31 0.3 0.26 0.63 0.48 0.33 0.22 0.68 0.4 0.36 0.18 0.73 0.31 0.37 0.14 0.75 0.23 3.32 0.71 6.67 1.29 6.54 1.14 13.15 1.85 4.37 0.47 8.75 0.74 9.08 0.57 18.16 0.28c3-0.1 5.88-0.2 8.62-1.52q0.75-0.36 1.44-0.82 0.69-0.46 1.32-1.01 0.63-0.54 1.18-1.17 0.55-0.62 1.01-1.31 0.88-1.33 1.46-2.81 0.57-1.49 0.8-3.07 0.24-1.58 0.13-3.17-0.11-1.59-0.57-3.12z"/>
			<path id="Path_2167-1721" class="s2" d="m441.3 97.52q-0.02-0.42-0.06-0.83-0.05-0.42-0.12-0.83-0.07-0.42-0.16-0.83-0.1-0.41-0.22-0.81-0.57-1.85-1.64-3.46-1.08-1.61-2.56-2.85-1.49-1.24-3.27-2-1.79-0.76-3.71-0.98-0.02 0-0.04 0-0.02 0-0.04 0-0.03 0-0.05 0-0.02 0-0.04 0-0.03-0.01-0.06-0.01-0.03-0.01-0.05-0.02-0.03 0-0.06-0.01-0.03 0-0.06-0.01-1.85-0.22-3.71-0.24-1.87-0.02-3.72 0.17-1.85 0.19-3.67 0.59-1.83 0.39-3.59 0.99c-7.26 2.43-13.63 7.33-16.7 14.33q-0.93-1.27-2.14-2.28-1.21-1.01-2.63-1.7-1.41-0.69-2.95-1.02-1.55-0.33-3.12-0.28-2.03 0.14-3.92 0.88-1.9 0.74-3.48 2.01-1.59 1.28-2.71 2.97-1.13 1.7-1.69 3.65-0.06 0.24-0.04 0.49 0.02 0.24 0.11 0.47 0.09 0.23 0.25 0.42 0.16 0.18 0.37 0.31 0.3 0.26 0.63 0.48 0.33 0.22 0.68 0.4 0.35 0.18 0.72 0.31 0.38 0.14 0.76 0.23 3.33 0.71 6.68 1.29 6.54 1.14 13.14 1.85 3.35 0.36 6.71 0.61 3.36 0.24 6.73 0.37 3.37 0.13 6.74 0.14 3.37 0.01 6.74-0.1c2.99-0.1 5.88-0.2 8.62-1.52q0.74-0.36 1.44-0.82 0.69-0.46 1.31-1.01 0.63-0.55 1.18-1.17 0.55-0.62 1.01-1.31 0.65-0.97 1.14-2.04 0.48-1.06 0.79-2.19 0.3-1.14 0.42-2.3 0.12-1.17 0.04-2.34z"/>
			<path id="Path_2170-1722" class="s2" d="m736.47 477.18h-103.38q-0.21-3.1-0.31-6.21-0.09-3.11-0.07-6.22 0.02-3.11 0.15-6.22 0.13-3.11 0.38-6.21c4.13-51.09 31.93-99.76 73.87-129.24-5.36 19.09-2.6 38.07 2.98 57.13-0.78 0.26-1.57 0.48-2.27 0.78q-2.12 0.78-4.15 1.77-2.03 0.99-3.96 2.17-1.92 1.18-3.73 2.54-1.8 1.36-3.46 2.89c-1.23 1.16-2.53 2.83-1.9 4.43 0.56 1.34 2.24 1.79 3.69 2.09q5.26 1.01 10.45 1.97c2.79 0.56 5.59 1.08 8.38 1.63q1.95 0.35 3.9 0.75c0.19 0.45 0.3 0.85 0.49 1.26 6.55 18.05 13.69 36.25 17.04 54.74q0.31 1.74 0.58 3.49 0.26 1.75 0.47 3.5 0.22 1.76 0.38 3.52 0.17 1.76 0.28 3.52 0.18 2.96 0.19 5.92z"/>
			<path id="Path_2172-1723" class="s2" d="m265.08 409.45c-17.56 10.68-28.73 27.2-37.85 45.7q-2.96 0.68-5.81 1.73-2.85 1.06-5.54 2.47-2.69 1.41-5.17 3.16-2.49 1.75-4.73 3.81c-1.26 1.15-2.56 2.83-1.9 4.43 0.56 1.34 2.24 1.78 3.69 2.08 3.46 0.67 7 1.34 10.46 1.97-0.34 0.78-0.67 1.6-1 2.38h-116.11q1.98-2.66 4.06-5.24 2.08-2.59 4.26-5.08 2.19-2.5 4.47-4.91 2.28-2.4 4.66-4.71c1.38-1.38 2.79-2.68 4.25-4.02q5.54-5.01 11.48-9.52 5.95-4.51 12.27-8.5 6.31-3.99 12.95-7.41 6.63-3.43 13.53-6.28 10.85-4.53 22.2-7.59 11.35-3.06 23.01-4.59 11.66-1.52 23.42-1.49 11.75 0.03 23.4 1.61z"/>
			<path id="Path_2174-1724" class="s2" d="m505.33 433.78l92.37 8.2 0.99 0.09v-394.14l-0.99-0.69q-7.21-5.04-14.72-9.64-7.51-4.6-15.28-8.72-7.77-4.13-15.78-7.78-8.01-3.65-16.23-6.8l-4.72 65.1-0.43 5.96-4.67 64.56-1.44 19.86-18.93 261.7z"/>
			<path id="Path_2175-1725" class="s2" d="m276.9 40.59q-0.99 0.62-1.98 1.28v400.2l1.98-0.18 91.37-8.11-0.17-2.3-18.93-261.7-1.44-19.86-4.67-64.56-0.43-5.96-4.95-68.27q-8 2.77-15.82 6.01-7.82 3.24-15.44 6.93-7.61 3.69-15 7.83-7.39 4.13-14.52 8.69z"/>
			<path id="Path_2176-1726" class="s2" d="m274.92 41.87q-2 1.29-3.97 2.63v403.03c0 10.07 5.97 18.51 13.95 20.66q0.49 0.13 0.98 0.23 0.5 0.1 1 0.17 0.5 0.06 1.01 0.1 0.5 0.03 1.01 0.03h296.8q0.5 0 1.01-0.03 0.5-0.04 1-0.1 0.5-0.07 1-0.17 0.49-0.1 0.98-0.23 1.11-0.31 2.16-0.76 1.06-0.45 2.05-1.04 0.98-0.59 1.88-1.31 0.9-0.72 1.69-1.55 1.51-1.61 2.68-3.48 1.17-1.86 1.96-3.92 0.8-2.06 1.19-4.23 0.38-2.17 0.35-4.37v-396.02q-2.46-1.82-4.96-3.58l-0.99-0.69v400.29q0 0.49-0.03 0.97-0.03 0.49-0.08 0.97-0.06 0.48-0.15 0.96-0.08 0.48-0.2 0.95c-1.41 5.95-6.06 10.31-11.54 10.31h-296.8c-6.62 0-12-6.35-12-14.16v-406.94q-0.99 0.62-1.98 1.28z"/>
			<path id="Rectangle_484" class="s2" d="m273.92 79.4h326.75v5.96h-326.75z"/>
			<path id="Path_2177-1727" class="s2" d="m500.6 3.39q-2.96-0.74-5.96-1.38v161.81h5.96z"/>
			<path id="Path_2178-1728" class="s2" d="m379.96 0q-2.99 0.55-5.96 1.16v162.66h5.96z"/>
			<path id="Path_2179-1729" class="s2" d="m209.86 458.29q0 1.28 0.12 2.55 0.12 1.28 0.37 2.53 0.24 1.26 0.6 2.49 0.36 1.22 0.84 2.41 0.18 0.46 0.39 0.91 0.2 0.46 0.42 0.9 0.21 0.45 0.45 0.89 0.24 0.43 0.49 0.86 0.33 0.56 0.68 1.1 0.35 0.54 0.73 1.06 0.38 0.53 0.78 1.03 0.4 0.5 0.83 0.99 1.88 2.15 4.18 3.85 2.29 1.7 4.9 2.88 2.6 1.18 5.39 1.78 2.79 0.6 5.65 0.6h391.31c7.11 0 13.93-2.83 18.96-7.86 5.03-5.03 7.86-11.85 7.86-18.96 0-7.11-2.83-13.93-7.86-18.96-5.03-5.03-11.85-7.86-18.96-7.86h-391.31c-3.52 0-7.01 0.7-10.26 2.05-3.25 1.35-6.2 3.32-8.69 5.81-2.49 2.49-4.47 5.44-5.82 8.69-1.35 3.25-2.05 6.74-2.05 10.26z"/>
			<path id="Rectangle_485" class="s2" d="m598.69 169.78h-324.77v-19.86h324.77z"/>
			<path id="Path_2180-1730" class="s2" d="m450.21 154.88h-27.81c0-1.43 0.28-2.85 0.83-4.18 0.55-1.32 1.36-2.53 2.37-3.54 1.02-1.02 2.22-1.82 3.55-2.37 1.32-0.55 2.74-0.83 4.18-0.83h5.95c1.44 0 2.86 0.28 4.19 0.83 1.32 0.55 2.53 1.35 3.54 2.37 1.02 1.01 1.82 2.22 2.37 3.54 0.55 1.33 0.83 2.75 0.83 4.18z"/>
			<path id="Path_2181-1731" class="s2" d="m0 473.61q3.34 3.86 6.8 7.61 3.47 3.75 7.07 7.37 3.6 3.62 7.32 7.11 3.72 3.5 7.56 6.86h824.63q3.84-3.36 7.56-6.86 3.72-3.49 7.32-7.11 3.6-3.62 7.07-7.37 3.46-3.75 6.8-7.61z"/>
			<path id="Path_2182-1732" class="s3" d="m397.61 376.8v102.56h71.85v-102.56q0-0.55-0.17-1.08-0.17-0.52-0.5-0.97-0.33-0.45-0.78-0.77-0.45-0.32-0.98-0.48-0.12-0.04-0.25-0.07-0.13-0.03-0.26-0.05-0.13-0.02-0.26-0.03-0.13-0.01-0.26-0.01h-64.92q-0.69 0-1.33 0.26-0.63 0.27-1.12 0.75-0.49 0.49-0.75 1.12-0.27 0.64-0.27 1.33zm28.04 35.24c0-2.03 0.81-3.99 2.25-5.42 1.43-1.44 3.39-2.25 5.42-2.25 2.03 0 3.99 0.81 5.42 2.25 1.44 1.43 2.25 3.39 2.25 5.42v11.9c0 2.03-0.81 3.99-2.25 5.42-1.43 1.44-3.39 2.25-5.42 2.25-2.03 0-3.99-0.81-5.42-2.25-1.44-1.43-2.25-3.39-2.25-5.42z"/>
			<path id="Path_2183-1733" class="s4" d="m397.39 476.08v9.89q0 0.38 0.15 0.74 0.15 0.35 0.42 0.63 0.27 0.27 0.62 0.42 0.36 0.15 0.74 0.15h68.43q0.38 0 0.74-0.15 0.35-0.15 0.63-0.42 0.27-0.27 0.41-0.63 0.15-0.36 0.15-0.74v-9.89z"/>
			<path id="Path_2184-1734" class="s4" d="m284.58 222.28v187.26c0 1.18 0.23 2.35 0.69 3.44 0.45 1.09 1.11 2.08 1.95 2.92 0.83 0.83 1.83 1.5 2.92 1.95 1.09 0.45 2.26 0.69 3.44 0.69h277.5c1.18 0 2.35-0.24 3.44-0.69 1.09-0.45 2.09-1.12 2.92-1.95 0.84-0.84 1.5-1.83 1.95-2.92 0.46-1.09 0.69-2.26 0.69-3.44v-187.26c0-1.18-0.24-2.35-0.69-3.44-0.45-1.09-1.12-2.08-1.95-2.91-0.84-0.84-1.83-1.5-2.92-1.95-1.09-0.45-2.26-0.69-3.44-0.69h-277.5c-1.18 0-2.35 0.23-3.44 0.69-1.09 0.45-2.08 1.11-2.92 1.95-0.83 0.83-1.5 1.82-1.95 2.91-0.45 1.09-0.69 2.26-0.69 3.44z"/>
			<path id="Path_2185-1735" class="s2" d="m291.09 224.61v182.62q0 0.96 0.37 1.84 0.37 0.88 1.04 1.56 0.68 0.67 1.56 1.04 0.88 0.37 1.84 0.37h272.87q0.96 0 1.84-0.37 0.88-0.37 1.56-1.04 0.67-0.68 1.04-1.56 0.37-0.88 0.37-1.84v-182.62q0-0.96-0.37-1.84-0.36-0.89-1.04-1.56-0.68-0.68-1.56-1.05-0.88-0.37-1.84-0.37h-272.87q-0.96 0-1.84 0.37-0.88 0.37-1.56 1.05-0.68 0.67-1.04 1.56-0.37 0.88-0.37 1.84z"/>
			<path id="Path_2186-1736" class="s5" d="m346.73 490.24q0.21 0.26 0.47 0.47 0.26 0.2 0.56 0.35 0.3 0.14 0.63 0.21 0.33 0.08 0.66 0.08h162.34q0.67-0.01 1.28-0.3 0.61-0.29 1.04-0.81 0.42-0.52 0.58-1.18 0.16-0.65 0.02-1.31l-2.52-11.97q-0.08-0.37-0.24-0.71-0.17-0.33-0.41-0.62-0.25-0.28-0.55-0.5-0.31-0.21-0.66-0.34-0.13-0.05-0.26-0.09-0.13-0.04-0.26-0.06-0.13-0.03-0.27-0.04-0.13-0.01-0.27-0.01h-157.31q-0.14 0-0.27 0.01-0.14 0.01-0.27 0.04-0.13 0.02-0.26 0.06-0.13 0.04-0.26 0.09-0.35 0.13-0.66 0.34-0.3 0.22-0.55 0.5-0.24 0.29-0.41 0.62-0.16 0.34-0.24 0.71l-2.52 11.97q-0.07 0.32-0.06 0.65 0.01 0.34 0.08 0.66 0.08 0.32 0.23 0.62 0.15 0.3 0.36 0.56z"/>
			<path id="Rectangle_486" class="s4" d="m507.23 478.57h-4.02c-0.27 0-0.49-0.22-0.49-0.49v-2.03c0-0.27 0.22-0.48 0.49-0.48h4.02c0.27 0 0.49 0.21 0.49 0.48v2.03c0 0.27-0.22 0.49-0.49 0.49z"/>
			<path id="Rectangle_487" class="s4" d="m497.23 478.57h-4.03c-0.26 0-0.48-0.22-0.48-0.49v-2.03c0-0.27 0.22-0.48 0.48-0.48h4.03c0.27 0 0.49 0.21 0.49 0.48v2.03c0 0.27-0.22 0.49-0.49 0.49z"/>
			<path id="Rectangle_488" class="s4" d="m487.23 478.57h-4.03c-0.26 0-0.48-0.22-0.48-0.49v-2.03c0-0.27 0.22-0.48 0.48-0.48h4.03c0.27 0 0.49 0.21 0.49 0.48v2.03c0 0.27-0.22 0.49-0.49 0.49z"/>
			<path id="Rectangle_489" class="s4" d="m477.23 478.57h-4.03c-0.26 0-0.48-0.22-0.48-0.49v-2.03c0-0.27 0.22-0.48 0.48-0.48h4.03c0.27 0 0.49 0.21 0.49 0.48v2.03c0 0.27-0.22 0.49-0.49 0.49z"/>
			<path id="Rectangle_490" class="s4" d="m467.23 478.57h-4.03c-0.26 0-0.48-0.22-0.48-0.49v-2.03c0-0.27 0.22-0.48 0.48-0.48h4.03c0.27 0 0.49 0.21 0.49 0.48v2.03c0 0.27-0.22 0.49-0.49 0.49z"/>
			<path id="Rectangle_491" class="s4" d="m457.23 478.57h-4.03c-0.26 0-0.48-0.22-0.48-0.49v-2.03c0-0.27 0.22-0.48 0.48-0.48h4.03c0.27 0 0.49 0.21 0.49 0.48v2.03c0 0.27-0.22 0.49-0.49 0.49z"/>
			<path id="Rectangle_492" class="s4" d="m447.23 478.57h-4.03c-0.26 0-0.48-0.22-0.48-0.49v-2.03c0-0.27 0.22-0.48 0.48-0.48h4.03c0.27 0 0.49 0.21 0.49 0.48v2.03c0 0.27-0.22 0.49-0.49 0.49z"/>
			<path id="Rectangle_493" class="s4" d="m437.23 478.57h-4.03c-0.26 0-0.48-0.22-0.48-0.49v-2.03c0-0.27 0.22-0.48 0.48-0.48h4.03c0.27 0 0.49 0.21 0.49 0.48v2.03c0 0.27-0.22 0.49-0.49 0.49z"/>
			<path id="Rectangle_494" class="s4" d="m427.23 478.57h-4.03c-0.26 0-0.48-0.22-0.48-0.49v-2.03c0-0.27 0.22-0.48 0.48-0.48h4.03c0.27 0 0.49 0.21 0.49 0.48v2.03c0 0.27-0.22 0.49-0.49 0.49z"/>
			<path id="Rectangle_495" class="s4" d="m417.23 478.57h-4.03c-0.26 0-0.48-0.22-0.48-0.49v-2.03c0-0.27 0.22-0.48 0.48-0.48h4.03c0.27 0 0.49 0.21 0.49 0.48v2.03c0 0.27-0.22 0.49-0.49 0.49z"/>
			<path id="Rectangle_496" class="s4" d="m407.23 478.57h-4.03c-0.26 0-0.48-0.22-0.48-0.49v-2.03c0-0.27 0.22-0.48 0.48-0.48h4.03c0.27 0 0.49 0.21 0.49 0.48v2.03c0 0.27-0.22 0.49-0.49 0.49z"/>
			<path id="Rectangle_497" class="s4" d="m397.23 478.57h-4.03c-0.26 0-0.48-0.22-0.48-0.49v-2.03c0-0.27 0.22-0.48 0.48-0.48h4.03c0.27 0 0.49 0.21 0.49 0.48v2.03c0 0.27-0.22 0.49-0.49 0.49z"/>
			<path id="Rectangle_498" class="s4" d="m387.23 478.57h-4.03c-0.26 0-0.48-0.22-0.48-0.49v-2.03c0-0.27 0.22-0.48 0.48-0.48h4.03c0.27 0 0.49 0.21 0.49 0.48v2.03c0 0.27-0.22 0.49-0.49 0.49z"/>
			<path id="Rectangle_499" class="s4" d="m377.23 478.57h-4.03c-0.26 0-0.48-0.22-0.48-0.49v-2.03c0-0.27 0.22-0.48 0.48-0.48h4.03c0.27 0 0.49 0.21 0.49 0.48v2.03c0 0.27-0.22 0.49-0.49 0.49z"/>
			<path id="Rectangle_500" class="s4" d="m367.23 478.57h-4.03c-0.26 0-0.48-0.22-0.48-0.49v-2.03c0-0.27 0.22-0.48 0.48-0.48h4.03c0.27 0 0.49 0.21 0.49 0.48v2.03c0 0.27-0.22 0.49-0.49 0.49z"/>
			<path id="Rectangle_501" class="s4" d="m357.23 478.57h-4.03c-0.26 0-0.48-0.22-0.48-0.49v-2.03c0-0.27 0.22-0.48 0.48-0.48h4.03c0.27 0 0.49 0.21 0.49 0.48v2.03c0 0.27-0.22 0.49-0.49 0.49z"/>
			<path id="Rectangle_502" class="s4" d="m507.35 483.57h-4.03c-0.27 0-0.48-0.22-0.48-0.49v-2.03c0-0.27 0.21-0.48 0.48-0.48h4.03c0.27 0 0.49 0.21 0.49 0.48v2.03c0 0.27-0.22 0.49-0.49 0.49z"/>
			<path id="Rectangle_503" class="s4" d="m497.35 483.57h-4.03c-0.27 0-0.48-0.22-0.48-0.49v-2.03c0-0.27 0.21-0.48 0.48-0.48h4.03c0.27 0 0.49 0.21 0.49 0.48v2.03c0 0.27-0.22 0.49-0.49 0.49z"/>
			<path id="Rectangle_504" class="s4" d="m487.35 483.57h-4.03c-0.27 0-0.48-0.22-0.48-0.49v-2.03c0-0.27 0.21-0.48 0.48-0.48h4.03c0.27 0 0.49 0.21 0.49 0.48v2.03c0 0.27-0.22 0.49-0.49 0.49z"/>
			<path id="Rectangle_505" class="s4" d="m477.35 483.57h-4.03c-0.27 0-0.48-0.22-0.48-0.49v-2.03c0-0.27 0.21-0.48 0.48-0.48h4.03c0.27 0 0.49 0.21 0.49 0.48v2.03c0 0.27-0.22 0.49-0.49 0.49z"/>
			<path id="Rectangle_506" class="s4" d="m467.35 483.57h-4.03c-0.27 0-0.48-0.22-0.48-0.49v-2.03c0-0.27 0.21-0.48 0.48-0.48h4.03c0.27 0 0.49 0.21 0.49 0.48v2.03c0 0.27-0.22 0.49-0.49 0.49z"/>
			<path id="Rectangle_507" class="s4" d="m457.35 483.57h-4.03c-0.27 0-0.48-0.22-0.48-0.49v-2.03c0-0.27 0.21-0.48 0.48-0.48h4.03c0.27 0 0.49 0.21 0.49 0.48v2.03c0 0.27-0.22 0.49-0.49 0.49z"/>
			<path id="Rectangle_508" class="s4" d="m447.35 483.57h-4.03c-0.27 0-0.48-0.22-0.48-0.49v-2.03c0-0.27 0.21-0.48 0.48-0.48h4.03c0.27 0 0.49 0.21 0.49 0.48v2.03c0 0.27-0.22 0.49-0.49 0.49z"/>
			<path id="Rectangle_509" class="s4" d="m437.35 483.57h-4.03c-0.27 0-0.48-0.22-0.48-0.49v-2.03c0-0.27 0.21-0.48 0.48-0.48h4.03c0.27 0 0.49 0.21 0.49 0.48v2.03c0 0.27-0.22 0.49-0.49 0.49z"/>
			<path id="Rectangle_510" class="s4" d="m427.35 483.57h-4.03c-0.27 0-0.48-0.22-0.48-0.49v-2.03c0-0.27 0.21-0.48 0.48-0.48h4.03c0.27 0 0.49 0.21 0.49 0.48v2.03c0 0.27-0.22 0.49-0.49 0.49z"/>
			<path id="Rectangle_511" class="s4" d="m417.35 483.57h-4.03c-0.27 0-0.48-0.22-0.48-0.49v-2.03c0-0.27 0.21-0.48 0.48-0.48h4.03c0.27 0 0.49 0.21 0.49 0.48v2.03c0 0.27-0.22 0.49-0.49 0.49z"/>
			<path id="Rectangle_512" class="s4" d="m407.35 483.57h-4.03c-0.27 0-0.48-0.22-0.48-0.49v-2.03c0-0.27 0.21-0.48 0.48-0.48h4.03c0.27 0 0.49 0.21 0.49 0.48v2.03c0 0.27-0.22 0.49-0.49 0.49z"/>
			<path id="Rectangle_513" class="s4" d="m397.35 483.57h-4.03c-0.27 0-0.48-0.22-0.48-0.49v-2.03c0-0.27 0.21-0.48 0.48-0.48h4.03c0.27 0 0.49 0.21 0.49 0.48v2.03c0 0.27-0.22 0.49-0.49 0.49z"/>
			<path id="Rectangle_514" class="s4" d="m387.35 483.57h-4.03c-0.27 0-0.48-0.22-0.48-0.49v-2.03c0-0.27 0.21-0.48 0.48-0.48h4.03c0.27 0 0.49 0.21 0.49 0.48v2.03c0 0.27-0.22 0.49-0.49 0.49z"/>
			<path id="Rectangle_515" class="s4" d="m377.35 483.57h-4.03c-0.27 0-0.48-0.22-0.48-0.49v-2.03c0-0.27 0.21-0.48 0.48-0.48h4.03c0.27 0 0.49 0.21 0.49 0.48v2.03c0 0.27-0.22 0.49-0.49 0.49z"/>
			<path id="Rectangle_516" class="s4" d="m367.35 483.57h-4.03c-0.27 0-0.48-0.22-0.48-0.49v-2.03c0-0.27 0.21-0.48 0.48-0.48h4.03c0.27 0 0.49 0.21 0.49 0.48v2.03c0 0.27-0.22 0.49-0.49 0.49z"/>
			<path id="Rectangle_517" class="s4" d="m357.35 483.57h-4.03c-0.27 0-0.48-0.22-0.48-0.49v-2.03c0-0.27 0.21-0.48 0.48-0.48h4.03c0.27 0 0.49 0.21 0.49 0.48v2.03c0 0.27-0.22 0.49-0.49 0.49z"/>
			<path id="Rectangle_518" class="s4" d="m459.35 489.57h-39.03c-0.27 0-0.48-0.22-0.48-0.49v-2.03c0-0.27 0.21-0.48 0.48-0.48h39.03c0.27 0 0.49 0.21 0.49 0.48v2.03c0 0.27-0.22 0.49-0.49 0.49z"/>
			<path id="Path_2187-1737" class="s4" d="m309.61 244.95h255.32q0.42-0.01 0.72-0.3 0.29-0.3 0.3-0.72-0.01-0.42-0.3-0.72-0.3-0.29-0.72-0.29h-255.32q-0.42 0-0.72 0.29-0.29 0.3-0.29 0.72 0 0.42 0.29 0.72 0.3 0.29 0.72 0.3z"/>
			<path id="Ellipse_406" class="s4" d="m547.55 237.73c-3.29 0-5.95-2.72-5.95-6.08 0-3.36 2.66-6.08 5.95-6.08 3.29 0 5.95 2.72 5.95 6.08 0 3.36-2.66 6.08-5.95 6.08z"/>
			<path id="Ellipse_407" class="s4" d="m527 237.73c-3.29 0-5.95-2.72-5.95-6.08 0-3.36 2.66-6.08 5.95-6.08 3.29 0 5.95 2.72 5.95 6.08 0 3.36-2.66 6.08-5.95 6.08z"/>
			<path id="Ellipse_408" class="s4" d="m506.44 237.73c-3.29 0-5.95-2.72-5.95-6.08 0-3.36 2.66-6.08 5.95-6.08 3.29 0 5.95 2.72 5.95 6.08 0 3.36-2.66 6.08-5.95 6.08z"/>
			<path id="Path_2188-1738" class="s4" d="m320.9 228.18q0 0.22 0.08 0.42 0.09 0.2 0.24 0.35 0.15 0.16 0.35 0.24 0.2 0.09 0.42 0.09h14.6c0.29 0 0.57-0.12 0.78-0.32 0.21-0.21 0.32-0.49 0.32-0.79 0-0.29-0.11-0.57-0.32-0.78-0.21-0.2-0.49-0.32-0.78-0.32h-14.6q-0.22 0-0.42 0.09-0.2 0.08-0.35 0.24-0.16 0.16-0.24 0.36-0.08 0.2-0.08 0.42z"/>
			<path id="Path_2189-1739" class="s4" d="m320.9 232.33q0 0.22 0.08 0.42 0.09 0.2 0.24 0.35 0.15 0.16 0.35 0.24 0.2 0.09 0.42 0.09h14.6c0.29 0 0.57-0.12 0.78-0.32 0.21-0.21 0.32-0.49 0.32-0.79 0-0.29-0.11-0.57-0.32-0.78-0.21-0.2-0.49-0.32-0.78-0.32h-14.6q-0.22 0-0.42 0.09-0.2 0.08-0.35 0.24-0.16 0.16-0.24 0.36-0.08 0.2-0.08 0.42z"/>
			<path id="Path_2190-1740" class="s4" d="m320.9 236.47q0 0.22 0.08 0.42 0.08 0.2 0.24 0.36 0.15 0.16 0.35 0.24 0.2 0.09 0.42 0.09h14.6c0.29 0 0.57-0.12 0.78-0.32 0.21-0.21 0.32-0.49 0.32-0.79 0-0.29-0.11-0.57-0.32-0.78-0.21-0.2-0.49-0.32-0.78-0.32h-14.6q-0.22 0-0.42 0.09-0.2 0.08-0.35 0.24-0.15 0.15-0.24 0.35-0.08 0.2-0.08 0.42z"/>
			<path id="Rectangle_519" class="s6" d="m320.17 268.54h5.24c1.59 0 2.88 1.29 2.88 2.88 0 1.59-1.29 2.88-2.88 2.88h-5.24c-1.59 0-2.88-1.29-2.88-2.88 0-1.59 1.29-2.88 2.88-2.88z"/>
			<path id="Rectangle_520" class="s6" d="m380.17 268.54h5.24c1.59 0 2.88 1.29 2.88 2.88 0 1.59-1.29 2.88-2.88 2.88h-5.24c-1.59 0-2.88-1.29-2.88-2.88 0-1.59 1.29-2.88 2.88-2.88z"/>
			<path id="Rectangle_521" class="s6" d="m397.17 268.54h5.24c1.59 0 2.88 1.29 2.88 2.88 0 1.59-1.29 2.88-2.88 2.88h-5.24c-1.59 0-2.88-1.29-2.88-2.88 0-1.59 1.29-2.88 2.88-2.88z"/>
			<path id="Rectangle_522" class="s6" d="m336.49 268.06h32.6c1.59 0 2.88 1.29 2.88 2.88 0 1.59-1.29 2.88-2.88 2.88h-32.6c-1.59 0-2.88-1.29-2.88-2.88 0-1.59 1.29-2.88 2.88-2.88z"/>
			<path id="Rectangle_523" class="s6" d="m416.49 268.06h32.6c1.59 0 2.88 1.29 2.88 2.88 0 1.59-1.29 2.88-2.88 2.88h-32.6c-1.59 0-2.88-1.29-2.88-2.88 0-1.59 1.29-2.88 2.88-2.88z"/>
			<path id="Rectangle_524" class="s6" d="m336.17 281.54h5.24c1.59 0 2.88 1.29 2.88 2.88 0 1.59-1.29 2.88-2.88 2.88h-5.24c-1.59 0-2.88-1.29-2.88-2.88 0-1.59 1.29-2.88 2.88-2.88z"/>
			<path id="Rectangle_525" class="s6" d="m396.17 281.54h5.24c1.59 0 2.88 1.29 2.88 2.88 0 1.59-1.29 2.88-2.88 2.88h-5.24c-1.59 0-2.88-1.29-2.88-2.88 0-1.59 1.29-2.88 2.88-2.88z"/>
			<path id="Rectangle_526" class="s6" d="m413.17 281.54h5.24c1.59 0 2.88 1.29 2.88 2.88 0 1.59-1.29 2.88-2.88 2.88h-5.24c-1.59 0-2.88-1.29-2.88-2.88 0-1.59 1.29-2.88 2.88-2.88z"/>
			<path id="Rectangle_527" class="s6" d="m352.49 281.06h32.6c1.59 0 2.88 1.29 2.88 2.88 0 1.59-1.29 2.88-2.88 2.88h-32.6c-1.59 0-2.88-1.29-2.88-2.88 0-1.59 1.29-2.88 2.88-2.88z"/>
			<path id="Rectangle_528" class="s6" d="m432.49 281.06h32.6c1.59 0 2.88 1.29 2.88 2.88 0 1.59-1.29 2.88-2.88 2.88h-32.6c-1.59 0-2.88-1.29-2.88-2.88 0-1.59 1.29-2.88 2.88-2.88z"/>
			<path id="Rectangle_529" class="s6" d="m352.17 294.54h5.24c1.59 0 2.88 1.29 2.88 2.88 0 1.59-1.29 2.88-2.88 2.88h-5.24c-1.59 0-2.88-1.29-2.88-2.88 0-1.59 1.29-2.88 2.88-2.88z"/>
			<path id="Rectangle_530" class="s6" d="m412.17 294.54h5.24c1.59 0 2.88 1.29 2.88 2.88 0 1.59-1.29 2.88-2.88 2.88h-5.24c-1.59 0-2.88-1.29-2.88-2.88 0-1.59 1.29-2.88 2.88-2.88z"/>
			<path id="Rectangle_531" class="s6" d="m429.17 294.54h5.24c1.59 0 2.88 1.29 2.88 2.88 0 1.59-1.29 2.88-2.88 2.88h-5.24c-1.59 0-2.88-1.29-2.88-2.88 0-1.59 1.29-2.88 2.88-2.88z"/>
			<path id="Rectangle_532" class="s6" d="m368.49 294.06h32.6c1.59 0 2.88 1.29 2.88 2.88 0 1.59-1.29 2.88-2.88 2.88h-32.6c-1.59 0-2.88-1.29-2.88-2.88 0-1.59 1.29-2.88 2.88-2.88z"/>
			<path id="Rectangle_533" class="s6" d="m448.49 294.06h32.6c1.59 0 2.88 1.29 2.88 2.88 0 1.59-1.29 2.88-2.88 2.88h-32.6c-1.59 0-2.88-1.29-2.88-2.88 0-1.59 1.29-2.88 2.88-2.88z"/>
			<path id="Rectangle_534" class="s6" d="m368.17 307.54h5.24c1.59 0 2.88 1.29 2.88 2.88 0 1.59-1.29 2.88-2.88 2.88h-5.24c-1.59 0-2.88-1.29-2.88-2.88 0-1.59 1.29-2.88 2.88-2.88z"/>
			<path id="Rectangle_535" class="s6" d="m428.17 307.54h5.24c1.59 0 2.88 1.29 2.88 2.88 0 1.59-1.29 2.88-2.88 2.88h-5.24c-1.59 0-2.88-1.29-2.88-2.88 0-1.59 1.29-2.88 2.88-2.88z"/>
			<path id="Rectangle_536" class="s6" d="m445.17 307.54h5.24c1.59 0 2.88 1.29 2.88 2.88 0 1.59-1.29 2.88-2.88 2.88h-5.24c-1.59 0-2.88-1.29-2.88-2.88 0-1.59 1.29-2.88 2.88-2.88z"/>
			<path id="Rectangle_537" class="s6" d="m384.49 307.06h32.6c1.59 0 2.88 1.29 2.88 2.88 0 1.59-1.29 2.88-2.88 2.88h-32.6c-1.59 0-2.88-1.29-2.88-2.88 0-1.59 1.29-2.88 2.88-2.88z"/>
			<path id="Rectangle_538" class="s6" d="m380.17 359.24h5.24c1.59 0 2.88 1.29 2.88 2.88 0 1.59-1.29 2.88-2.88 2.88h-5.24c-1.59 0-2.88-1.29-2.88-2.88 0-1.59 1.29-2.88 2.88-2.88z"/>
			<path id="Rectangle_539" class="s6" d="m397.17 359.24h5.24c1.59 0 2.88 1.29 2.88 2.88 0 1.59-1.29 2.88-2.88 2.88h-5.24c-1.59 0-2.88-1.29-2.88-2.88 0-1.59 1.29-2.88 2.88-2.88z"/>
			<path id="Rectangle_540" class="s6" d="m416.49 359.72h32.6c1.59 0 2.88 1.29 2.88 2.88 0 1.59-1.29 2.88-2.88 2.88h-32.6c-1.59 0-2.88-1.29-2.88-2.88 0-1.59 1.29-2.88 2.88-2.88z"/>
			<path id="Rectangle_541" class="s6" d="m320.17 359.24h5.24c1.59 0 2.88 1.29 2.88 2.88 0 1.59-1.29 2.88-2.88 2.88h-5.24c-1.59 0-2.88-1.29-2.88-2.88 0-1.59 1.29-2.88 2.88-2.88z"/>
			<path id="Rectangle_542" class="s6" d="m336.49 359.72h32.6c1.59 0 2.88 1.29 2.88 2.88 0 1.59-1.29 2.88-2.88 2.88h-32.6c-1.59 0-2.88-1.29-2.88-2.88 0-1.59 1.29-2.88 2.88-2.88z"/>
			<path id="Rectangle_543" class="s6" d="m336.17 346.24h5.24c1.59 0 2.88 1.29 2.88 2.88 0 1.59-1.29 2.88-2.88 2.88h-5.24c-1.59 0-2.88-1.29-2.88-2.88 0-1.59 1.29-2.88 2.88-2.88z"/>
			<path id="Rectangle_544" class="s6" d="m396.17 346.24h5.24c1.59 0 2.88 1.29 2.88 2.88 0 1.59-1.29 2.88-2.88 2.88h-5.24c-1.59 0-2.88-1.29-2.88-2.88 0-1.59 1.29-2.88 2.88-2.88z"/>
			<path id="Rectangle_545" class="s6" d="m413.17 346.24h5.24c1.59 0 2.88 1.29 2.88 2.88 0 1.59-1.29 2.88-2.88 2.88h-5.24c-1.59 0-2.88-1.29-2.88-2.88 0-1.59 1.29-2.88 2.88-2.88z"/>
			<path id="Rectangle_546" class="s6" d="m352.49 346.72h32.6c1.59 0 2.88 1.29 2.88 2.88 0 1.59-1.29 2.88-2.88 2.88h-32.6c-1.59 0-2.88-1.29-2.88-2.88 0-1.59 1.29-2.88 2.88-2.88z"/>
			<path id="Rectangle_547" class="s6" d="m352.17 333.24h5.24c1.59 0 2.88 1.29 2.88 2.88 0 1.59-1.29 2.88-2.88 2.88h-5.24c-1.59 0-2.88-1.29-2.88-2.88 0-1.59 1.29-2.88 2.88-2.88z"/>
			<path id="Rectangle_548" class="s6" d="m412.17 333.24h5.24c1.59 0 2.88 1.29 2.88 2.88 0 1.59-1.29 2.88-2.88 2.88h-5.24c-1.59 0-2.88-1.29-2.88-2.88 0-1.59 1.29-2.88 2.88-2.88z"/>
			<path id="Rectangle_549" class="s6" d="m429.17 333.24h5.24c1.59 0 2.88 1.29 2.88 2.88 0 1.59-1.29 2.88-2.88 2.88h-5.24c-1.59 0-2.88-1.29-2.88-2.88 0-1.59 1.29-2.88 2.88-2.88z"/>
			<path id="Rectangle_550" class="s6" d="m368.49 333.72h32.6c1.59 0 2.88 1.29 2.88 2.88 0 1.59-1.29 2.88-2.88 2.88h-32.6c-1.59 0-2.88-1.29-2.88-2.88 0-1.59 1.29-2.88 2.88-2.88z"/>
			<path id="Rectangle_551" class="s6" d="m368.17 320.24h5.24c1.59 0 2.88 1.29 2.88 2.88 0 1.59-1.29 2.88-2.88 2.88h-5.24c-1.59 0-2.88-1.29-2.88-2.88 0-1.59 1.29-2.88 2.88-2.88z"/>
			<path id="Rectangle_552" class="s6" d="m428.17 320.24h5.24c1.59 0 2.88 1.29 2.88 2.88 0 1.59-1.29 2.88-2.88 2.88h-5.24c-1.59 0-2.88-1.29-2.88-2.88 0-1.59 1.29-2.88 2.88-2.88z"/>
			<path id="Rectangle_553" class="s6" d="m445.17 320.24h5.24c1.59 0 2.88 1.29 2.88 2.88 0 1.59-1.29 2.88-2.88 2.88h-5.24c-1.59 0-2.88-1.29-2.88-2.88 0-1.59 1.29-2.88 2.88-2.88z"/>
			<path id="Rectangle_554" class="s6" d="m384.49 320.72h32.6c1.59 0 2.88 1.29 2.88 2.88 0 1.59-1.29 2.88-2.88 2.88h-32.6c-1.59 0-2.88-1.29-2.88-2.88 0-1.59 1.29-2.88 2.88-2.88z"/>
			<path id="Path_2191-1741" class="s6" d="m350.83 545.95q-0.33 0.17-0.66 0.32-2.08 1.04-4.2 2.04-6.33 3.02-12.82 5.73-4.27 1.79-8.59 3.43-4.32 1.65-8.7 3.15-4.37 1.51-8.79 2.87-4.43 1.36-8.89 2.58c-2-12.47-3.94-41.88-5.8-63.51-0.35-4.07-0.7-7.86-1.05-11.21q-0.12-1.65-0.3-3.29-0.18-1.64-0.42-3.28-0.24-1.64-0.53-3.26-0.29-1.63-0.64-3.25-0.03-0.12-0.07-0.25-0.04-0.12-0.09-0.24-0.05-0.13-0.11-0.24-0.05-0.12-0.12-0.24c0.19 1.73 0.39 6.89 0.58 14.05 0.1 3.35 0.19 7.14 0.29 11.21 0.47 20.82 0.96 49.15 1.45 65.28q-2.09 0.52-4.19 1-1.32 0.32-2.66 0.6-1.62 0.37-3.24 0.7-1.7 0.36-3.39 0.69-6.92 1.36-13.9 2.38-6.98 1.02-14 1.71-7.02 0.68-14.06 1.02-7.05 0.34-14.1 0.33-1.87 0-3.74-0.02-0.57 0-1.15-0.02-1.65-0.03-3.4-0.07-8.33-0.23-16.64-0.94-8.3-0.71-16.55-1.9-8.25-1.19-16.42-2.85-8.17-1.67-16.23-3.8l0.87-64.11 0.15-11.21 0.06-4.25q-0.18 0.51-0.33 1.04-0.15 0.52-0.26 1.06-0.11 0.53-0.18 1.07-0.07 0.54-0.11 1.08c-0.35 2.73-0.71 6.6-1.07 11.21-1.37 17.76-2.78 46.41-4.24 62.71-17.29-4.92-29.93-9.41-45.73-17.31q-0.92-0.45-1.84-0.92 0.17-1.15 0.34-2.33c1.79-12.44-0.32-28.63 1.66-42.15 1.51-10.43 3.07-20.45 4.64-28.95 1.9-10.23 3.83-18.27 5.74-22.18 2.2-4.51 4.4-8.95 6.53-13.2l2.71-5.39q0.72-1.43 1.43-2.81c2.14-4.19 4.16-8.06 6.01-11.49q1.95-3.62 3.6-6.5c1.29-2.25 2.43-4.11 3.37-5.52q2.59-3.92 5.8-7.34 3.2-3.43 6.94-6.27 3.74-2.83 7.91-5 4.16-2.16 8.63-3.6l0.3-0.08 0.29 0.12 0.33 0.15 19.06-6.97 8.51-20.49 43.71-2.69 7.06 5.37 3.61 2.75 3.85 2.93 7.08 5.39 2.01 0.62 2.99 0.92 20.45 6.28 0.21-0.09 0.3 0.08q4.07 1.31 7.9 3.22 3.82 1.92 7.3 4.4 3.48 2.48 6.54 5.47 3.06 2.99 5.62 6.41 1.01 1.33 1.92 2.71c1.66 2.46 3.9 6.35 6.54 11.23q1.64 3.03 3.45 6.5c0.73 1.39 7.03 21.05 13.16 41.13 5.73 18.8 11.31 37.97 12.04 42.89q0.2 1.37 0.4 2.74c0.83 5.69 1.65 11.42 2.44 17.01 1.17 8.29 2.31 16.29 3.4 23.44q0.02 0.1 0.03 0.2z"/>
			<path id="Path_2192-1742" class="s7" d="m304.51 473.57l-8.5-32.8-7.5 28.3z"/>
			<path id="Path_2193-1743" class="s8" d="m16.75 473.19q0.33 0.96 0.94 1.77 0.61 0.81 1.45 1.4 0.83 0.58 1.8 0.88 0.98 0.29 1.99 0.28l26.49-0.69q1.03-0.02 1.99-0.36 0.97-0.34 1.78-0.97 0.81-0.63 1.38-1.48 0.56-0.85 0.83-1.84l3.75-40.09q0.5 0.23 1.02 0.39 0.52 0.17 1.05 0.28 0.54 0.11 1.08 0.16 0.55 0.05 1.09 0.04c2.56-0.06 4.99-1.14 6.76-3 1.77-1.86 2.72-4.34 2.66-6.9-0.07-2.56-1.15-4.99-3-6.76-1.86-1.76-4.34-2.72-6.9-2.65q-0.22-0.01-0.44 0.01-0.22 0.01-0.44 0.03-0.21 0.02-0.43 0.06-0.22 0.03-0.43 0.08-0.46-0.51-1.02-0.9-0.56-0.4-1.19-0.67-0.63-0.27-1.31-0.41-0.67-0.13-1.35-0.12l-40.75 1.05q-0.13 0-0.26 0.01-0.12 0.01-0.25 0.03-0.13 0.01-0.25 0.04-0.13 0.02-0.25 0.04-1.35 0.26-2.48 1.05-1.13 0.79-1.83 1.98-0.7 1.19-0.85 2.56-0.14 1.37 0.29 2.68zm43.17-43.82l2.67-9.55q0.11-0.41 0.17-0.84 0.06-0.42 0.06-0.85 0-0.43-0.05-0.85-0.05-0.42-0.16-0.84c0.13 0 0.24-0.06 0.37-0.06 1.83-0.04 3.61 0.65 4.93 1.91 1.33 1.27 2.1 3.01 2.14 4.84 0.05 1.83-0.64 3.6-1.91 4.93-1.26 1.33-3 2.09-4.83 2.14q-0.45 0.01-0.88-0.03-0.44-0.05-0.87-0.16-0.43-0.1-0.84-0.26-0.41-0.16-0.8-0.38z"/>
			<path id="Path_2194-1744" class="s8" d="m14.54 412.9c0.87 4.96 10.63 8.45 22.37 7.85 10.79-0.5 19.61-4.29 21.23-8.78q-0.22-0.07-0.45-0.12-0.23-0.05-0.46-0.08-0.23-0.03-0.47-0.04-0.23-0.01-0.46-0.01l-40.75 1.05q-0.13 0.01-0.26 0.02-0.12 0.01-0.25 0.02-0.13 0.02-0.25 0.04-0.13 0.02-0.25 0.05z"/>
			<path id="Path_2195-1745" class="s2" d="m42.38 449.54q0.03 0 0.05-0.01 0.03-0.01 0.05-0.02 0.02-0.01 0.05-0.02 0.02-0.02 0.04-0.03l7.28-4.77q0.14-0.08 0.21-0.23 0.08-0.14 0.08-0.3 0-0.16-0.08-0.3-0.07-0.14-0.21-0.22l-7.57-4.96q-0.22-0.14-0.47-0.09-0.26 0.05-0.4 0.27-0.14 0.22-0.09 0.48 0.06 0.25 0.27 0.4l6.76 4.42-6.47 4.24q-0.19 0.13-0.26 0.35-0.06 0.22 0.03 0.43 0.09 0.21 0.3 0.32 0.2 0.1 0.43 0.04z"/>
			<path id="Path_2196-1746" class="s2" d="m30.88 450.07q0.19-0.05 0.32-0.19 0.12-0.14 0.15-0.33 0.03-0.2-0.06-0.37-0.08-0.17-0.25-0.27l-6.71-3.85 6.49-4.82q0.2-0.15 0.24-0.41 0.04-0.26-0.11-0.47-0.16-0.21-0.42-0.25-0.26-0.03-0.47 0.12l-7.26 5.39q-0.13 0.1-0.2 0.24-0.07 0.15-0.06 0.31 0.01 0.16 0.1 0.3 0.08 0.13 0.22 0.21l7.55 4.33q0.05 0.03 0.11 0.05 0.06 0.02 0.12 0.03 0.06 0 0.12 0 0.06 0 0.12-0.02z"/>
			<path id="Path_2197-1747" class="s2" d="m41.66 453.72q0.02-0.01 0.04-0.01 0.02-0.01 0.05-0.02 0.02-0.01 0.04-0.02 0.02-0.01 0.04-0.02 0.11-0.07 0.18-0.17 0.08-0.1 0.11-0.23 0.02-0.12 0.01-0.24-0.02-0.13-0.09-0.23l-10.32-16.97q-0.14-0.22-0.39-0.29-0.26-0.06-0.48 0.08-0.22 0.13-0.29 0.39-0.05 0.25 0.08 0.47l10.32 16.97q0.05 0.09 0.13 0.16 0.08 0.06 0.17 0.1 0.1 0.04 0.2 0.05 0.1 0 0.2-0.02z"/>
			<path id="Path_2198-1748" class="s6" d="m786.07 547.04q-0.92 0.46-1.84 0.92c-15.8 7.9-28.44 12.39-45.73 17.31-1.46-16.3-2.87-44.95-4.24-62.71-0.36-4.61-0.72-8.48-1.07-11.21q-0.03-0.55-0.11-1.09-0.07-0.54-0.18-1.07-0.11-0.53-0.26-1.06-0.15-0.52-0.33-1.03l0.06 4.25 0.15 11.21 0.87 64.11q-8.06 2.13-16.23 3.79-8.17 1.67-16.42 2.85-8.25 1.19-16.55 1.9-8.31 0.72-16.64 0.95-1.75 0.04-3.4 0.07-0.58 0.01-1.15 0.02-1.87 0.01-3.74 0.02-8.78 0-17.55-0.52-8.76-0.53-17.48-1.59-8.71-1.05-17.35-2.64-8.64-1.58-17.16-3.68c0.49-16.13 0.98-44.46 1.45-65.28 0.1-4.07 0.19-7.86 0.29-11.21 0.19-7.16 0.39-12.32 0.58-14.05q-0.06 0.11-0.12 0.23-0.06 0.12-0.11 0.24-0.04 0.12-0.09 0.25-0.04 0.12-0.07 0.25-0.35 1.61-0.64 3.24-0.29 1.63-0.53 3.26-0.24 1.64-0.42 3.28-0.18 1.65-0.3 3.3c-0.35 3.35-0.7 7.14-1.05 11.21-1.86 21.63-3.8 51.04-5.8 63.51q-4.46-1.22-8.89-2.58-4.42-1.37-8.79-2.87-4.38-1.51-8.7-3.15-4.32-1.65-8.59-3.43-9-3.75-17.68-8.09c1.1-7.2 2.25-15.27 3.43-23.64 0.92-6.49 1.87-13.16 2.84-19.75 1.5-10.18 52.46-120.11 64.47-123.96l0.3-0.08 0.21 0.09 20.45-6.28 2.99-0.92 2.01-0.62 7.08-5.39 3.85-2.93 3.61-2.75 7.06-5.37 43.71 2.69 8.51 20.49 19.06 6.97 0.33-0.15 0.29-0.12 0.3 0.08q4.47 1.43 8.63 3.6 4.17 2.16 7.91 5 3.74 2.84 6.95 6.26 3.2 3.43 5.79 7.35c0.94 1.41 2.08 3.27 3.37 5.52q1.65 2.87 3.6 6.5c1.85 3.43 3.87 7.3 6.01 11.49q0.71 1.38 1.43 2.81 1.33 2.64 2.71 5.39c2.13 4.25 4.33 8.69 6.53 13.2 1.91 3.91 3.84 11.95 5.74 22.18 1.57 8.5 3.13 18.52 4.64 28.95 1.98 13.52-0.13 29.71 1.66 42.15q0.17 1.18 0.34 2.33z"/>
			<path id="Ellipse_409" class="s9" d="m657.87 346.99c-28.11 0-50.83-22.72-50.83-50.83 0-28.11 22.72-50.84 50.83-50.84 28.12 0 50.84 22.73 50.84 50.84 0 28.11-22.72 50.83-50.84 50.83z"/>
			<path id="Path_2199-1749" class="s7" d="m576.58 473.57l8.5-32.8 7.5 28.3z"/>
			<path id="Path_2200-1750" class="s10" d="m802.69 452.2c-3.04 41.88 0.11 60.32-16.67 94.85q-5.72 2.8-11.56 5.34-5.85 2.55-11.8 4.83-5.94 2.28-11.99 4.29-6.04 2.02-12.17 3.76-2.55 0.72-5.11 1.4-8.06 2.13-16.23 3.8-8.17 1.66-16.42 2.85-8.25 1.19-16.55 1.9-8.31 0.71-16.64 0.94-1.75 0.04-3.4 0.07-0.58 0.02-1.15 0.02-1.87 0.02-3.74 0.02-8.78 0.01-17.55-0.52-8.76-0.53-17.48-1.58-8.71-1.06-17.35-2.64-8.64-1.59-17.16-3.69-3.42-0.84-6.81-1.77-4.46-1.22-8.89-2.58-4.42-1.36-8.79-2.87-4.38-1.5-8.7-3.15-4.32-1.64-8.59-3.43-9-3.75-17.68-8.09-1.97-0.98-3.91-2c-6.63-11.66-10.4-25.84-10.48-42.88 4.59-29.36 276.68-74.19 286.82-48.87z"/>
			<path id="Path_2201-1751" class="s7" d="m802.68 459.37q0.23-3.88 0.53-8.06c-10.14-25.32-282.23 19.51-286.82 48.87q0.03 4.03 0.32 7.86c11.12-28.98 269.61-71.59 285.97-48.67z"/>
			<path id="Path_2202-1752" class="s9" d="m519.18 482.62l22.34-11.17-18.62-50.25-4.9-25.34c-0.63-3.29-2.12-6.36-4.32-8.9-2.19-2.53-5.01-4.45-8.18-5.55-3.17-1.11-6.57-1.36-9.86-0.74-3.3 0.62-6.37 2.1-8.92 4.28-1.87 1.6-3.41 3.55-4.54 5.74-1.13 2.18-1.84 4.57-2.07 7.02-0.23 2.45 0.02 4.92 0.72 7.28 0.71 2.36 1.86 4.56 3.4 6.48l18.21 22.76z"/>
			<path id="Path_2203-1753" class="s6" d="m531.44 433.7l-29.78 14.89 22.6 70.81c0.81 2.53 1.94 4.95 3.36 7.19 1.43 2.25 3.13 4.3 5.08 6.1 1.95 1.81 4.13 3.36 6.47 4.61 2.34 1.26 4.84 2.2 7.42 2.82 3.19 0.75 6.47 1 9.73 0.73 3.25-0.27 6.45-1.05 9.46-2.32 3.02-1.27 5.81-3 8.28-5.15 2.47-2.14 4.59-4.66 6.27-7.46l59.92-102.71c2.11-3.51 3.51-7.39 4.14-11.43 0.62-4.04 0.46-8.16-0.49-12.14-0.94-3.98-2.65-7.74-5.02-11.06-2.37-3.33-5.37-6.17-8.83-8.36-3.75-2.37-7.96-3.93-12.35-4.57-4.39-0.64-8.87-0.35-13.14 0.85-4.28 1.2-8.25 3.3-11.66 6.14-3.41 2.84-6.19 6.36-8.15 10.35l-36.56 77.94z"/>
			<path id="Ellipse_410" class="s0" d="m210.43 343.49c-30.93 0-55.94-25.01-55.94-55.94 0-30.93 25.01-55.93 55.94-55.93 30.93 0 55.93 25 55.93 55.93 0 30.93-25 55.94-55.93 55.94z"/>
			<path id="Path_2204-1754" class="s8" d="m155.16 249.01c4.55-6.13 11.09-10.49 16.09-16.26 2.74-3.16 5.02-6.75 8.1-9.58 5.73-5.26 13.75-7.42 21.52-7.69 4.25-0.11 8.5 0.28 12.65 1.16 4.16 0.88 8.19 2.25 12.03 4.07 3.84 1.82 7.45 4.08 10.76 6.75 3.31 2.66 6.3 5.7 8.9 9.06l12.19-7.15 4.82 12.68c1.31-1.15 3-1.79 4.74-1.81 1.75-0.03 3.45 0.57 4.8 1.68 1.34 1.1 2.26 2.65 2.57 4.37 0.32 1.72 0.02 3.49-0.85 5.01 0.97-2.99 5.4-3.62 7.84-1.65 2.44 1.97 3.1 5.49 2.7 8.6q-0.37 2.56-1.48 4.9-1.11 2.35-2.86 4.26-1.74 1.91-3.97 3.24-2.23 1.31-4.75 1.93c-5.3 1.18-11.48-0.06-15.73 3.33-3.4 2.72-4.43 7.67-7.9 10.3-4.27 3.24-10.32 1.74-15.64 2.46-9.31 1.25-16.68 10.77-15.56 20.1-0.85-2.95-1.73-5.97-3.64-8.36-1.92-2.39-5.13-4.01-8.07-3.13-4.84 1.45-5.64 8.06-4.46 12.98 3.11 13.05 14.92 34.14 14.92 34.14-15.33 6.05-33.59 0.33-45.42-11.14-11.82-11.48-17.98-27.72-20.67-43.98-2.27-13.78-1.95-29.05 6.37-40.27z"/>
			<path id="Path_2205-1755" class="s8" d="m721.58 324.18c10.64-24.4 4.62-46.85-8.36-58.76v-0.01c-5.1-11.43-11.88-20.25-19.64-22.32-3.75-2.41-7.39-5.24-11.43-6.68q-1.41-0.53-2.9-0.76-1.49-0.24-2.99-0.17-1.51 0.07-2.97 0.44-1.46 0.37-2.82 1.02l-2.06-0.55c-4.55-0.65-0.11 0.38-6.08-1.62-8.78-4.09-16.69-5.92-23.73-5.92-22.96 0-36.54 19.44-40.14 42.94l19.19 5.11 6.67-10.63-3.08 11.59 10.59 2.81c16.12 20.99-3.17 69.41-27.62 96.35q8.73-2.41 17.39-4.08l20.98-30.76-13 28c6.75-0.99 15.36-0.04 24.77 1.87 3.17-4.14 4.84-9.66 3.2-14.58q1.01 1.94 1.85 3.96 0.85 2.02 1.54 4.09 0.69 2.08 1.21 4.2 0.53 2.12 0.88 4.28c19.86 4.85 46.95 7.34 61.55 9.18 11.8-3.84 11.83-47.34-3-59z"/>
			<path id="Path_2206-1756" class="s8" d="m728.5 241.19c7.8 17.45-7.93 24.96-22.34 24.75-13.02-0.19-24.08-9.34-24.74-22.34-0.16-3.09 0.29-6.19 1.33-9.1 1.04-2.92 2.64-5.61 4.71-7.9 2.08-2.3 4.58-4.17 7.38-5.5 2.79-1.33 5.83-2.09 8.92-2.25 13-0.67 19.44 10.45 24.74 22.34z"/>
			<path id="Path_2207-1757" class="s0" d="m366.13 530.4l-13.44-23.17 44.7-35.05 18.59-20.29q1.77-1.96 4-3.38 2.24-1.43 4.77-2.21 2.53-0.78 5.17-0.86 2.65-0.09 5.22 0.53 2.6 0.66 4.93 1.96 2.34 1.3 4.26 3.17 1.92 1.86 3.3 4.15 1.37 2.3 2.1 4.87c3.15 10.7-2.47 22.05-12.71 25.66l-28.88 10.19z"/>
			<path id="Path_2208-1758" class="s6" d="m376.18 524.6l-19.99 16.66-5.39 4.49-0.63 0.52q-2.08 1.04-4.2 2.04-6.33 3.02-12.82 5.73-4.27 1.79-8.59 3.43-4.32 1.65-8.7 3.15-4.37 1.51-8.79 2.87-4.43 1.36-8.89 2.58-3.39 0.93-6.81 1.77-2.09 0.52-4.19 1-1.32 0.32-2.66 0.6-1.62 0.37-3.24 0.7-1.7 0.36-3.39 0.69-2.28-2.17-4.08-4.75-1.79-2.59-3.03-5.48-1.24-2.89-1.88-5.98-0.63-3.08-0.63-6.23 0-0.41 0.01-0.83l3.21-82.33 1.42-36.49c0.11-4.09 1.01-8.11 2.65-11.86 1.64-3.74 4-7.13 6.93-9.98 2.93-2.85 6.39-5.1 10.18-6.63 3.79-1.54 7.84-2.32 11.93-2.31q1.44 0 2.85 0.14 1.01 1.33 1.92 2.71c1.66 2.46 3.9 6.35 6.54 11.23q1.64 3.03 3.45 6.5c0.73 1.39 7.03 21.05 13.16 41.13l-2.7 20.97-4.88 37.8 20.02-13.14 14.1-9.26 1.67 2.79 4.35 7.26 8.4 14z"/>
			<path id="Path_2209-1759" class="s10" d="m365.22 501.07q-0.01 2.55-0.14 5.02-0.08 1.71-0.21 3.41-0.14 1.7-0.34 3.4-0.2 1.7-0.45 3.38-0.26 1.69-0.58 3.37-0.51 2.82-1.23 5.59-0.72 2.77-1.64 5.48-0.92 2.71-2.03 5.35-1.11 2.64-2.41 5.19-0.69 1.37-1.45 2.69-1.94 1.02-3.91 2-0.33 0.17-0.66 0.32-8.35 4.16-17.02 7.77-4.27 1.79-8.59 3.43-4.32 1.65-8.7 3.15-4.37 1.51-8.79 2.87-4.43 1.36-8.89 2.58-3.39 0.93-6.81 1.77-6.67 1.65-13.48 2.99-6.92 1.36-13.9 2.38-6.98 1.02-14 1.71-7.02 0.68-14.06 1.02-7.05 0.34-14.1 0.33-1.87 0-3.74-0.02-0.57 0-1.15-0.02-1.65-0.03-3.4-0.07-8.33-0.23-16.64-0.94-8.3-0.71-16.55-1.9-8.25-1.19-16.42-2.85-8.17-1.67-16.23-3.8-2.56-0.67-5.11-1.4-6.13-1.74-12.17-3.75-6.05-2.02-11.99-4.3-5.95-2.28-11.79-4.82-5.85-2.55-11.57-5.35c-16.78-34.53-13.63-52.97-16.67-94.85 6.24-15.59 111.81-4.58 193.09 13.03 22.06 4.78 42.32 10.05 58.33 15.41 16.54 5.53 28.53 11.15 33.23 16.43q0.41 0.41 0.76 0.87 0.34 0.47 0.62 0.97 0.28 0.51 0.47 1.05 0.2 0.55 0.32 1.11z"/>
			<path id="Path_2210-1760" class="s11" d="m78.41 459.37q-0.23-3.88-0.53-8.06c10.14-25.32 282.23 19.51 286.82 48.87q-0.03 4.03-0.32 7.86c-11.12-28.98-269.61-71.59-285.97-48.67z"/>
		</g>
	</g>
</svg>