<svg version="1.2" xmlns="http://www.w3.org/2000/svg" viewBox="0 0 855.15669 581.90681" width="856" height="582">
	<title>undraw_maker-launch_fwzi</title>
	<style>
		.s0 { fill: #e6e6e6 } 
		.s1 { fill: #1a4d29 } 
		.s2 { fill: #cccccc } 
		.s3 { fill: #83c65e } 
		.s4 { fill: #f2f2f2 } 
		.s5 { fill: #ff6584 } 
		.s6 { fill: #a0616a } 
		.s7 { fill: #2f2e41 } 
		.s8 { opacity: .17;fill: #000000 } 
	</style>
	<g id="Layer 1">
		<path class="s0" d="m519.74 326.24q1.09 0 2.11 0.42 1.01 0.42 1.78 1.19 0.77 0.77 1.19 1.78 0.42 1.01 0.42 2.11v53.2h105.5c1.46 0 2.86 0.58 3.89 1.61 1.03 1.04 1.61 2.43 1.61 3.89 0 1.46-0.58 2.86-1.61 3.89-1.03 1.03-2.43 1.61-3.89 1.61h-105.5v184h-11v-248.2q0-1.1 0.42-2.11 0.42-1.01 1.19-1.78 0.78-0.77 1.79-1.19 1.01-0.42 2.1-0.42z"/>
		<path class="s1" d="m226.15 578.69l-19.84 0.55q-1.12 0.06-2.23-0.06-1.12-0.13-2.2-0.43-1.08-0.31-2.1-0.78-1.02-0.47-1.95-1.11c-2.15-1.6-3.14-3.76-2.71-5.94l3.9-19.61c0.74-3.7 5.27-6.5 10.78-6.65l10.96-0.3c5.51-0.16 10.19 2.39 11.13 6.04l4.98 19.37c0.55 2.15-0.32 4.36-2.38 6.08q-0.89 0.68-1.88 1.21-1 0.53-2.06 0.9-1.06 0.36-2.17 0.54-1.11 0.19-2.23 0.19z"/>
		<path class="s1" d="m346.78 578.13l-19.83 0.55q-1.13 0.06-2.24-0.07-1.12-0.12-2.2-0.42-1.08-0.31-2.1-0.78-1.02-0.48-1.95-1.11c-2.15-1.6-3.14-3.77-2.71-5.94l3.9-19.61c0.74-3.7 5.27-6.5 10.78-6.65l10.96-0.3c5.51-0.16 10.19 2.39 11.13 6.04l4.98 19.37c0.55 2.14-0.32 4.36-2.38 6.08q-0.89 0.68-1.88 1.21-1 0.53-2.06 0.89-1.06 0.37-2.17 0.55-1.11 0.19-2.23 0.19z"/>
		<path class="s1" d="m157.28 411.63c-0.9-0.39-1.65-1.08-2.11-1.95-0.46-0.87-0.61-1.88-0.43-2.85 0.19-0.96 0.7-1.84 1.45-2.48 0.75-0.64 1.7-1 2.69-1.03l225.46-6.22q0.87-0.03 1.67 0.28 0.8 0.31 1.43 0.9 0.62 0.59 0.98 1.38 0.35 0.78 0.37 1.64 0.02 0.86-0.28 1.67-0.31 0.8-0.9 1.43-0.59 0.62-1.38 0.98-0.79 0.35-1.65 0.37l-225.46 6.23q-0.24 0.01-0.47-0.01-0.24-0.02-0.47-0.07-0.23-0.04-0.46-0.11-0.22-0.07-0.44-0.16z"/>
		<path class="s0" d="m176.04 338.77l64.45-1.78 6.01 217.6-64.45 1.78z"/>
		<path class="s2" d="m242.13 333.08l-12.39 33.75 0.01 153.76 15.09 4.33-2.71-191.84z"/>
		<path class="s1" d="m207.93 280.12c-12.06 0.34-21.26 21.21-21.04 29.35l0.41 14.75 43.66-1.21-0.41-14.74c-0.22-8.14-10.56-28.47-22.62-28.15z"/>
		<path class="s1" d="m176.88 428.88c-1.12 0.03-2.23-0.16-3.27-0.56-1.04-0.4-2-1-2.81-1.76-0.81-0.77-1.46-1.69-1.91-2.71-0.46-1.02-0.71-2.12-0.74-3.23l-0.67-23.99c-0.06-2.26 0.78-4.44 2.33-6.08 1.55-1.64 3.68-2.59 5.94-2.65 2.25-0.07 4.44 0.77 6.07 2.32 1.64 1.55 2.6 3.68 2.66 5.94l0.66 23.99c0.03 1.11-0.16 2.23-0.56 3.27-0.4 1.04-1 1.99-1.77 2.8-0.76 0.81-1.68 1.47-2.7 1.92-1.02 0.46-2.12 0.71-3.23 0.74z"/>
		<path class="s1" d="m193.23 339.28l-0.3-15.85 4.16-0.1 0.3 15.8 3.77 230.35-4.16 0.11"/>
		<path class="s0" d="m247.88 376.36l-74.74 2.06c-7.14-8.7-7.78-45.79 7.11-52.85l5.85-9.92 45.04-2.2 5.26 10.45c7.41 6.31 11.23 43.16 11.48 52.46z"/>
		<path class="s3" d="m219.75 358.57l-18.9 0.53c-3.65 0.1-6.75-4.64-6.91-10.55-0.16-5.92 2.67-10.81 6.32-10.91l18.9-0.52c3.65-0.11 6.75 4.63 6.91 10.54 0.16 5.92-2.67 10.81-6.32 10.91z"/>
		<path class="s0" d="m183.15 465.57l-38.96 27.52-6.8 62.05 45.44-15.19 0.32-74.38z"/>
		<path class="s0" d="m300.45 336.1l64.45-1.78 6.01 217.6-64.45 1.78z"/>
		<path class="s2" d="m302 333.81l13.26 33.41 3.98 153.71-14.98 4.72-2.26-191.84z"/>
		<path class="s0" d="m397.13 273.91c-4.67 0-8.45-5.06-8.45-11.33 0-6.26 3.78-11.32 8.45-11.32 4.67 0 8.45 5.06 8.45 11.32 0 6.27-3.78 11.33-8.45 11.33z"/>
		<path class="s1" d="m331.08 277.49c-12.05 0.34-21.25 21.21-21.03 29.35l0.4 14.75 43.66-1.21-0.4-14.74c-0.23-8.14-10.57-28.47-22.63-28.15z"/>
		<path class="s1" d="m343.57 344.25l-0.31-15.86 4.16-0.1 0.31 15.8 3.76 230.35-4.16 0.11"/>
		<path class="s0" d="m371.03 373.73l-74.73 2.06c-1.31-7.87 0.38-44.63 7.11-52.85l5.84-9.92 45.04-2.2 5.27 10.45c13.29 1.08 17.95 37.2 11.47 52.46z"/>
		<path class="s3" d="m342.99 359.25l-18.9 0.53c-3.64 0.1-6.76-5.38-6.95-12.21-0.19-6.82 2.62-12.46 6.27-12.56l18.9-0.52c3.65-0.11 6.77 5.37 6.96 12.2 0.19 6.82-2.63 12.46-6.28 12.56z"/>
		<path class="s0" d="m368.09 449.66l37.66 29.27 3.97 62.3-44.71-17.25 3.08-74.32z"/>
		<path class="s4" d="m357.57 161.12c-40.41 0-86.86-44.85-127.95-23.54-124.42 64.52-107.29-43.44-143.03-83.59l1.17-2.35c27.06 103.22 51.54 267.69 142.4 83.2 22.76-46.21 97.45 25.22 141.42 23.12l0.08 2.83q-6.97 0.33-14.09 0.33z"/>
		<path class="s4" d="m454.57 167.47c-32.22 24.4-96.32 16.69-116.21 58.48-60.23 126.55-111.76 30.15-164.49 19.73l-0.49-2.59c52.79 4.38 109.42-2.41 163.75-19.64 49.11-15.58 92.92-38.74 126.7-66.97l1.77 2.21q-5.35 4.48-11.03 8.78z"/>
		<path class="s0" d="m104.13 161.91c-4.67 0-8.45-5.06-8.45-11.33 0-6.26 3.78-11.32 8.45-11.32 4.67 0 8.45 5.06 8.45 11.32 0 6.27-3.78 11.33-8.45 11.33z"/>
		<path class="s0" d="m366.13 69.91c-4.67 0-8.45-5.06-8.45-11.33 0-6.26 3.78-11.32 8.45-11.32 4.67 0 8.45 5.06 8.45 11.32 0 6.27-3.78 11.33-8.45 11.33z"/>
		<path class="s0" d="m181.47 207.63c-3.86 2.57-7.81-3.55-3.88-6.01 3.86-2.57 7.82 3.55 3.88 6.01z"/>
		<path class="s0" d="m324.47 6.63c-3.86 2.57-7.81-3.55-3.88-6.01 3.86-2.57 7.82 3.55 3.88 6.01z"/>
		<path class="s0" d="m408.75 125.8l-2.46-0.54 0.54-2.46-1.64-0.36-0.54 2.46-2.45-0.54-0.36 1.64 2.45 0.54-0.53 2.46 1.63 0.36 0.54-2.46 2.46 0.54 0.36-1.64z"/>
		<path class="s5" d="m183.53 43.44c-5.91 0-10.7-4.78-10.7-10.7 0-5.92 4.79-10.71 10.7-10.71 5.92 0 10.71 4.79 10.71 10.71 0 5.92-4.79 10.7-10.71 10.7z"/>
		<path class="s1" d="m261.82 19.19c-12.06 0.34-21.26 21.21-21.04 29.35l0.41 14.74 43.66-1.2-0.41-14.74c-0.23-8.15-10.57-28.47-22.62-28.15z"/>
		<path class="s1" d="m287.81 577.41l-19.83 0.55q-1.12 0.05-2.24-0.07-1.12-0.12-2.2-0.43-1.08-0.3-2.1-0.78-1.02-0.47-1.95-1.1c-2.15-1.6-3.14-3.77-2.7-5.94l3.9-19.62c0.73-3.7 5.27-6.49 10.78-6.65l10.95-0.3c5.51-0.15 10.19 2.39 11.13 6.05l4.98 19.36c0.55 2.15-0.31 4.37-2.38 6.09q-0.89 0.68-1.88 1.21-0.99 0.53-2.05 0.89-1.07 0.36-2.18 0.55-1.1 0.18-2.23 0.19z"/>
		<path class="s0" d="m232.21 114.82l64.45-1.78 12.14 439.84-64.45 1.78z"/>
		<path class="s1" d="m270.87 325.95l-0.31-15.86 4.16-0.1 0.31 15.81 3.77 230.34-4.16 0.12"/>
		<path class="s0" d="m309.35 153.29l-87.33 2.41c-1.52-9.2 0.45-52.15 8.31-61.75l2.15-11.46 60.3-1.67 3.15 11.17c8.66 7.37 13.13 50.44 13.42 61.3z"/>
		<path class="s0" d="m294.68 82.18l-62.22 1.71c-2.29 0.07-4.19-1.14-4.23-2.69q-0.01-0.08 0-0.17 0-0.08 0.02-0.16 0.01-0.09 0.03-0.17 0.02-0.08 0.04-0.16l9.67-29.77c0.41-1.28 2.06-2.21 3.98-2.27l41.27-1.14c1.92-0.05 3.62 0.79 4.1 2.04l11.29 29.2c0.58 1.49-0.75 3.05-2.98 3.47q-0.12 0.02-0.24 0.04-0.12 0.02-0.24 0.03-0.12 0.02-0.24 0.02-0.12 0.01-0.25 0.02z"/>
		<path class="s1" d="m238.6 323.93q-0.21-0.09-0.41-0.2-0.21-0.1-0.41-0.21-0.2-0.12-0.39-0.24-0.19-0.13-0.37-0.27-0.53-0.37-0.95-0.84-0.43-0.48-0.74-1.04-0.31-0.57-0.49-1.18-0.17-0.62-0.2-1.26l-2.26-81.88c-0.09-3.39 3.22-6.24 7.4-6.35l55.7-1.54c4.17-0.12 7.64 2.55 7.74 5.94l2.26 81.87q0 0.65-0.14 1.27-0.14 0.63-0.41 1.2-0.28 0.58-0.68 1.08-0.41 0.5-0.91 0.9-0.55 0.45-1.17 0.8-0.63 0.36-1.3 0.6-0.67 0.24-1.37 0.37-0.71 0.13-1.42 0.14l-55.7 1.54q-0.49 0.01-0.97-0.02-0.48-0.04-0.96-0.13-0.48-0.09-0.94-0.23-0.46-0.13-0.91-0.32z"/>
		<path class="s3" d="m274.25 76.91l-18.9 0.52c-3.64 0.1-6.73-4.02-6.87-9.19-0.14-5.16 2.71-9.44 6.36-9.55l18.9-0.52c3.64-0.1 6.73 4.02 6.87 9.19 0.14 5.16-2.71 9.45-6.36 9.55z"/>
		<path class="s0" d="m721.01 562.53h-22v-159.88c18.4-1.32 32.23-6.95 32.23-13.71 0-7.73-18.13-14-40.5-14-22.37 0-40.5 6.27-40.5 14 0 6.82 14.1 12.5 32.77 13.75v159.84h-22c-2.12 0-4.16 0.84-5.66 2.34-1.5 1.5-2.34 3.54-2.34 5.66 0 2.12 0.84 4.15 2.34 5.66 1.5 1.5 3.54 2.34 5.66 2.34h60c2.12 0 4.16-0.84 5.66-2.34 1.5-1.51 2.34-3.54 2.34-5.66 0-2.12-0.84-4.16-2.34-5.66-1.5-1.5-3.54-2.34-5.66-2.34z"/>
		<path class="s6" d="m676.85 481.36l-7.23 7.88-33.81-24.13 10.66-11.62 30.38 27.87z"/>
		<path class="s7" d="m658.37 502.15q0.05 1.32 0.36 2.6 0.32 1.29 0.87 2.49 0.56 1.19 1.34 2.26 0.79 1.06 1.76 1.96l0.32 0.29 9.48-10.33 13.82-15.06-10.2-9.37-1.84 2.02-0.2 0.2-9.18 4.35-1.94 0.92-0.34 0.16-0.73 7.86v0.01q-0.9 0.97-1.59 2.1-0.69 1.12-1.14 2.36-0.45 1.25-0.65 2.55-0.2 1.31-0.14 2.63z"/>
		<path class="s6" d="m714.29 559.92l-10.23 3.11-16.85-37.97 15.09-4.58 11.99 39.44z"/>
		<path class="s7" d="m686.8 578.64l0.13 0.42 32.97-10.01-4.02-13.25-2.61 0.79-0.27 0.08-12.26-1.13-0.36-0.03-4.64 6.4c-1.69 0.52-3.25 1.35-4.62 2.47-1.36 1.12-2.48 2.49-3.31 4.05-0.83 1.55-1.35 3.25-1.52 5.01-0.17 1.75 0 3.52 0.51 5.2z"/>
		<path id="ad16ec3e-8c70-4d69-a6df-f9bf45b483f6-1974" class="s7" d="m629.96 361.13c0 0-65.3 63.04-24.02 82.55h12.76q1.04-3.37 2.35-6.65 1.32-3.27 2.9-6.43 1.59-3.15 3.43-6.16 1.84-3.02 3.93-5.86c1.21-1.58 5.72-1.26 6.98-2.8 7.65-9.38 15.95-17.45 21.69-17.13l-1.37 43.56-2.22 15.54c-1.17 8.03 31.72 78.16 31.72 78.16l20.68-8.13c0 0-21.54-57.76-21.8-66.08l17.27-91.57z"/>
		<path class="s3" d="m624.51 364.24q0.13 0.17 0.27 0.34 0.14 0.16 0.3 0.31 0.16 0.14 0.34 0.27 0.18 0.12 0.36 0.23 0.32 0.18 0.64 0.33 0.33 0.15 0.66 0.27 0.34 0.13 0.68 0.23 0.34 0.09 0.7 0.16c14.7 3.34 62.72 10.26 75.19 6.96 1.53-0.4 2.53-0.96 2.85-1.7 1.05-2.34 0.91-12.22 0.3-24.15-0.11-2.23-2.57-4.65-2.72-6.99-0.11-1.75 2.11-3.4 1.99-5.18-0.82-12.06-1.87-24.35-2.57-32.12-0.44-5-0.75-8.12-0.75-8.12l7.59-47.82-0.36-0.58-0.4-0.2-24.45-12.1-1.33-3.41q-0.29-0.73-0.78-1.35-0.5-0.62-1.15-1.06-0.65-0.45-1.4-0.68-0.76-0.24-1.55-0.24l-16.1-0.07q-0.63 0-1.24 0.14-0.61 0.14-1.17 0.43-0.56 0.28-1.04 0.69-0.47 0.41-0.84 0.91l-4.36 6.05-28.86 18.5 0.11 0.34 13.54 41.2 0.07 3.21v0.01l0.5 25.82-1.4 3.5 1.58 5.74c0 0-0.73 6.71-4.61 11.7-3.52 4.53-8.01 9.25-10.03 13.08v0.01c-1.13 2.11-1.5 3.95-0.56 5.34z"/>
		<path id="ef5568b9-6037-4ec0-9cfc-fa22633e4b80-1975" class="s7" d="m602.81 439.94l3.49 4.41c0 0 32.09 22.45 33.2 24.55l5.07 4.8 12.27-13.12-6.38-8q-1.91-2.39-4.09-4.53-2.19-2.14-4.62-4-2.43-1.86-5.07-3.41-2.63-1.55-5.44-2.77l-9.78-8.68z"/>
		<path class="s6" d="m718.42 379.13l-5.84-56.58-1.54-23.28 16.36-2.96c0 0-0.65 16.65 1.49 26.04 2.12 9.27 0.28 55.54 0.15 56.78 2.46 2.2 3.31 5.68 2.13 8.77-1.17 3.08-4.13 5.12-7.43 5.12-3.3 0-6.26-2.03-7.44-5.12-1.18-3.08-0.33-6.57 2.12-8.77z"/>
		<path class="s3" d="m698.94 293.45l4.56 9.75 1.59 3.39 4.28 22.44 2.14 2.27 1.85 7.33 0.86-0.18 15.61-3.23 4.55-0.94q0.77-1.28 1.07-2.75 0.29-1.46 0.08-2.94-0.22-1.48-0.92-2.8-0.7-1.32-1.8-2.33c-0.31-0.29-0.57-0.56-0.56-0.82 0.26-15.6-0.69-44.09-9.31-55.82-2.74-3.72-4.38-7.43-6.77-10.02q-0.01-0.01-0.02-0.01l-5.81-9.53-0.36-0.58-0.4-0.2z"/>
		<path id="af7fa85c-211d-4c02-a612-cf38cfa53f1c" class="s6" d="m672.13 223.56c-11.85 0-21.43-9.58-21.43-21.43 0-11.85 9.58-21.43 21.43-21.43 11.85 0 21.43 9.58 21.43 21.43 0 11.85-9.58 21.43-21.43 21.43z"/>
		<path class="s7" d="m697.58 197.52c0.62-3.6 1.11-8.27-0.69-12.42-1.52-3.49-5.32-6.77-9.54-6.33q0.15-0.59 0.13-1.2-0.01-0.61-0.19-1.19-0.19-0.58-0.52-1.09-0.33-0.51-0.79-0.92-0.52-0.4-1.07-0.74-0.56-0.35-1.15-0.62-0.59-0.28-1.21-0.49-0.62-0.21-1.26-0.35c-3.97-1.17-8.09-2.38-12.33-2.4-4.77-0.03-8.99 1.61-11.58 4.49l-0.07 0.09-0.77 1.85q-0.08 0.19-0.2 0.36-0.11 0.16-0.26 0.3-0.15 0.13-0.33 0.24-0.17 0.1-0.36 0.16-0.19 0.06-0.4 0.08-0.2 0.02-0.4 0-0.2-0.02-0.39-0.09-0.19-0.07-0.37-0.18-0.38-0.23-0.83-0.25-0.45-0.01-0.85 0.2-0.39 0.21-0.63 0.59-0.24 0.38-0.27 0.83l-0.04 0.79-1.11-0.45q-0.43-0.17-0.88-0.1-0.45 0.07-0.81 0.35-0.36 0.29-0.52 0.72-0.16 0.43-0.09 0.88l0.15 0.95q-0.18-0.04-0.36-0.03-0.18 0-0.36 0.04-0.18 0.04-0.35 0.12-0.16 0.07-0.31 0.18-0.21 0.15-0.37 0.37-0.15 0.21-0.23 0.46-0.08 0.25-0.08 0.51 0.01 0.27 0.09 0.52 0.32 0.92 0.76 1.79 0.43 0.87 0.98 1.68 0.54 0.81 1.18 1.54 0.64 0.74 1.36 1.39 0.33 0.29 0.68 0.56 0.35 0.28 0.71 0.53 0.37 0.24 0.75 0.47 0.38 0.22 0.77 0.41 0.33 0.17 0.69 0.32 3.19 1.37 6.5 2.44 3.31 1.08 6.7 1.84 3.39 0.77 6.84 1.23 3.45 0.46 6.92 0.6-0.33 0.62-0.6 1.28-0.27 0.65-0.48 1.33-0.21 0.67-0.36 1.36-0.15 0.7-0.23 1.4-0.1 0.8 0.02 1.59 0.13 0.8 0.46 1.53 0.33 0.73 0.85 1.35 0.52 0.61 1.18 1.07 0.14 0.08 0.29 0.16 0.15 0.07 0.3 0.14 0.15 0.07 0.3 0.13 0.16 0.07 0.31 0.12 0.15 0.06 0.3 0.12 0.15 0.06 0.29 0.13 0.15 0.06 0.29 0.13 0.14 0.08 0.28 0.16c0.54 0.32 0.99 0.79 1.29 1.34 0.31 0.56 0.46 1.19 0.44 1.82-0.01 0.63-0.19 1.25-0.52 1.79-0.33 0.54-0.8 0.99-1.36 1.29-0.56 0.3 1.6 1.95 1.85 1.91q0.38-0.08 0.74-0.23 0.36-0.14 0.7-0.34 0.33-0.2 0.63-0.44 0.3-0.25 0.56-0.54c4.64-4.51 7.74-11.11 9.23-19.63z"/>
		<path class="s4" d="m791.4 528.79l0.93-20.94q3.63-1.94 7.46-3.42 3.84-1.49 7.83-2.5 3.98-1.01 8.06-1.53 4.09-0.52 8.2-0.54c-15.15 12.39-13.26 36.27-23.53 52.93q-2.44 3.88-5.67 7.12-3.24 3.24-7.11 5.68-3.87 2.44-8.19 3.96-4.32 1.52-8.87 2.04l-12.68 7.77c-0.87-4.84-1.21-9.75-1.02-14.66 0.19-4.91 0.91-9.79 2.15-14.54 1.23-4.76 2.98-9.36 5.21-13.74 2.22-4.38 4.92-8.51 8.03-12.31q1.33-1.59 2.76-3.09 1.42-1.5 2.94-2.91 1.52-1.41 3.12-2.72 1.6-1.32 3.28-2.52c3.04 8 7.1 15.92 7.1 15.92z"/>
		<path class="s2" d="m855.16 580.35q0 0.31-0.12 0.6-0.12 0.28-0.34 0.5-0.22 0.22-0.5 0.34-0.29 0.12-0.6 0.12h-852.05c-0.41 0-0.8-0.17-1.1-0.46-0.29-0.29-0.45-0.68-0.45-1.1 0-0.41 0.16-0.8 0.45-1.09 0.3-0.3 0.69-0.46 1.1-0.46h852.05q0.31 0 0.6 0.12 0.28 0.12 0.5 0.33 0.22 0.22 0.34 0.51 0.12 0.28 0.12 0.59z"/>
		<path class="s1" d="m366.5 423.57c-1.12 0.03-2.23-0.16-3.27-0.56-1.04-0.4-2-1-2.81-1.77-0.81-0.77-1.46-1.69-1.91-2.7-0.46-1.02-0.71-2.12-0.74-3.24l-0.67-23.99c-0.06-2.25 0.78-4.43 2.33-6.07 1.55-1.63 3.68-2.59 5.94-2.65 2.25-0.06 4.43 0.77 6.07 2.32 1.64 1.55 2.59 3.68 2.66 5.93l0.66 23.99c0.03 1.12-0.16 2.23-0.56 3.27-0.4 1.04-1 2-1.77 2.81-0.76 0.81-1.68 1.46-2.7 1.92-1.02 0.45-2.12 0.7-3.23 0.74z"/>
		<path class="s2" d="m741.35 511.25q-19.36 0-42.45-1.47c-79.62-5.05-182.74-22.63-290.38-49.49-107.64-26.86-206.93-59.79-279.58-92.73-35.4-16.05-62.56-31.24-80.74-45.15-19.25-14.73-27.66-27.56-25.02-38.15 5.15-20.63 50.73-25.14 88.06-25.3l0.01 3c-51.26 0.21-81.51 8.39-85.16 23.02-4.65 18.64 33.29 47.74 104.09 79.85 72.49 32.86 171.6 65.73 279.07 92.55 107.47 26.82 210.4 44.37 289.84 49.41 77.58 4.93 124.74-2.94 129.39-21.58 3.86-15.47-21.6-38.27-71.69-64.2l1.38-2.66c36.4 18.84 78.65 45.85 73.22 67.59-2.64 10.59-16.1 17.96-40.01 21.92-13.63 2.26-30.37 3.39-50.03 3.39z"/>
		<path class="s2" d="m56.06 491.6c-10.25 0-16.91-2.55-19.86-7.61-5.81-9.98 3.93-27.5 28.94-52.05l2.11 2.14c-23.24 22.81-33.35 40-28.46 48.4 3.1 5.31 12.31 7.21 26.65 5.5 14.24-1.7 33.1-6.76 56.08-15.05 47.29-17.07 106.62-45.86 167.06-81.07 60.44-35.2 114.75-72.61 152.93-105.33 7.33-6.29 13.98-12.33 19.78-17.97q2.85-2.71 5.59-5.53 2.74-2.82 5.36-5.74 2.63-2.93 5.13-5.96 2.51-3.03 4.89-6.15c8.56-11.63 11.45-20.58 8.36-25.9-5.17-8.87-26.89-8.04-61.16 2.36l-0.87-2.87c36.77-11.15 58.51-11.49 64.62-1 3.8 6.52 0.93 16.34-8.53 29.19q-2.42 3.17-4.97 6.25-2.54 3.08-5.21 6.05-2.66 2.97-5.44 5.83-2.79 2.87-5.68 5.62c-5.84 5.68-12.54 11.77-19.92 18.1-38.31 32.83-92.78 70.35-153.37 105.64-60.59 35.3-120.1 64.17-167.56 81.3-23.18 8.37-42.27 13.48-56.73 15.21q-1.21 0.15-2.43 0.27-1.21 0.11-2.43 0.19-1.22 0.08-2.44 0.12-1.22 0.05-2.44 0.06z"/>
		<path class="s0" d="m603.6 368.42c-7.41-0.15-47.24-1.29-53.77-1.01-0.37-1.29-12.75 14.58-13.05 14.67q-0.3 0.33-0.43 0.75-0.12 0.43-0.03 0.87 0.09 0.43 0.37 0.77 0.29 0.35 0.7 0.52c0.72 0.44 64.93-0.74 65.7-0.59q0.26 0 0.5-0.08 0.24-0.07 0.45-0.21 0.21-0.14 0.38-0.33 0.16-0.19 0.27-0.42l0.43-0.96c0.04-1.64 0.58-10.05 0.1-11.48q0.18-0.41 0.14-0.86-0.04-0.45-0.28-0.83-0.24-0.37-0.64-0.59-0.39-0.21-0.84-0.22z"/>
		<path class="s8" d="m605.12 382.4c-0.38 0.91-0.86 2.04-2.03 2l-65.03 0.73q-0.47-0.01-0.87-0.24-0.41-0.23-0.65-0.64-0.24-0.4-0.25-0.87-0.01-0.47 0.21-0.88z"/>
		<path class="s0" d="m550.13 367.22c-0.7-1.21-18.08-87.24-19.53-87.96l-11.87-14.52-1.06-0.8c-1.48-0.81-5.02-0.26-4.7 1.99 2.79 13.37 20.73 89.52 21.12 101.39l2.16 15.13q0.06 0.39 0.27 0.72 0.21 0.33 0.54 0.55 0.33 0.22 0.72 0.29 0.39 0.06 0.77-0.03 0.46-0.05 0.9-0.22 0.43-0.17 0.81-0.44 0.38-0.27 0.68-0.64 0.29-0.36 0.49-0.78c0.16-0.54 9.52-14.37 8.7-14.68z"/>
		<path class="s8" d="m518.72 264.74l22.71 117.16c-0.76 1.92-4.31 3.27-5.14 0.75-0.02-0.01-23.29-116.65-23.32-116.71-0.24-2.81 4.39-2.9 5.75-1.2z"/>
		<path class="s3" d="m519.41 269.53l11.53 16.07 12.94 61.47-6.01 5.25-18.46-82.79z"/>
		<path class="s7" d="m596.16 376.71l3.19 0.13q0.02-0.35 0.06-0.7 0.03-0.35 0.09-0.69 0.06-0.35 0.14-0.69 0.07-0.34 0.17-0.68c0.48-2.28 0.91-4.99-1.08-4.98-1.35-0.13-1.81 1.58-2.05 3.44q-0.02 0.53-0.07 1.05-0.04 0.52-0.11 1.05-0.06 0.52-0.15 1.04-0.08 0.52-0.19 1.03z"/>
		<path class="s7" d="m577.86 372.42l2.15 0.08 1.04 0.04c-0.02-1.14 0.51-3.49-0.78-4.07q-0.08-0.03-0.16-0.06-0.08-0.02-0.16-0.04-0.08-0.02-0.16-0.02-0.09-0.01-0.17-0.01c-1.21-0.07-1.57 0.85-1.68 1.91-0.07 0.64-0.04 1.32-0.06 1.85q0 0.17-0.02 0.32z"/>
		<path class="s7" d="m571.49 372.16l2.16 0.09 1.03 0.04c-0.02-1.31 0.67-4.17-1.43-4.21-1.94-0.11-1.69 2.36-1.74 3.76q0 0.17-0.02 0.32z"/>
		<path class="s7" d="m565.12 371.91l2.15 0.08 1.04 0.04c-0.02-1.3 0.67-4.16-1.43-4.2-1.94-0.12-1.69 2.35-1.74 3.76q0 0.17-0.02 0.32z"/>
		<path class="s7" d="m558.75 371.65l2.16 0.09 1.03 0.04c-0.02-1.31 0.67-4.16-1.43-4.21-1.94-0.11-1.69 2.36-1.74 3.76q0 0.17-0.02 0.32z"/>
		<path class="s7" d="m552.38 371.4l2.15 0.08 1.04 0.04c-0.02-1.2 0.56-3.71-0.98-4.14h-0.01q-0.05-0.02-0.11-0.03-0.05-0.01-0.11-0.02-0.05 0-0.11-0.01-0.06 0-0.11 0-0.07-0.01-0.14-0.01-0.07 0-0.13 0.01-0.07 0.01-0.14 0.02-0.07 0.01-0.13 0.03h-0.01c-1.34 0.35-1.15 2.45-1.19 3.71q0 0.17-0.02 0.32z"/>
		<path class="s7" d="m589.73 370.72l3.19 0.13q0-0.18 0.01-0.4 0.03-0.28 0.05-0.57 0.01-0.29 0.02-0.57 0-0.29 0-0.58-0.01-0.28-0.03-0.57c-0.11-0.84-0.47-1.5-1.48-1.52-1.03-0.06-1.44 0.6-1.6 1.45q-0.02 0.05-0.03 0.11-0.01 0.05-0.02 0.11-0.01 0.05-0.02 0.11-0.01 0.05-0.01 0.11v0.01c-0.08 0.78-0.03 1.62-0.08 2.18z"/>
		<path class="s7" d="m583.36 370.46l3.19 0.13q0.02-0.32 0.04-0.64 0.02-0.33 0.02-0.65 0.01-0.32 0.01-0.64 0-0.33-0.01-0.65c-0.09-0.88-0.44-1.6-1.49-1.62-1.06-0.07-1.47 0.65-1.63 1.54-0.15 0.86-0.07 1.89-0.13 2.53z"/>
		<path class="s7" d="m576.99 370.21l0.95 0.04 2.24 0.09c-0.01-0.48 0.08-1.18 0.09-1.87q0-0.08 0-0.15 0-0.08 0-0.16 0-0.08-0.01-0.16 0-0.07-0.01-0.15c-0.08-0.93-0.41-1.7-1.5-1.72-1.11-0.06-1.5 0.71-1.64 1.65-0.14 0.84-0.06 1.81-0.12 2.43z"/>
		<path class="s7" d="m589.79 376.46l3.19 0.12c-0.01-1.3 0.67-4.16-1.43-4.2-2.1-0.13-1.64 2.77-1.76 4.08z"/>
		<path class="s7" d="m583.42 376.2l3.19 0.13c-0.01-1.31 0.67-4.17-1.43-4.21-2.1-0.12-1.64 2.78-1.76 4.08z"/>
		<path class="s7" d="m577.05 375.95l3.19 0.12c-0.01-0.93 0.34-2.65-0.23-3.57q-0.09-0.15-0.23-0.27-0.13-0.13-0.28-0.21-0.16-0.08-0.34-0.12-0.17-0.04-0.35-0.03-0.12-0.01-0.25 0-0.12 0-0.24 0.03-0.12 0.03-0.23 0.08-0.11 0.05-0.21 0.12c-1.02 0.67-0.73 2.79-0.83 3.85z"/>
		<path class="s7" d="m570.68 375.69l3.19 0.13c-0.01-0.93 0.33-2.64-0.22-3.57q-0.09-0.15-0.23-0.28-0.13-0.12-0.29-0.21-0.16-0.08-0.33-0.12-0.18-0.04-0.36-0.03-0.12-0.01-0.25 0-0.12 0-0.24 0.03-0.12 0.03-0.23 0.08-0.11 0.05-0.21 0.12c-1.02 0.69-0.73 2.8-0.83 3.85z"/>
		<path class="s7" d="m564.31 375.44l3.19 0.12c-0.01-0.93 0.34-2.65-0.23-3.57q-0.09-0.15-0.23-0.27-0.13-0.13-0.28-0.21-0.16-0.08-0.34-0.12-0.17-0.04-0.35-0.03-0.12-0.01-0.25 0-0.12 0-0.24 0.03-0.12 0.03-0.23 0.08-0.11 0.05-0.21 0.12c-1.02 0.67-0.73 2.79-0.83 3.85z"/>
		<path class="s7" d="m557.94 375.18l3.19 0.13c-0.01-0.93 0.33-2.64-0.22-3.57q-0.09-0.16-0.22-0.28-0.14-0.13-0.3-0.21-0.16-0.08-0.33-0.12-0.18-0.04-0.36-0.03-0.12-0.01-0.25 0-0.12 0-0.24 0.03-0.12 0.03-0.23 0.08-0.11 0.05-0.21 0.12c-1.02 0.69-0.73 2.8-0.83 3.85z"/>
		<path class="s7" d="m551.57 374.93l3.19 0.12c-0.01-0.93 0.33-2.64-0.23-3.57q-0.09-0.15-0.22-0.28-0.13-0.12-0.29-0.2-0.16-0.09-0.34-0.12-0.17-0.04-0.35-0.03-0.12-0.01-0.25 0-0.12 0-0.24 0.03-0.12 0.03-0.23 0.08-0.11 0.05-0.21 0.12c-1.02 0.68-0.73 2.79-0.83 3.85z"/>
		<path class="s6" d="m587.59 365.69l24.32-51.42 9.19-21.45-14.45-8.23c0 0-4.92 15.92-10.06 24.07-5.08 8.04-18.72 52.28-19.01 53.49-3.05 1.26-5.01 4.27-4.92 7.57 0.08 3.3 2.2 6.2 5.31 7.3 3.11 1.1 6.57 0.16 8.71-2.35 2.14-2.52 2.5-6.09 0.91-8.98z"/>
		<path class="s3" d="m587.45 318.08l18.38 11.09 4.17-6.3 2.78-1.43 11.5-19.74 10.16-10.35 13.43-42.92-17.47 2.62h-0.03c-3.11 1.66-5.89 4.61-9.71 7.21-12.03 8.19-22.4 34.75-27.34 49.56-0.08 0.24-0.41 0.41-0.8 0.57q-1.37 0.59-2.47 1.61-1.09 1.01-1.79 2.33-0.69 1.33-0.9 2.81-0.21 1.47 0.09 2.94z"/>
	</g>
</svg>