<svg version="1.2" xmlns="http://www.w3.org/2000/svg" viewBox="0 0 772.90945 531.44094" width="773" height="532">
	<title>undraw_charts_lvf9</title>
	<style>
		.s0 { fill: #ffffff } 
		.s1 { fill: #f2f2f2 } 
		.s2 { fill: #3f3d56 } 
		.s3 { fill: #83c65e } 
		.s4 { fill: #cccccc } 
		.s5 { fill: #1a4d29 } 
		.s6 { fill: #ff6584 } 
		.s7 { fill: #ffb8b8 } 
		.s8 { fill: #2f2e41 } 
	</style>
	<path id="Shape 1" fill-rule="evenodd" class="s0" d="m770 29v313h-496v-313z"/>
	<g id="Layer 1">
		<path class="s1" d="m106.07 528.4c-15.26-3.97-29.75-10.46-42.88-19.2-13.12-8.74-24.7-19.61-34.25-32.16-9.54-12.55-16.93-26.61-21.85-41.59-4.93-14.98-7.32-30.68-7.07-46.44 0.12-7.92 0.95-15.99 4.28-23.17 3.32-7.18 9.5-13.39 17.23-15.1 8.43-1.85 17.33 1.94 23.62 7.87 6.28 5.92 10.4 13.73 14.19 21.49 22.84 46.73 40.19 96.88 46.69 148.49z"/>
		<path class="s0" d="m17.7 352.3l16.01 36.37 16 36.37c5.07 11.52 10.13 23.04 15.37 34.48 5.2 11.34 10.57 22.6 16.3 33.68 5.72 11.07 11.8 21.95 18.4 32.52q1.24 1.97 2.49 3.93c0.58 0.91 2.03 0.07 1.45-0.84-6.73-10.49-12.93-21.31-18.74-32.33-5.82-11.03-11.26-22.26-16.5-33.57-5.27-11.38-10.34-22.85-15.39-34.32q-7.97-18.12-15.94-36.24l-16.01-36.37-1.99-4.52c-0.44-0.99-1.88-0.13-1.45 0.84z"/>
		<path class="s1" d="m99.39 528.65c-8.99 2.06-18.27 2.6-27.44 1.61-9.18-1-18.12-3.51-26.47-7.45-8.34-3.94-15.97-9.24-22.57-15.69-6.6-6.45-12.08-13.96-16.21-22.21-2.07-4.14-3.82-8.56-4.03-13.18-0.21-4.63 1.32-9.52 4.87-12.49 3.88-3.24 9.52-3.67 14.38-2.29 4.87 1.37 9.12 4.32 13.18 7.32 24.47 18.1 47.02 39.45 64.32 64.49z"/>
		<path class="s0" d="m5.97 461.08l18.13 14.56 18.13 14.56c5.74 4.61 11.48 9.23 17.29 13.76 5.76 4.48 11.58 8.88 17.55 13.09 5.96 4.2 12.05 8.2 18.33 11.91q1.18 0.69 2.36 1.37c0.54 0.31 1.07-0.52 0.52-0.83-6.32-3.63-12.46-7.57-18.46-11.72-6-4.16-11.85-8.52-17.63-12.98-5.8-4.49-11.53-9.07-17.25-13.67q-9.03-7.25-18.06-14.5l-18.13-14.56-2.25-1.82c-0.49-0.39-1.01 0.44-0.53 0.83z"/>
		<path class="s2" d="m272.91 28.04h499v2h-499z"/>
		<path id="Shape 2" fill-rule="evenodd" class="s0" d="m770.6 1.78l1.4 27.27h-498l-0.2-27.32z"/>
		<path class="s2" d="m289.91 21c-3.32 0-6-2.68-6-6 0-3.32 2.68-6 6-6 3.32 0 6 2.68 6 6 0 3.32-2.68 6-6 6z"/>
		<path class="s2" d="m765.91 0h-487q-1.39 0-2.68 0.53-1.28 0.54-2.27 1.52-0.98 0.99-1.52 2.27-0.53 1.29-0.53 2.68v330q0 1.39 0.53 2.68 0.54 1.28 1.52 2.27 0.99 0.98 2.27 1.52 1.29 0.53 2.68 0.53h487q1.39 0 2.68-0.53 1.28-0.54 2.27-1.52 0.98-0.99 1.51-2.27 0.54-1.29 0.54-2.68v-330q0-1.39-0.54-2.68-0.53-1.28-1.51-2.27-0.99-0.98-2.27-1.52-1.29-0.53-2.68-0.53zm5 337q0 0.99-0.38 1.91-0.38 0.92-1.09 1.62-0.7 0.71-1.62 1.09-0.92 0.38-1.91 0.38h-487q-0.99 0-1.91-0.38-0.92-0.38-1.63-1.09-0.7-0.7-1.08-1.62-0.38-0.92-0.38-1.91v-330q0-0.99 0.38-1.91 0.38-0.92 1.08-1.62 0.71-0.71 1.63-1.09 0.92-0.38 1.91-0.38h487q0.99 0 1.91 0.38 0.92 0.38 1.62 1.09 0.71 0.7 1.09 1.62 0.38 0.92 0.38 1.91z"/>
		<path class="s2" d="m307.16 21c-3.32 0-6-2.68-6-6 0-3.32 2.68-6 6-6 3.32 0 6 2.68 6 6 0 3.32-2.68 6-6 6z"/>
		<path class="s3" d="m324.41 21c-3.32 0-6-2.68-6-6 0-3.32 2.68-6 6-6 3.32 0 6 2.68 6 6 0 3.32-2.68 6-6 6z"/>
		<path class="s4" d="m394.78 74.5h-84c-1.86 0-3.64-0.74-4.95-2.05-1.31-1.31-2.05-3.09-2.05-4.95 0-1.86 0.74-3.64 2.05-4.95 1.31-1.31 3.09-2.05 4.95-2.05h84c1.85 0 3.63 0.74 4.95 2.05 1.31 1.31 2.05 3.09 2.05 4.95 0 1.86-0.74 3.64-2.05 4.95-1.32 1.31-3.1 2.05-4.95 2.05z"/>
		<path class="s4" d="m509.78 108.5h-199c-1.86 0-3.64-0.74-4.95-2.05-1.31-1.31-2.05-3.09-2.05-4.95 0-1.86 0.74-3.64 2.05-4.95 1.31-1.31 3.09-2.05 4.95-2.05h199c1.85 0 3.63 0.74 4.95 2.05 1.31 1.31 2.05 3.09 2.05 4.95 0 1.86-0.74 3.64-2.05 4.95-1.32 1.31-3.1 2.05-4.95 2.05z"/>
		<path class="s3" d="m574 122.02c-9.38 13.67-14.84 29.64-15.8 46.18-0.97 16.55 2.6 33.04 10.33 47.71 7.72 14.66 19.3 26.94 33.49 35.5 14.19 8.56 30.45 13.09 47.02 13.09v-79.44z"/>
		<path class="s5" d="m649.04 82.5c-7.36 0-14.7 0.89-21.84 2.65-7.15 1.76-14.06 4.39-20.57 7.82-6.52 3.43-12.59 7.64-18.09 12.54-5.5 4.89-10.38 10.44-14.54 16.51l75.04 63.04z"/>
		<path class="s2" d="m649.04 265.5h-1v-184h1c24.4 0 47.8 9.69 65.06 26.95 17.25 17.25 26.94 40.65 26.94 65.05 0 24.4-9.69 47.8-26.94 65.05-17.26 17.26-40.66 26.95-65.06 26.95zm1-181.99v179.98c23.7-0.26 46.33-9.86 62.99-26.7 16.67-16.85 26.01-39.59 26.01-63.29 0-23.7-9.34-46.44-26.01-63.29-16.66-16.84-39.29-26.44-62.99-26.7z"/>
		<path class="s5" d="m368.78 303h-17q-0.9 0-1.72-0.34-0.83-0.35-1.46-0.98-0.63-0.63-0.98-1.46-0.34-0.83-0.34-1.72v-49q0-0.89 0.34-1.72 0.35-0.83 0.98-1.46 0.63-0.63 1.46-0.98 0.82-0.34 1.72-0.34h17q0.89 0 1.72 0.34 0.82 0.35 1.46 0.98 0.63 0.63 0.97 1.46 0.34 0.83 0.35 1.72v49q-0.01 0.89-0.35 1.72-0.34 0.83-0.97 1.46-0.64 0.63-1.46 0.98-0.83 0.34-1.72 0.34z"/>
		<path class="s6" d="m418.78 303h-17q-0.9 0-1.72-0.34-0.83-0.35-1.46-0.98-0.63-0.63-0.98-1.46-0.34-0.83-0.34-1.72v-72q0-0.89 0.34-1.72 0.35-0.83 0.98-1.46 0.63-0.63 1.46-0.98 0.82-0.34 1.72-0.34h17q0.89 0 1.72 0.34 0.82 0.35 1.46 0.98 0.63 0.63 0.97 1.46 0.34 0.83 0.35 1.72v72q-0.01 0.89-0.35 1.72-0.34 0.83-0.97 1.46-0.64 0.63-1.46 0.98-0.83 0.34-1.72 0.34z"/>
		<path class="s3" d="m468.78 303h-17q-0.9 0-1.72-0.34-0.83-0.35-1.46-0.98-0.63-0.63-0.98-1.46-0.34-0.83-0.34-1.72v-92q0-0.89 0.34-1.72 0.35-0.83 0.98-1.46 0.63-0.63 1.46-0.98 0.82-0.34 1.72-0.34h17q0.89 0 1.72 0.34 0.82 0.35 1.46 0.98 0.63 0.63 0.97 1.46 0.34 0.83 0.35 1.72v92q-0.01 0.89-0.35 1.72-0.34 0.83-0.97 1.46-0.64 0.63-1.46 0.98-0.83 0.34-1.72 0.34z"/>
		<path class="s2" d="m368.78 303.5h-17q-1 0-1.91-0.38-0.92-0.38-1.63-1.09-0.7-0.7-1.08-1.62-0.38-0.92-0.38-1.91v-110q0-0.99 0.38-1.91 0.38-0.92 1.08-1.62 0.71-0.71 1.63-1.09 0.91-0.38 1.91-0.38h17q0.99 0 1.91 0.38 0.92 0.38 1.62 1.09 0.7 0.7 1.09 1.62 0.37 0.92 0.38 1.91v110q-0.01 0.99-0.38 1.91-0.39 0.92-1.09 1.62-0.7 0.71-1.62 1.09-0.92 0.38-1.91 0.38zm-17-118q-0.6 0-1.15 0.23-0.55 0.23-0.97 0.65-0.42 0.42-0.65 0.97-0.23 0.55-0.23 1.15v110q0 0.6 0.23 1.15 0.23 0.55 0.65 0.97 0.42 0.42 0.97 0.65 0.55 0.23 1.15 0.23h17q0.59 0 1.15-0.23 0.55-0.23 0.97-0.65 0.42-0.42 0.65-0.97 0.23-0.55 0.23-1.15v-110q0-0.6-0.23-1.15-0.23-0.55-0.65-0.97-0.42-0.42-0.97-0.65-0.56-0.23-1.15-0.23z"/>
		<path class="s2" d="m418.78 303.5h-17q-1 0-1.91-0.38-0.92-0.38-1.63-1.09-0.7-0.7-1.08-1.62-0.38-0.92-0.38-1.91v-110q0-0.99 0.38-1.91 0.38-0.92 1.08-1.62 0.71-0.71 1.63-1.09 0.91-0.38 1.91-0.38h17q0.99 0 1.91 0.38 0.92 0.38 1.62 1.09 0.7 0.7 1.09 1.62 0.37 0.92 0.38 1.91v110q-0.01 0.99-0.38 1.91-0.39 0.92-1.09 1.62-0.7 0.71-1.62 1.09-0.92 0.38-1.91 0.38zm-17-118q-0.6 0-1.15 0.23-0.55 0.23-0.97 0.65-0.42 0.42-0.65 0.97-0.23 0.55-0.23 1.15v110q0 0.6 0.23 1.15 0.23 0.55 0.65 0.97 0.42 0.42 0.97 0.65 0.55 0.23 1.15 0.23h17q0.59 0 1.15-0.23 0.55-0.23 0.97-0.65 0.42-0.42 0.65-0.97 0.23-0.55 0.23-1.15v-110q0-0.6-0.23-1.15-0.23-0.55-0.65-0.97-0.42-0.42-0.97-0.65-0.56-0.23-1.15-0.23z"/>
		<path class="s2" d="m468.78 303.5h-17q-1 0-1.91-0.38-0.92-0.38-1.63-1.09-0.7-0.7-1.08-1.62-0.38-0.92-0.38-1.91v-110q0-0.99 0.38-1.91 0.38-0.92 1.08-1.62 0.71-0.71 1.63-1.09 0.91-0.38 1.91-0.38h17q0.99 0 1.91 0.38 0.92 0.38 1.62 1.09 0.7 0.7 1.09 1.62 0.37 0.92 0.38 1.91v110q-0.01 0.99-0.38 1.91-0.39 0.92-1.09 1.62-0.7 0.71-1.62 1.09-0.92 0.38-1.91 0.38zm-17-118q-0.6 0-1.15 0.23-0.55 0.23-0.97 0.65-0.42 0.42-0.65 0.97-0.23 0.55-0.23 1.15v110q0 0.6 0.23 1.15 0.23 0.55 0.65 0.97 0.42 0.42 0.97 0.65 0.55 0.23 1.15 0.23h17q0.59 0 1.15-0.23 0.55-0.23 0.97-0.65 0.42-0.42 0.65-0.97 0.23-0.55 0.23-1.15v-110q0-0.6-0.23-1.15-0.23-0.55-0.65-0.97-0.42-0.42-0.97-0.65-0.56-0.23-1.15-0.23z"/>
		<path class="s7" d="m112.43 359c0.39-1.42 0.46-2.9 0.22-4.35-0.25-1.45-0.82-2.83-1.65-4.03-0.84-1.21-1.93-2.22-3.2-2.96-1.27-0.74-2.69-1.2-4.15-1.33l-8.6-34.68-12.59 13.65 10.1 30.84c-0.06 2.48 0.78 4.89 2.38 6.78 1.6 1.89 3.83 3.13 6.28 3.48 2.45 0.35 4.95-0.21 7.01-1.57 2.07-1.36 3.56-3.44 4.2-5.83z"/>
		<path class="s8" d="m89.37 348.33q-0.43-0.18-0.82-0.45-0.39-0.27-0.72-0.61-0.32-0.35-0.57-0.75-0.25-0.41-0.4-0.85l-14.36-44.18q-1.38-3.95-2.03-8.08-0.65-4.13-0.55-8.31 0.09-4.18 0.94-8.27 0.84-4.1 2.4-7.98l13.84-34.35c0.63-3.8 2.74-7.19 5.87-9.43 3.13-2.23 7.02-3.14 10.82-2.5 3.79 0.63 7.18 2.74 9.42 5.88 2.23 3.13 3.13 7.02 2.49 10.81l-19.09 55.56 6.68 45.24q0.07 0.69-0.07 1.37-0.15 0.68-0.49 1.28-0.34 0.61-0.85 1.08-0.5 0.47-1.13 0.77l-7.71 3.68q-0.3 0.15-0.63 0.25-0.33 0.1-0.67 0.15-0.33 0.04-0.68 0.04-0.34 0-0.67-0.06-0.13-0.02-0.26-0.05-0.13-0.03-0.26-0.06-0.13-0.04-0.25-0.08-0.12-0.04-0.25-0.1z"/>
		<path class="s7" d="m160.34 518.44h12.26l5.83-47.29h-18.09v47.29z"/>
		<path class="s8" d="m196.25 529.83h-38.53v-14.89h23.64c1.95 0 3.89 0.38 5.7 1.13 1.8 0.75 3.44 1.85 4.83 3.23 1.38 1.38 2.48 3.02 3.22 4.83 0.75 1.8 1.14 3.74 1.14 5.7z"/>
		<path class="s7" d="m99.34 518.44h12.26l5.83-47.29h-18.09v47.29z"/>
		<path class="s8" d="m135.25 529.83h-38.53v-14.89h23.64c1.95 0 3.89 0.38 5.7 1.13 1.8 0.75 3.44 1.85 4.83 3.23 1.38 1.38 2.48 3.02 3.22 4.83 0.75 1.8 1.14 3.74 1.14 5.7z"/>
		<path class="s8" d="m163.69 325.71l10.78 85.39q2.22 17.6 3.11 35.34l2.9 58.07q0.04 0.82-0.24 1.59-0.29 0.77-0.85 1.37-0.57 0.59-1.32 0.92-0.76 0.32-1.58 0.32h-16.36q-0.71 0-1.39-0.25-0.67-0.25-1.21-0.72-0.55-0.46-0.9-1.09-0.34-0.63-0.45-1.34l-14.71-96.91c-0.07-0.47-0.31-0.9-0.66-1.21-0.36-0.31-0.81-0.48-1.29-0.49-0.47-0.01-0.93 0.15-1.29 0.45-0.37 0.3-0.62 0.72-0.71 1.18l-17.72 94.92q-0.13 0.64-0.46 1.2-0.33 0.57-0.82 1-0.49 0.43-1.09 0.68-0.6 0.25-1.25 0.3l-15.06 0.96q-0.84 0.06-1.64-0.23-0.8-0.29-1.42-0.88-0.61-0.58-0.93-1.37-0.32-0.79-0.3-1.64l4.86-155.56z"/>
		<path class="s7" d="m115.95 204.09c-13.59 0-24.56-10.98-24.56-24.56 0-13.58 10.97-24.56 24.56-24.56 13.58 0 24.56 10.98 24.56 24.56 0 13.58-10.98 24.56-24.56 24.56z"/>
		<path class="s3" d="m96.69 349.71c6 14 32 24 38 4 4.64-15.46 23.02-21.96 31.13-24.11q0.77-0.2 1.4-0.68 0.63-0.48 1.03-1.16 0.4-0.68 0.51-1.47 0.12-0.78-0.08-1.55l-22.67-89.05c-0.65-2.58-1.64-5.07-2.93-7.4-1.29-2.34-2.87-4.5-4.7-6.43-1.84-1.93-3.92-3.62-6.18-5.02-2.26-1.41-4.7-2.52-7.25-3.31-18.02-5.58-37.02 5.91-40.07 24.52q-0.31 1.96-0.56 3.92-0.26 1.97-0.46 3.94-0.2 1.97-0.34 3.95-0.14 1.97-0.23 3.95c-1.88 39.29 9.45 86.68 13.4 95.9z"/>
		<path class="s7" d="m178.08 349.69c-0.14-1.47-0.61-2.88-1.36-4.14-0.75-1.27-1.77-2.35-2.99-3.18-1.21-0.82-2.6-1.37-4.05-1.61-1.45-0.23-2.93-0.14-4.35 0.26l-20.49-29.28-6.84 17.27 20.51 25.15c0.83 2.33 2.49 4.28 4.66 5.47 2.17 1.19 4.7 1.54 7.11 0.99 2.42-0.55 4.54-1.97 5.98-3.99 1.44-2.01 2.09-4.48 1.82-6.94z"/>
		<path class="s8" d="m152.73 348.02q-0.47-0.01-0.93-0.13-0.46-0.11-0.89-0.31-0.43-0.21-0.8-0.5-0.38-0.29-0.68-0.65l-29.28-36.06q-2.71-3.19-4.8-6.81-2.09-3.62-3.5-7.55-1.41-3.94-2.1-8.06-0.68-4.13-0.62-8.31l0.56-37.03c-0.77-3.77-0.02-7.69 2.1-10.9 2.11-3.21 5.42-5.45 9.19-6.23 3.76-0.77 7.68-0.02 10.9 2.1 3.21 2.12 5.44 5.43 6.21 9.19l2.16 58.71 22.5 39.81q0.31 0.63 0.42 1.31 0.11 0.68 0.01 1.37-0.11 0.69-0.41 1.31-0.3 0.63-0.77 1.13l-5.88 6.2q-0.23 0.25-0.5 0.46-0.27 0.21-0.57 0.38-0.3 0.16-0.62 0.28-0.32 0.12-0.65 0.19-0.13 0.03-0.26 0.05-0.13 0.02-0.26 0.03-0.13 0.01-0.26 0.02-0.13 0-0.27 0z"/>
		<path class="s8" d="m97.3 199.62q0.81 0.47 1.74 0.55 0.93 0.07 1.8-0.28 0.87-0.35 1.49-1.04 0.62-0.7 0.88-1.6l0.01-0.05c0.45-1.87 0.08-3.82-0.05-5.73-0.13-1.91 0.06-4.01 1.36-5.42 2.43-2.62 6.75-1.23 10.26-1.89q1.54-0.35 2.86-1.21 1.32-0.87 2.25-2.15 0.93-1.27 1.35-2.8 0.42-1.52 0.28-3.09-0.08-0.6-0.22-1.2c-0.22-1.01-0.2-2.05 0.05-3.05 0.25-1 0.73-1.93 1.41-2.71 0.67-0.78 1.51-1.4 2.46-1.8 0.95-0.41 1.98-0.58 3.01-0.52 3.55 0.2 7.38 1.28 10.31-1.35q0.81-0.78 1.36-1.75 0.55-0.98 0.79-2.07 0.24-1.1 0.16-2.22-0.08-1.11-0.48-2.16c-1.68-4.84-6.42-7.37-11.1-8.76q-4.35-1.26-8.87-1.53-4.52-0.27-8.99 0.47-4.46 0.73-8.66 2.43-4.19 1.7-7.91 4.28c-2.96 2.08-5.73 4.71-6.99 8.1-1.26 3.4-0.66 7.68 2.19 9.92q-1.65 1.76-2.8 3.87-1.14 2.13-1.7 4.47-0.56 2.34-0.5 4.75 0.07 2.41 0.75 4.72c1.41 4.53 8.12 8.87 11.5 10.82z"/>
		<path class="s2" d="m276.11 531.44h-265q-0.42 0-0.71-0.29-0.29-0.3-0.29-0.71 0-0.41 0.29-0.71 0.29-0.28 0.71-0.29h265q0.41 0.01 0.7 0.29 0.29 0.3 0.3 0.71-0.01 0.41-0.3 0.71-0.29 0.29-0.7 0.29z"/>
	</g>
</svg>