<svg version="1.2" xmlns="http://www.w3.org/2000/svg" viewBox="0 0 809.67538 462.57748" width="810" height="463">
	<title>undraw_working_n9u0</title>
	<style>
		.s0 { fill: #f0f0f0 } 
		.s1 { fill: #e6e6e6 } 
		.s2 { fill: #f2f2f2 } 
		.s3 { fill: #cacaca } 
		.s4 { fill: #cccccc } 
		.s5 { fill: #e4e4e4 } 
		.s6 { fill: #ffffff } 
		.s7 { fill: #3f3d56 } 
		.s8 { fill: #9e616a } 
		.s9 { fill: #2f2e41 } 
		.s10 { fill: #83c65e } 
		.s11 { fill: #ffb6b6 } 
		.s12 { fill: #ffb8b8 } 
	</style>
	<g id="Layer 1">
		<path class="s0" d="m133.09 210.33v-130c0-1.86 0.74-3.64 2.05-4.95 1.31-1.32 3.09-2.05 4.95-2.05 1.85 0 3.63 0.73 4.95 2.05 1.31 1.31 2.05 3.09 2.05 4.95v130c0 1.85-0.74 3.63-2.05 4.95-1.32 1.31-3.1 2.05-4.95 2.05-1.86 0-3.64-0.74-4.95-2.05-1.31-1.32-2.05-3.1-2.05-4.95z"/>
		<path class="s0" d="m116.34 210.33v-130c0-1.86 0.74-3.64 2.05-4.95 1.31-1.32 3.09-2.05 4.95-2.05 1.85 0 3.63 0.73 4.95 2.05 1.31 1.31 2.05 3.09 2.05 4.95v130c0 1.85-0.74 3.63-2.05 4.95-1.32 1.31-3.1 2.05-4.95 2.05-1.86 0-3.64-0.74-4.95-2.05-1.31-1.32-2.05-3.1-2.05-4.95z"/>
		<path class="s0" d="m99.59 210.33v-130c0-1.86 0.74-3.64 2.05-4.95 1.31-1.32 3.09-2.05 4.95-2.05 1.85 0 3.63 0.73 4.95 2.05 1.31 1.31 2.05 3.09 2.05 4.95v130c0 1.85-0.74 3.63-2.05 4.95-1.32 1.31-3.1 2.05-4.95 2.05-1.86 0-3.64-0.74-4.95-2.05-1.31-1.32-2.05-3.1-2.05-4.95z"/>
		<path class="s1" d="m731.99 417.96q-1.05 0-2.1-0.09-1.06-0.09-2.1-0.27-1.03-0.18-2.06-0.45-1.02-0.27-2.01-0.62l-0.41-0.15 0.19-0.9c-4.75-9.61-3.09-22.76 4.25-33.57 6.68-9.83 16.83-16.98 25.79-23.29 1.14-0.8 2.49-1.24 3.88-1.26 1.39-0.03 2.75 0.36 3.92 1.11 1.16 0.76 2.08 1.85 2.62 3.13 0.54 1.28 0.69 2.69 0.43 4.05l-3.21 16.44c-2.31 11.85-5.06 23.07-13.21 30.07q-1.67 1.39-3.55 2.48-1.89 1.08-3.93 1.83-2.04 0.74-4.18 1.12-2.14 0.37-4.32 0.37z"/>
		<path class="s1" d="m752.97 446.36q-2.33-0.01-4.58-0.6-2.25-0.59-4.29-1.71-2.04-1.12-3.74-2.71-1.7-1.59-2.95-3.54l-0.24-0.37 0.56-0.48c1.43-7.82 8.17-14.79 17.22-17.78 8.22-2.73 17.3-2.28 25.31-1.89 1.06 0.05 2.08 0.42 2.93 1.05 0.85 0.63 1.49 1.5 1.85 2.5 0.35 0.99 0.41 2.07 0.15 3.1-0.26 1.03-0.82 1.95-1.61 2.66l-9 8.14c-6.55 5.9-13.08 11.24-20.95 11.62q-0.33 0.01-0.66 0.01z"/>
		<path class="s2" d="m725.01 455.05c-1.33-9.9-2.69-19.93-1.76-29.95 0.83-8.89 3.48-17.57 8.88-24.69q1.07-1.41 2.26-2.72 1.18-1.31 2.48-2.51 1.3-1.2 2.69-2.28 1.4-1.09 2.88-2.04c1.03-0.67 1.98 1 0.96 1.66q-2.57 1.67-4.84 3.71-2.27 2.05-4.19 4.42-1.93 2.37-3.46 5.02-1.53 2.64-2.63 5.49c-3.29 8.56-3.81 17.88-3.25 26.97 0.35 5.5 1.07 10.96 1.8 16.41q0.05 0.18 0.02 0.37-0.02 0.19-0.11 0.35-0.1 0.17-0.24 0.29-0.15 0.12-0.32 0.18-0.19 0.05-0.37 0.02-0.19-0.02-0.36-0.12-0.16-0.09-0.27-0.24-0.12-0.15-0.17-0.34z"/>
		<path class="s2" d="m721.25 460.75c6.41-11.58 13.83-24.46 27.1-28.57q1.38-0.43 2.79-0.72 1.42-0.29 2.85-0.44 1.44-0.15 2.88-0.16 1.44-0.01 2.88 0.12c1.21 0.1 0.91 2.01-0.3 1.9q-2.4-0.2-4.8 0.02-2.4 0.22-4.73 0.85-2.32 0.63-4.5 1.65-2.19 1.02-4.16 2.4c-5.13 3.57-9.12 8.53-12.5 13.8-2.07 3.22-3.93 6.58-5.78 9.93-0.59 1.08-2.33 0.3-1.73-0.78z"/>
		<path class="s3" d="m718.37 460.58l6.47 0.15-38.98-208.24-6.47 1.22 10.18 54.02h-32.79l10.18-54.02-6.47-1.22-38.65 208.24 6.14-0.15 20.32-107.85h49.75zm-68.57-115.86l5.47-29h35.81l5.46 29z"/>
		<path class="s0" d="m436.09 213.64v-68.38c0-2.03 3.14-3.68 7-3.68 3.86 0 7 1.65 7 3.68v68.38c0 2.03-3.14 3.69-7 3.69-3.86 0-7-1.66-7-3.69z"/>
		<path class="s0" d="m419.34 213.64v-68.38c0-2.03 3.14-3.68 7-3.68 3.86 0 7 1.65 7 3.68v68.38c0 2.03-3.14 3.69-7 3.69-3.86 0-7-1.66-7-3.69z"/>
		<path class="s0" d="m402.59 213.64v-68.38c0-2.03 3.14-3.68 7-3.68 3.86 0 7 1.65 7 3.68v68.38c0 2.03-3.14 3.69-7 3.69-3.86 0-7-1.66-7-3.69z"/>
		<path class="s4" d="m543.5 163.35q-0.02-0.15-0.08-0.3-0.05-0.15-0.14-0.28-0.08-0.13-0.19-0.25-0.11-0.11-0.24-0.19l-52.78-34.84q0.3-0.13 0.57-0.3 0.27-0.17 0.52-0.38 0.24-0.21 0.44-0.46 0.2-0.25 0.37-0.52 0.39-0.69 0.49-1.48 0.11-0.79-0.1-1.56-0.21-0.76-0.69-1.4-0.48-0.63-1.17-1.03l-4.33-2.5q-0.69-0.39-1.48-0.49-0.78-0.11-1.55 0.1-0.77 0.21-1.4 0.69-0.63 0.48-1.03 1.17-0.11 0.19-0.2 0.38-0.08 0.2-0.15 0.41-0.06 0.21-0.1 0.42-0.04 0.21-0.06 0.43l-38.09-25.15q-0.96-2.32-2.4-4.38-1.44-2.07-3.29-3.77-1.84-1.7-4.02-2.97-2.17-1.27-4.56-2.03v-11.09h-14v11.09c-2.31 0.73-4.49 1.83-6.45 3.25-1.97 1.42-3.7 3.14-5.13 5.09-1.42 1.96-2.54 4.13-3.29 6.43-0.75 2.31-1.13 4.71-1.13 7.14v3h14c0 2.38 0.95 4.67 2.63 6.36 1.69 1.69 3.98 2.64 6.37 2.64 2.38 0 4.67-0.95 6.36-2.64 1.69-1.69 2.64-3.98 2.64-6.36h14v-3q0-0.54-0.03-1.08-0.02-0.54-0.07-1.07-0.06-0.54-0.13-1.08-0.08-0.53-0.18-1.06l96.37 63.62-40.03 48.67q-0.46 0-0.93 0-4.8 0-9.24 0.2 0.07-0.18 0.11-0.37 0.05-0.19 0.08-0.39 0.03-0.19 0.04-0.39 0.01-0.19 0-0.39-0.05-0.79-0.39-1.51-0.34-0.72-0.93-1.25-0.59-0.53-1.34-0.8-0.75-0.26-1.54-0.23l-5 0.26q-0.79 0.05-1.51 0.39-0.71 0.34-1.25 0.93-0.53 0.59-0.8 1.34-0.26 0.75-0.22 1.55 0.01 0.23 0.05 0.46 0.04 0.23 0.11 0.45 0.07 0.23 0.16 0.44 0.1 0.22 0.22 0.42c-8.83 0.94-14.55 2.23-14.55 2.89 0 1.08 15.36 0.05 34.59 0q0.14 0.38 0.44 0.64 0.31 0.26 0.71 0.33 0.4 0.07 0.78-0.07 0.38-0.14 0.64-0.45l0.37-0.45c19.17 0.05 34.47 1.07 34.47 0 0-1.02-13.6-3.54-31.23-3.95l39.57-48.1q0.1-0.12 0.17-0.26 0.07-0.14 0.11-0.29 0.05-0.16 0.06-0.31 0.01-0.16-0.02-0.32z"/>
		<path class="s5" d="m544.95 461.08h-123.22c-1.23 0-2.45-0.25-3.59-0.72-1.14-0.47-2.18-1.16-3.05-2.04-0.87-0.87-1.56-1.9-2.03-3.04-0.48-1.14-0.72-2.36-0.72-3.59v-202.22c0-1.1-0.22-2.19-0.64-3.21-0.43-1.02-1.04-1.94-1.82-2.72-0.78-0.78-1.71-1.4-2.72-1.82-1.02-0.42-2.11-0.64-3.21-0.64h-288.22c-1.1 0-2.19 0.22-3.21 0.64-1.02 0.42-1.94 1.04-2.72 1.82-0.78 0.78-1.4 1.7-1.82 2.72-0.42 1.02-0.64 2.11-0.64 3.21v202.22c0 1.23-0.25 2.45-0.72 3.59-0.47 1.14-1.16 2.17-2.04 3.04-0.87 0.88-1.9 1.57-3.04 2.04-1.14 0.47-2.36 0.72-3.59 0.72h-4.22c-1.23 0-2.45-0.25-3.59-0.72-1.14-0.47-2.18-1.16-3.05-2.04-0.87-0.87-1.56-1.9-2.03-3.04-0.48-1.14-0.72-2.36-0.72-3.59v-213.11c0-2.96 0.59-5.88 1.72-8.61 1.13-2.73 2.79-5.21 4.88-7.29 2.08-2.09 4.56-3.75 7.29-4.88 2.73-1.13 5.65-1.72 8.61-1.72h425c2.95 0 5.88 0.59 8.6 1.72 2.73 1.13 5.21 2.79 7.3 4.88 2.09 2.08 3.75 4.56 4.88 7.29 1.13 2.73 1.71 5.65 1.72 8.61v213.11c0 1.23-0.25 2.45-0.72 3.59-0.47 1.14-1.16 2.17-2.04 3.04-0.87 0.88-1.9 1.57-3.04 2.04-1.14 0.47-2.36 0.72-3.59 0.72z"/>
		<path class="s6" d="m412.84 268.58h141v6h-141z"/>
		<path class="s6" d="m412.84 349.58h141v6h-141z"/>
		<path class="s1" d="m296.12 215.09l-4.05-1.71-2.78-20.31h-37.02l-3.01 20.23-3.63 1.81q-0.27 0.14-0.39 0.41-0.13 0.27-0.06 0.56 0.07 0.29 0.3 0.48 0.24 0.18 0.53 0.18h49.78q0.3 0 0.54-0.19 0.24-0.2 0.3-0.5 0.06-0.3-0.08-0.57-0.15-0.27-0.43-0.39z"/>
		<path class="s4" d="m361.91 195.77h-181.85q-0.72 0-1.38-0.27-0.66-0.28-1.17-0.79-0.5-0.5-0.78-1.16-0.27-0.67-0.27-1.38v-25.65h189.04v25.65q0 0.71-0.27 1.38-0.27 0.66-0.78 1.16-0.51 0.51-1.16 0.79-0.67 0.27-1.38 0.27z"/>
		<path class="s7" d="m365.69 178.64h-189.4v-109.72q0.01-0.86 0.34-1.66 0.33-0.8 0.94-1.41 0.61-0.61 1.41-0.94 0.79-0.33 1.66-0.33h180.71q0.86 0 1.66 0.33 0.8 0.33 1.41 0.94 0.61 0.61 0.94 1.41 0.33 0.8 0.33 1.66z"/>
		<path class="s6" d="m354.38 170.68h-166.77q-0.67 0-1.28-0.25-0.62-0.26-1.09-0.73-0.47-0.47-0.73-1.09-0.25-0.61-0.25-1.28v-91.44q0-0.67 0.25-1.28 0.26-0.62 0.73-1.09 0.47-0.47 1.09-0.72 0.61-0.26 1.28-0.26h166.77q0.67 0 1.28 0.26 0.62 0.25 1.09 0.72 0.47 0.47 0.72 1.09 0.26 0.61 0.26 1.28v91.44q0 0.67-0.26 1.28-0.25 0.62-0.72 1.09-0.47 0.47-1.09 0.73-0.61 0.25-1.28 0.25z"/>
		<path class="s8" d="m541.34 83.04c1.59-0.23 3.22-0.11 4.76 0.36 1.55 0.46 2.97 1.26 4.17 2.34 1.2 1.08 2.15 2.4 2.78 3.88 0.63 1.49 0.93 3.09 0.88 4.7l36.57 14.07-16.57 11.84-32.18-15.18c-2.7-0.27-5.21-1.52-7.05-3.52-1.84-1.99-2.88-4.59-2.93-7.3-0.05-2.72 0.89-5.36 2.66-7.42 1.76-2.06 4.22-3.4 6.91-3.77z"/>
		<path class="s5" d="m680.18 76.13l6.18 11.25q-0.55 2.65-1.55 5.18-0.99 2.52-2.39 4.85-1.4 2.32-3.16 4.38-1.77 2.06-3.86 3.8c-9.47 7.98-58.99 37.73-58.99 37.73l-62.52-31.38 10.94-14.53 49.08 16.44q6.8-6.42 14.31-12.01 7.5-5.6 15.61-10.28 8.1-4.68 16.69-8.4 8.59-3.71 17.55-6.4z"/>
		<path class="s3" d="m668.67 262.23c-26.98 0-48.79-7.1-48.79-15.89 0-8.8 21.81-15.9 48.79-15.9 26.99 0 48.8 7.1 48.8 15.9 0 8.79-21.81 15.89-48.8 15.89z"/>
		<path class="s8" d="m559.22 447.11l-12.96-3.59 7.65-51.67 19.12 5.28-13.81 49.98z"/>
		<path class="s9" d="m559.05 460.58l-41.78-11.55 0.15-0.53c0.59-2.13 1.6-4.13 2.96-5.88 1.36-1.75 3.05-3.21 4.98-4.3 1.93-1.09 4.05-1.79 6.25-2.07 2.2-0.27 4.43-0.1 6.56 0.49h0.01l25.51 7.05z"/>
		<path class="s8" d="m521.65 447.27l-12.29-5.43 15.09-50.01 18.15 8.01-20.95 47.43z"/>
		<path class="s9" d="m519.53 460.58l-39.65-17.51 0.22-0.5c0.89-2.03 2.18-3.86 3.78-5.39 1.6-1.53 3.49-2.73 5.56-3.53 2.06-0.8 4.27-1.18 6.48-1.13 2.22 0.05 4.4 0.54 6.42 1.43h0.01l24.21 10.69z"/>
		<path class="s9" d="m706.65 207.47c0 0 6.51 20.19-33.48 45.73l-51.5 51.32-53.51 128-31.77-14.24 6.23-16.63 4.18-11.16 2.14-5.71 2.3-6.12 34.01-90.79 28.57-50.02 0.83-27.15 7.02-19.13 50.99-18.09z"/>
		<path class="s9" d="m680.65 208.47c0 0 6.51 20.19-33.48 45.73l-51.5 51.32-53.51 128-31.77-14.24 6.23-16.63 4.18-11.16 2.14-5.71 2.3-6.12 34.01-90.79 9.56-16.75q4.73-8.28 9.97-16.24 5.23-7.97 10.95-15.6 5.73-7.62 11.91-14.87 6.19-7.25 12.82-14.1l9.38-9.7 1-15 21.82-12.13z"/>
		<path class="s5" d="m649.84 109.61l16-34 27.92-3.81c0 0 21.8 27.78 16.08 66.81-2.15 14.64-3.9 29.21-4 42-0.03 3.4 2.95 4.92 3 8 0.05 3.02-5.65 7.95-4 10q0.87 1.06 1.57 2.23 0.71 1.18 1.21 2.46 0.51 1.27 0.82 2.61 0.3 1.33 0.4 2.7c-1.98 4.72-61.96-20.83-87.17-17.04z"/>
		<path class="s8" d="m689.5 54.69c-7.14 12-22.61 15.94-34.62 8.8-12-7.14-15.94-22.61-8.8-34.61 7.13-12.01 22.61-15.94 34.61-8.81 12.01 7.14 15.94 22.61 8.81 34.62z"/>
		<path class="s9" d="m683.93 32.71c-0.05 0.67-0.11 1.55-0.19 2.54q-0.03 1.02 0.1 2.03 0.13 1.01 0.41 1.98 0.27 0.98 0.7 1.9 0.43 0.93 0.99 1.77c1.41 2.39-0.27 16.82-0.27 16.82 41.36-28.83 8.68-57.8-4.11-55.23 0.27-3.66-10.16-2.21-10.16-2.21-3.97-6.19-12.68 2.02-12.68 2.02l1.68-2.82c-6.76 1.72-13.44 22.61-13.44 22.61 2.29 9.02 37.24 4.93 36.97 8.59z"/>
		<path class="s4" d="m523.45 122.99q5.33-7.08 10.09-14.55 4.77-7.47 8.95-15.27 4.19-7.81 7.76-15.92 3.58-8.1 6.53-16.45 0.34-1.01 0.31-2.06-0.02-1.06-0.41-2.05-0.38-0.98-1.08-1.77-0.71-0.79-1.64-1.29l-48.64-26.07q-0.59-0.32-1.24-0.5-0.65-0.17-1.32-0.2-0.67-0.03-1.32 0.1-0.66 0.12-1.28 0.39-0.62 0.27-1.17 0.68-0.55 0.41-0.99 0.92-0.45 0.52-0.76 1.13-0.31 0.6-0.48 1.26-2.12 8.04-5.16 15.77-3.04 7.73-6.97 15.05-3.92 7.33-8.67 14.14-4.76 6.81-10.27 13.03-0.46 0.5-0.79 1.1-0.33 0.6-0.51 1.25-0.19 0.66-0.23 1.34-0.03 0.68 0.09 1.35 0.12 0.66 0.38 1.28 0.26 0.62 0.65 1.16 0.4 0.54 0.9 0.98 0.51 0.44 1.1 0.76l48.65 26.07q0.93 0.49 1.98 0.64 1.04 0.14 2.08-0.08 1.03-0.22 1.93-0.79 0.89-0.57 1.53-1.4z"/>
		<path class="s6" d="m520.13 120.49q-0.19 0.25-0.46 0.41-0.27 0.16-0.58 0.23-0.3 0.06-0.61 0.02-0.31-0.05-0.59-0.19l-48.65-26.07q-0.17-0.09-0.33-0.22-0.15-0.13-0.26-0.3-0.12-0.16-0.2-0.34-0.08-0.19-0.11-0.38-0.04-0.21-0.03-0.42 0.01-0.21 0.07-0.42 0.06-0.2 0.16-0.38 0.11-0.19 0.25-0.34 5.68-6.4 10.57-13.41 4.89-7.02 8.93-14.56 4.04-7.53 7.17-15.49 3.13-7.96 5.31-16.23 0.05-0.21 0.15-0.4 0.09-0.18 0.23-0.35 0.14-0.16 0.31-0.28 0.17-0.13 0.36-0.21 0.18-0.08 0.38-0.12 0.2-0.04 0.4-0.03 0.2 0.01 0.39 0.06 0.19 0.05 0.37 0.15l48.64 26.07q0.28 0.15 0.49 0.38 0.21 0.23 0.33 0.53 0.11 0.29 0.12 0.6 0.02 0.31-0.08 0.61-2.89 8.21-6.41 16.17-3.51 7.96-7.62 15.62-4.11 7.67-8.79 15.01-4.68 7.33-9.91 14.28z"/>
		<path class="s10" d="m503.11 55.99l33.56 19.66c3.34 1.96 6.36-3.23 3.03-5.18l-33.56-19.67c-3.34-1.95-6.36 3.23-3.03 5.19z"/>
		<path class="s10" d="m497.11 66.99l33.56 19.66c3.34 1.96 6.36-3.23 3.03-5.18l-33.56-19.67c-3.34-1.95-6.36 3.23-3.03 5.19z"/>
		<path class="s10" d="m490.11 78.99l33.56 19.66c3.34 1.96 6.36-3.23 3.03-5.18l-33.56-19.67c-3.34-1.95-6.36 3.23-3.03 5.19z"/>
		<path class="s10" d="m483.11 88.99l33.56 19.66c3.34 1.96 6.36-3.23 3.03-5.18l-33.56-19.67c-3.34-1.95-6.36 3.23-3.03 5.19z"/>
		<path class="s10" d="m636.07 204.66l12.6 28.33q0.22 0.51 0.32 1.06 0.1 0.55 0.05 1.1-0.04 0.56-0.21 1.09-0.18 0.52-0.48 0.99-0.36 0.56-0.86 1-0.5 0.43-1.11 0.7-0.6 0.27-1.26 0.35-0.66 0.08-1.31-0.03-0.11-0.01-0.22-0.04-0.11-0.02-0.22-0.05-0.11-0.03-0.22-0.06-0.11-0.04-0.21-0.08-0.41-0.16-0.79-0.4-0.37-0.23-0.7-0.54-0.32-0.3-0.57-0.67-0.26-0.36-0.44-0.76l-12.59-28.33c-0.49-1.09-0.52-2.33-0.09-3.44 0.43-1.12 1.28-2.01 2.37-2.5 1.09-0.48 2.33-0.52 3.44-0.09 1.12 0.43 2.01 1.28 2.5 2.37z"/>
		<path class="s7" d="m647.65 230.71l2.52 5.71 1.29 8.11c0.09 0.53 0 1.08-0.26 1.55-0.26 0.48-0.67 0.85-1.16 1.07-0.49 0.22-1.05 0.27-1.57 0.15-0.53-0.13-1-0.43-1.33-0.85l-5.23-6.5-2.48-5.59z"/>
		<path class="s7" d="m625.05 196.78l1.8 11.34q0.09 0.57 0.42 1.03 0.33 0.47 0.83 0.74 0.51 0.27 1.08 0.3 0.57 0.02 1.09-0.21l1.79-0.8 3.45 7.77q0.18 0.37 0.56 0.53 0.38 0.14 0.76-0.02 0.38-0.18 0.53-0.56 0.14-0.38-0.02-0.76l-3.45-7.77 1.79-0.8q0.44-0.19 0.78-0.55 0.33-0.35 0.51-0.8 0.17-0.46 0.16-0.95-0.01-0.48-0.2-0.93-0.04-0.07-0.08-0.14-0.03-0.07-0.08-0.14-0.04-0.07-0.08-0.14-0.05-0.06-0.1-0.13l-7.21-8.93c-0.34-0.42-0.81-0.72-1.34-0.85-0.52-0.12-1.07-0.07-1.57 0.15-0.49 0.22-0.9 0.59-1.16 1.07-0.25 0.47-0.35 1.02-0.26 1.55z"/>
		<path class="s8" d="m630.27 217.25c0.29-1.59 0.91-3.09 1.84-4.41 0.93-1.32 2.14-2.41 3.54-3.21 1.39-0.81 2.95-1.29 4.56-1.42 1.6-0.14 3.22 0.08 4.73 0.64l24.87-30.28 6.02 19.45-24.54 25.77c-1.1 2.48-3.08 4.47-5.55 5.58-2.47 1.12-5.27 1.3-7.86 0.49-2.59-0.81-4.8-2.54-6.2-4.86-1.4-2.32-1.9-5.08-1.41-7.75z"/>
		<path class="s5" d="m661.58 215.28l-10.96-15.82 31.1-41.46-16.02-34.33 1.17-40.84 13.24-2.44 0.16 0.08q2.4 1.38 4.53 3.14 2.13 1.77 3.93 3.87 1.8 2.09 3.22 4.47 1.42 2.37 2.42 4.94c3.3 8.26 10.68 39.25 14.78 56.99q0.6 2.58 0.54 5.23-0.07 2.65-0.8 5.19-0.73 2.55-2.08 4.83-1.34 2.28-3.22 4.14z"/>
		<path class="s11" d="m353.21 138.85q-0.03 0.28-0.05 0.57-0.03 0.29-0.04 0.58-0.01 0.29-0.01 0.58 0 0.29 0.01 0.58l-56.07 40.8-15.4-6.82-13.33 21.9 26.1 14.72q1.58 0.89 3.36 1.24 1.78 0.34 3.58 0.11 1.8-0.24 3.44-1.03 1.63-0.79 2.93-2.06l56.43-55.12c5.92 1.5 12.14-0.81 15.64-5.82 3.5-5 3.54-11.64 0.1-16.68-3.44-5.04-9.64-7.43-15.57-6-5.93 1.44-10.36 6.39-11.12 12.45z"/>
		<path class="s10" d="m295.24 183.45l-16.36 27.24q-0.7 1.18-1.83 1.96-1.14 0.77-2.49 1.01-1.35 0.23-2.68-0.12-1.32-0.35-2.38-1.22l-24.49-20.11c-3.95-2.4-6.79-6.27-7.89-10.77-1.1-4.49-0.38-9.23 2.02-13.19 2.39-3.96 6.25-6.81 10.74-7.93 4.49-1.11 9.24-0.4 13.2 1.98l29.17 12.1q1.27 0.53 2.2 1.53 0.93 1.01 1.37 2.31 0.42 1.3 0.27 2.67-0.15 1.36-0.85 2.54z"/>
		<path class="s3" d="m257.23 420.28h-32.06v-53.11h32.06z"/>
		<path class="s3" d="m251.51 401.34l4.11-6.07 76.93 52.2-4.12 6.07z"/>
		<path class="s3" d="m149.85 447.47l76.93-52.2 4.11 6.07-76.92 52.2z"/>
		<path class="s3" d="m330.49 460.58c-5.57 0-10.07-4.51-10.07-10.08 0-5.57 4.5-10.07 10.07-10.07 5.57 0 10.07 4.5 10.07 10.07 0 5.57-4.5 10.08-10.07 10.08z"/>
		<path class="s3" d="m240.74 460.58c-5.57 0-10.07-4.51-10.07-10.08 0-5.57 4.5-10.07 10.07-10.07 5.57 0 10.08 4.5 10.08 10.07 0 5.57-4.51 10.08-10.08 10.08z"/>
		<path class="s3" d="m151.91 460.58c-5.57 0-10.07-4.51-10.07-10.08 0-5.57 4.5-10.07 10.07-10.07 5.57 0 10.07 4.5 10.07 10.07 0 5.57-4.5 10.08-10.07 10.08z"/>
		<path class="s3" d="m237.08 398.3h7.33v52.2h-7.33z"/>
		<path class="s3" d="m248.07 390.98h-13.74v-70.52h13.74z"/>
		<path class="s7" d="m201.82 331.45v-16.48c0-1.51 0.3-2.99 0.88-4.38 0.57-1.39 1.42-2.65 2.48-3.71 1.06-1.07 2.32-1.91 3.71-2.48 1.39-0.58 2.88-0.88 4.38-0.88h61.36c1.5 0 2.99 0.3 4.38 0.88 1.38 0.57 2.64 1.41 3.71 2.48 1.06 1.06 1.9 2.32 2.48 3.71 0.57 1.39 0.87 2.87 0.87 4.38v16.48c0 1.5-0.3 2.99-0.87 4.38-0.58 1.39-1.42 2.65-2.48 3.71-1.07 1.07-2.33 1.91-3.71 2.48-1.39 0.58-2.88 0.88-4.38 0.88h-61.36c-1.5 0-2.99-0.3-4.38-0.88-1.39-0.57-2.65-1.41-3.71-2.48-1.06-1.06-1.91-2.32-2.48-3.71-0.58-1.39-0.88-2.88-0.88-4.38z"/>
		<path class="s12" d="m312.64 444.13h16.97l8.07-44.01h-25.04v44.01z"/>
		<path class="s9" d="m308.31 460.58h54.72v-0.7c0-2.79-0.55-5.56-1.62-8.15-1.07-2.58-2.64-4.93-4.62-6.91-1.98-1.97-4.32-3.54-6.91-4.61-2.58-1.07-5.35-1.62-8.15-1.62h-33.42z"/>
		<path class="s9" d="m338.02 416.84l33.83-75.86c1.4-3.17 2.2-6.58 2.35-10.04 0.14-3.46-0.35-6.92-1.47-10.19-1.13-3.28-2.85-6.32-5.09-8.97-2.24-2.64-4.95-4.84-8-6.49l-73.37-39.35-33.49-2.85-30.88-2.8-0.23 0.37c-0.28 0.48-6.92 11.95-2.43 24.53 3.4 9.54 12.26 16.99 26.32 22.15 32.83 12.04 70.74 22.32 85.52 26.18q0.49 0.13 0.94 0.36 0.46 0.22 0.85 0.53 0.4 0.32 0.72 0.71 0.32 0.39 0.55 0.84 0.24 0.44 0.37 0.93 0.14 0.48 0.17 0.98 0.04 0.5-0.03 1-0.07 0.49-0.24 0.96l-31.42 70.61c-0.33 0.9-0.45 1.86-0.35 2.81 0.1 0.95 0.42 1.86 0.93 2.67 0.51 0.8 1.2 1.48 2.01 1.98 0.81 0.5 1.73 0.8 2.68 0.89l23.48 1.71q0.3 0.03 0.6 0.03 0.9 0 1.76-0.26 0.87-0.26 1.63-0.75 0.75-0.49 1.34-1.17 0.58-0.69 0.95-1.51z"/>
		<path class="s12" d="m301.57 444.13h16.97l8.07-44.01h-25.04v44.01z"/>
		<path class="s9" d="m297.24 460.58h54.72v-0.7c0-2.79-0.56-5.56-1.63-8.15-1.07-2.58-2.63-4.93-4.61-6.91-1.98-1.97-4.33-3.54-6.91-4.61-2.58-1.07-5.35-1.62-8.15-1.62h-33.42z"/>
		<path class="s9" d="m325.56 420.99l33.83-75.86c1.4-3.17 2.2-6.57 2.35-10.03 0.15-3.47-0.35-6.92-1.47-10.2-1.12-3.28-2.85-6.32-5.08-8.96-2.24-2.65-4.96-4.85-8-6.5l-73.38-39.35-33.48-2.85-24.19-2.09v-0.34c-0.29 0.49-6.93 11.96-2.44 24.53 3.41 9.54 5.34 17 19.41 22.15 32.82 12.04 70.74 22.32 85.52 26.19q0.49 0.12 0.94 0.35 0.45 0.22 0.85 0.54 0.39 0.31 0.71 0.7 0.32 0.39 0.56 0.84 0.23 0.45 0.37 0.93 0.13 0.48 0.17 0.98 0.03 0.5-0.04 1-0.06 0.49-0.23 0.97l-31.43 70.61c-0.33 0.89-0.45 1.85-0.35 2.8 0.1 0.95 0.42 1.86 0.93 2.67 0.51 0.8 1.2 1.48 2.01 1.98 0.81 0.5 1.73 0.8 2.68 0.89l23.49 1.71q0.29 0.03 0.59 0.03 0.9 0 1.77-0.26 0.86-0.25 1.62-0.74 0.75-0.5 1.34-1.18 0.59-0.69 0.95-1.51z"/>
		<path class="s12" d="m304.34 94.24c-4.35 18.29-22.65 29.56-40.93 25.21-18.29-4.35-29.56-22.65-25.21-40.94 4.35-18.29 22.65-29.56 40.94-25.21 18.29 4.35 29.55 22.65 25.2 40.94z"/>
		<path class="s4" d="m388.45 216.99q5.33-7.08 10.09-14.55 4.77-7.47 8.95-15.27 4.19-7.81 7.76-15.92 3.58-8.1 6.53-16.45 0.34-1.01 0.31-2.06-0.02-1.06-0.41-2.05-0.38-0.98-1.08-1.77-0.71-0.79-1.64-1.29l-48.64-26.07q-0.59-0.32-1.24-0.5-0.65-0.17-1.32-0.2-0.67-0.03-1.32 0.1-0.66 0.12-1.28 0.39-0.62 0.27-1.17 0.68-0.55 0.41-0.99 0.92-0.45 0.52-0.76 1.13-0.31 0.6-0.48 1.26-2.12 8.04-5.16 15.77-3.04 7.73-6.97 15.05-3.92 7.33-8.67 14.14-4.76 6.81-10.27 13.03-0.46 0.5-0.79 1.1-0.33 0.6-0.51 1.25-0.19 0.66-0.23 1.34-0.03 0.68 0.09 1.35 0.12 0.66 0.38 1.28 0.26 0.62 0.65 1.16 0.4 0.54 0.9 0.98 0.51 0.44 1.1 0.76l48.65 26.07q0.93 0.49 1.98 0.64 1.04 0.14 2.08-0.08 1.03-0.22 1.93-0.79 0.89-0.57 1.53-1.4z"/>
		<path class="s6" d="m385.13 214.49q-0.19 0.25-0.46 0.41-0.27 0.16-0.58 0.23-0.3 0.06-0.61 0.02-0.31-0.05-0.59-0.19l-48.65-26.07q-0.17-0.09-0.33-0.22-0.15-0.13-0.26-0.3-0.12-0.16-0.2-0.34-0.08-0.19-0.11-0.38-0.04-0.21-0.03-0.42 0.01-0.21 0.07-0.42 0.06-0.2 0.16-0.38 0.11-0.19 0.25-0.34 5.68-6.4 10.57-13.41 4.89-7.02 8.93-14.56 4.04-7.53 7.17-15.49 3.13-7.96 5.31-16.23 0.05-0.21 0.15-0.4 0.09-0.18 0.23-0.35 0.14-0.16 0.31-0.28 0.17-0.13 0.36-0.21 0.18-0.08 0.38-0.12 0.2-0.04 0.4-0.03 0.2 0.01 0.39 0.06 0.19 0.05 0.37 0.15l48.64 26.07q0.28 0.15 0.49 0.38 0.21 0.23 0.33 0.53 0.11 0.29 0.12 0.6 0.02 0.31-0.08 0.61-2.89 8.21-6.41 16.17-3.51 7.96-7.62 15.62-4.11 7.67-8.79 15.01-4.68 7.33-9.91 14.28z"/>
		<path class="s4" d="m368.11 149.99l33.56 19.66c3.34 1.96 6.36-3.23 3.03-5.18l-33.56-19.67c-3.34-1.95-6.36 3.23-3.03 5.19z"/>
		<path class="s4" d="m362.11 160.99l33.56 19.66c3.34 1.96 6.36-3.23 3.03-5.18l-33.56-19.67c-3.34-1.95-6.36 3.23-3.03 5.19z"/>
		<path class="s4" d="m357.4 171.94l30.51 18.12c3.04 1.8 6.29-1.93 3.26-3.73l-30.52-18.11c-3.03-1.8-6.28 1.92-3.25 3.72z"/>
		<path class="s4" d="m348.11 182.99l33.56 19.66c3.34 1.96 6.36-3.23 3.03-5.18l-33.56-19.67c-3.34-1.95-6.36 3.23-3.03 5.19z"/>
		<path class="s10" d="m290.87 268.69l-67.27-0.4-0.02-0.48c-1.28-33.75 2.84-64.33 12.61-93.47 0.14-1.09 0.29-2.26 0.44-3.4 1.66-13.04 2.99-23.39 15.39-27.25q-0.39-0.51-0.69-1.07-0.31-0.57-0.53-1.17-0.23-0.6-0.36-1.23-0.13-0.62-0.17-1.26-0.06-0.86 0.05-1.71 0.11-0.85 0.39-1.66 0.27-0.81 0.7-1.55 0.43-0.74 1-1.38 0.54-0.62 1.2-1.12 0.65-0.5 1.4-0.87 0.74-0.36 1.53-0.57 0.8-0.2 1.62-0.25l23.95-0.82q0.47 0 0.93 0.08 0.46 0.07 0.91 0.22 0.44 0.15 0.85 0.37 0.42 0.23 0.79 0.51 1.36 1.02 2.3 2.44 0.93 1.43 1.31 3.09 0.38 1.66 0.17 3.35-0.22 1.69-1 3.2c-0.28 0.56-0.39 0.82-0.43 0.93 0.85 4.46 3.38 9.76 6.05 15.36 3.83 8.03 8.16 17.13 9.28 26.86q0.22 1.97 0.29 3.95 0.07 1.98-0.03 3.96-0.09 1.97-0.34 3.94-0.25 1.96-0.66 3.9-0.19 1.04-0.31 2.1-0.11 1.05-0.15 2.12-0.05 1.06-0.02 2.12 0.03 1.06 0.14 2.11c0.21 4.19 0.42 8.13-1.94 11.95q-0.9 1.54-2.1 3.36l-3.33 7.95z"/>
		<path class="s7" d="m189.92 315.93v-137.46c0-2.22 0.44-4.41 1.29-6.46 0.85-2.05 2.09-3.91 3.66-5.48 1.57-1.57 3.43-2.82 5.48-3.66 2.05-0.85 4.24-1.29 6.46-1.3h4.67c2.22 0.01 4.42 0.45 6.47 1.3 2.05 0.84 3.91 2.09 5.48 3.66 1.56 1.57 2.81 3.43 3.66 5.48 0.85 2.05 1.29 4.24 1.29 6.46v137.46c0 2.22-0.44 4.41-1.29 6.46-0.85 2.05-2.1 3.91-3.66 5.48-1.57 1.57-3.43 2.81-5.48 3.66-2.05 0.85-4.25 1.29-6.47 1.3h-4.67c-2.22-0.01-4.41-0.45-6.46-1.3-2.05-0.85-3.91-2.09-5.48-3.66-1.57-1.57-2.81-3.43-3.66-5.48-0.85-2.05-1.29-4.24-1.29-6.46z"/>
		<path class="s11" d="m370.32 192.19q-0.18 0.23-0.35 0.46-0.17 0.23-0.34 0.47-0.16 0.24-0.31 0.49-0.16 0.25-0.3 0.5l-69.16 5.05-9.48-13.92-22.88 11.56 14.39 26.28q0.88 1.59 2.21 2.83 1.33 1.23 2.98 1.98 1.65 0.75 3.46 0.94 1.81 0.19 3.58-0.2l77.03-17.03c4.23 4.4 10.74 5.72 16.35 3.32 5.61-2.4 9.15-8.02 8.89-14.12-0.26-6.1-4.27-11.4-10.06-13.31-5.79-1.91-12.17-0.04-16.01 4.7z"/>
		<path class="s10" d="m297.54 199.47l-28.28 14.51q-1.22 0.62-2.59 0.69-1.37 0.05-2.64-0.46-1.27-0.52-2.21-1.51-0.94-1-1.39-2.3l-10.18-30c-1.03-2.04-1.65-4.26-1.83-6.54-0.18-2.28 0.09-4.57 0.8-6.75 0.71-2.17 1.83-4.19 3.31-5.93 1.49-1.74 3.3-3.17 5.33-4.21-12.53 6.43 13.57-11.84 23.53 7.56l18.39 25.68q0.79 1.11 1.06 2.46 0.26 1.35-0.06 2.68-0.33 1.33-1.17 2.41-0.86 1.08-2.07 1.71z"/>
		<path class="s9" d="m255.91 119.44c-2.04 0-4.3-0.99-6.85-2.99-3.72-2.92-6.94-6.43-9.53-10.38-2.59-3.96-4.52-8.31-5.71-12.89-1.19-4.58-1.62-9.32-1.29-14.04 0.34-4.72 1.44-9.35 3.27-13.71 1.85-4.42 5.31-10.43 11.29-13.95 4.3-2.53 9.35-3.45 13.75-4.11 3.8-0.57 7.66-1.02 11.45-1.34 4.53-0.39 9.77-0.65 14.55 1.16 3.49 1.33 6.47 3.68 9.35 5.95 1.01 0.79 2.05 1.61 3.09 2.37q0.94 0.74 1.95 1.37 1.02 0.63 2.09 1.15 1.08 0.52 2.2 0.93 1.12 0.41 2.28 0.69 0.49 0.1 0.95 0.31 0.46 0.2 0.86 0.5 0.41 0.29 0.74 0.67 0.33 0.37 0.58 0.81 0.25 0.45 0.4 0.93 0.15 0.49 0.19 1 0.05 0.51-0.02 1.01-0.07 0.51-0.24 0.99c-0.45 1.26-0.85 2.4-0.03 3.63q0.23 0.32 0.53 0.58 0.3 0.26 0.65 0.44 0.35 0.18 0.74 0.27 0.39 0.09 0.78 0.09 0.21-0.01 0.42 0.04 0.2 0.05 0.39 0.15 0.18 0.09 0.34 0.23 0.16 0.14 0.27 0.32 0.12 0.17 0.2 0.36 0.07 0.2 0.09 0.41 0.03 0.21 0 0.41-0.03 0.21-0.1 0.41l-0.13 0.33q0.26 0.03 0.51 0.12 0.25 0.08 0.47 0.23 0.23 0.14 0.41 0.34 0.18 0.19 0.31 0.42 0.19 0.33 0.26 0.71 0.07 0.37 0.02 0.75-0.06 0.37-0.24 0.71-0.17 0.34-0.45 0.6-1.14 1.08-2.41 1.99-1.27 0.91-2.65 1.63-1.39 0.73-2.86 1.25-1.47 0.53-3 0.84-1.05 0.21-2.12 0.31-1.06 0.1-2.13 0.1-1.07 0-2.14-0.11-1.06-0.11-2.11-0.32l-0.45-0.08 0.05-0.5c-11.34-4.05-21.58 2.82-27.42 10.67l-0.84-0.54q0.11-0.22 0.17-0.45 0.06-0.24 0.08-0.48 0.01-0.25-0.02-0.49-0.04-0.24-0.12-0.47-0.09-0.28-0.23-0.53-0.14-0.26-0.33-0.48-0.19-0.22-0.41-0.4-0.23-0.18-0.49-0.31-0.52-0.22-1.08-0.27-0.56-0.06-1.12 0.05-0.55 0.11-1.05 0.38-0.49 0.26-0.89 0.66-0.41 0.43-0.72 0.93-0.31 0.5-0.51 1.05-0.2 0.56-0.28 1.14-0.08 0.58-0.04 1.17 0.05 0.62 0.16 1.23 0.11 0.62 0.27 1.22 0.15 0.61 0.36 1.2 0.21 0.58 0.46 1.15c0.27 0.73 0.56 1.49 0.79 2.25q0.48 1.6 0.66 3.27 0.18 1.66 0.06 3.33-0.13 1.67-0.55 3.3-0.43 1.62-1.14 3.13c-0.88 1.86-2.48 4.23-5.08 4.97q-0.2 0.06-0.4 0.1-0.21 0.04-0.42 0.07-0.21 0.03-0.42 0.04-0.21 0.02-0.42 0.02z"/>
		<path class="s3" d="m808.48 462.58h-807.29c-0.31 0-0.62-0.13-0.84-0.35-0.22-0.23-0.35-0.53-0.35-0.84 0-0.32 0.13-0.62 0.35-0.84 0.22-0.23 0.53-0.35 0.84-0.35h807.29c0.32 0 0.62 0.12 0.85 0.34 0.22 0.23 0.35 0.53 0.35 0.85 0 0.31-0.13 0.62-0.35 0.84-0.23 0.22-0.53 0.35-0.85 0.35z"/>
	</g>
</svg>