<svg version="1.2" xmlns="http://www.w3.org/2000/svg" viewBox="0 0 1022.7 785.81" width="1023" height="786">
	<title>undraw_bug-fixing_sgk7</title>
	<defs>
		<linearGradient id="g1" x2="1" gradientUnits="userSpaceOnUse" gradientTransform="matrix(-13.236,-328.123,160.466,-6.473,601.882,766.347)">
			<stop offset="0" stop-color="#808080" stop-opacity=".25"/>
			<stop offset=".54" stop-color="#808080" stop-opacity=".12"/>
			<stop offset="1" stop-color="#808080" stop-opacity=".1"/>
		</linearGradient>
	</defs>
	<style>
		.s0 { opacity: .1;fill: #6c63ff } 
		.s1 { fill: #3f3d56 } 
		.s2 { fill: #000000 } 
		.s3 { fill: #6c63ff } 
		.s4 { opacity: .1;fill: #000000 } 
		.s5 { fill: #d0d2d5 } 
		.s6 { fill: #ffffff } 
		.s7 { fill: #83c65e } 
		.s8 { opacity: .1;fill: #444053 } 
		.s9 { opacity: .3;fill: #6c63ff } 
		.s10 { opacity: .8;fill: #fa5959 } 
		.s11 { opacity: .8;fill: #fed253 } 
		.s12 { opacity: .8;fill: #8ccf4d } 
		.s13 { fill: url(#g1) } 
		.s14 { fill: #2f2e41 } 
		.s15 { fill: #454b69 } 
		.s16 { fill: #fbbebe } 
	</style>
	<g id="Layer 1">
		<path class="s0" d="m468.63 693.88c-235.03 0-425-14.75-425-33 0-18.25 189.97-33 425-33 235.02 0 425 14.75 425 33 0 18.25-189.98 33-425 33z"/>
		<g style="opacity: .1">
			<path class="s1" d="m845.05 472.84c-2.54-7.71-12.84-11.26-23-7.92q-0.55 0.18-1.09 0.38-0.54 0.21-1.07 0.44-0.53 0.23-1.05 0.48-0.51 0.25-1.02 0.53-0.98-0.27-2-0.46 0.21-0.83 0.35-1.67 0.15-0.85 0.22-1.7 0.08-0.85 0.1-1.71 0.01-0.86-0.04-1.71 2.63-1.76 4.73-4.12 2.09-2.37 3.53-5.19 1.43-2.82 2.1-5.91 0.67-3.09 0.54-6.25 2.62-1.76 4.71-4.13 2.09-2.37 3.52-5.19 1.42-2.82 2.09-5.91 0.67-3.08 0.54-6.24 1.31-0.87 2.5-1.9 1.19-1.03 2.24-2.21 1.04-1.18 1.92-2.49 0.87-1.31 1.57-2.72c4.9-9.7 2.87-20.6-4.54-24.35-7.41-3.75-17.4 1.08-22.3 10.78q-0.73 1.4-1.26 2.88-0.53 1.48-0.87 3.02-0.33 1.54-0.46 3.11-0.12 1.57-0.04 3.14-2.62 1.76-4.71 4.13-2.09 2.37-3.52 5.19-1.42 2.82-2.09 5.91-0.67 3.08-0.54 6.24-2.62 1.76-4.71 4.13-2.09 2.37-3.52 5.19-1.42 2.82-2.09 5.91-0.67 3.08-0.54 6.24-2.63 1.76-4.72 4.13-2.1 2.37-3.53 5.19-1.43 2.82-2.11 5.91-0.67 3.09-0.54 6.25-1.31 0.87-2.5 1.9-1.19 1.03-2.24 2.21-1.04 1.18-1.92 2.49-0.87 1.31-1.57 2.72-0.35 0.68-0.65 1.39-0.3 0.7-0.56 1.42-0.26 0.72-0.48 1.45-0.22 0.73-0.39 1.48-0.46-0.67-0.97-1.31-0.51-0.63-1.07-1.23-0.56-0.59-1.16-1.14-0.6-0.55-1.24-1.05-0.07-0.57-0.17-1.14-0.1-0.57-0.23-1.13-0.12-0.57-0.27-1.12-0.15-0.56-0.33-1.11c-3.34-10.17-12.3-16.37-20-13.83-7.7 2.54-11.26 12.83-7.92 23q0.51 1.63 1.25 3.16 0.75 1.53 1.71 2.94 0.96 1.41 2.11 2.66 1.16 1.25 2.49 2.32 0.07 0.57 0.17 1.14 0.1 0.57 0.23 1.13 0.12 0.57 0.27 1.12 0.15 0.56 0.33 1.11c1.94 5.9 5.77 10.46 10.15 12.75q-0.15 0.48-0.27 0.96-0.12 0.48-0.23 0.97-0.1 0.49-0.19 0.98-0.08 0.49-0.14 0.99-1.54 1.48-2.81 3.19-1.26 1.72-2.23 3.62-0.96 1.91-1.59 3.95-0.63 2.03-0.91 4.15-1.54 1.48-2.81 3.2-1.27 1.71-2.23 3.62-0.96 1.9-1.59 3.94-0.63 2.04-0.91 4.16-0.77 0.74-1.47 1.53-0.7 0.8-1.32 1.66-0.63 0.86-1.19 1.76-0.55 0.91-1.02 1.86c-4.91 9.7-2.88 20.61 4.53 24.35 7.41 3.74 17.4-1.07 22.31-10.78q0.48-0.95 0.89-1.93 0.4-0.99 0.71-2.01 0.31-1.01 0.54-2.05 0.23-1.04 0.36-2.1 1.54-1.48 2.81-3.19 1.26-1.72 2.23-3.62 0.96-1.91 1.59-3.95 0.63-2.03 0.91-4.15 1.54-1.48 2.81-3.2 1.27-1.71 2.23-3.62 0.96-1.9 1.59-3.94 0.63-2.04 0.91-4.16 1.53-1.48 2.78-3.2 1.26-1.72 2.21-3.62 0.95-1.91 1.57-3.94 0.62-2.04 0.89-4.15 1.54-1.48 2.82-3.2 1.27-1.72 2.24-3.62 0.96-1.91 1.59-3.96 0.63-2.04 0.91-4.16 0.48-0.45 0.93-0.93 0.45-0.48 0.87-0.98 0.43-0.5 0.83-1.02 0.39-0.53 0.76-1.07 1.53 0.31 3.08 0.42 1.55 0.11 3.11 0.01 1.55-0.09 3.08-0.4 1.53-0.3 3-0.8 0.55-0.18 1.09-0.38 0.54-0.21 1.07-0.44 0.53-0.23 1.05-0.48 0.51-0.25 1.02-0.53 1.65 0.43 3.35 0.62 1.69 0.19 3.4 0.13 1.7-0.06 3.38-0.37 1.68-0.31 3.29-0.86c10.13-3.31 16.36-12.27 13.83-19.99z"/>
			<g style="opacity: .1">
				<path class="s2" d="m827.12 442.44q-0.39 0.39-0.81 0.75-0.41 0.37-0.84 0.71-0.43 0.35-0.88 0.67-0.45 0.32-0.91 0.62 0.06 1.07 0.02 2.14-0.04 1.07-0.18 2.13-0.14 1.06-0.38 2.1-0.24 1.04-0.57 2.06 0.29-0.41 0.57-0.83 0.28-0.42 0.55-0.84 0.26-0.43 0.5-0.87 0.25-0.44 0.48-0.89 0.46-0.91 0.85-1.85 0.39-0.95 0.7-1.92 0.3-0.98 0.53-1.97 0.23-1 0.37-2.01z"/>
				<path class="s2" d="m837.98 420.97q-0.39 0.39-0.81 0.75-0.41 0.37-0.84 0.71-0.43 0.35-0.88 0.67-0.45 0.32-0.91 0.62 0.06 1.07 0.02 2.14-0.04 1.07-0.18 2.13-0.14 1.06-0.38 2.1-0.24 1.04-0.57 2.06 0.3-0.41 0.58-0.83 0.27-0.42 0.54-0.85 0.26-0.43 0.51-0.87 0.24-0.44 0.47-0.89 0.46-0.91 0.85-1.85 0.39-0.95 0.69-1.92 0.31-0.97 0.54-1.97 0.23-0.99 0.37-2z"/>
				<path class="s2" d="m813.35 412.98q-0.03-0.55-0.04-1.1-0.01-0.56 0.01-1.11 0.02-0.55 0.07-1.1 0.05-0.55 0.13-1.1-0.73 0.72-1.39 1.49-0.67 0.77-1.27 1.6-0.6 0.82-1.13 1.7-0.53 0.87-0.99 1.78-0.23 0.45-0.43 0.91-0.21 0.46-0.4 0.93-0.19 0.46-0.37 0.94-0.17 0.47-0.32 0.95 0.62-0.87 1.32-1.68 0.7-0.81 1.47-1.55 0.77-0.74 1.61-1.41 0.83-0.67 1.73-1.25z"/>
				<path class="s2" d="m744.42 542.91q0.33-0.46 0.68-0.9 0.35-0.44 0.71-0.86 0.37-0.42 0.76-0.83 0.39-0.4 0.8-0.79 0.06-0.51 0.15-1.01 0.09-0.51 0.2-1.01 0.1-0.5 0.24-1 0.13-0.49 0.28-0.98-0.33 0.44-0.63 0.89-0.31 0.45-0.6 0.92-0.28 0.46-0.55 0.94-0.26 0.47-0.51 0.96-0.23 0.44-0.44 0.89-0.2 0.46-0.4 0.92-0.19 0.45-0.36 0.92-0.17 0.47-0.33 0.94z"/>
				<path class="s2" d="m751.96 528.01q0.33-0.46 0.68-0.9 0.35-0.44 0.71-0.86 0.37-0.42 0.76-0.83 0.39-0.4 0.8-0.79 0.06-0.5 0.14-0.99 0.09-0.49 0.19-0.98 0.1-0.49 0.23-0.97 0.12-0.48 0.27-0.96-0.31 0.43-0.6 0.86-0.3 0.44-0.57 0.89-0.28 0.45-0.54 0.91-0.25 0.46-0.49 0.93-0.23 0.45-0.45 0.9-0.21 0.45-0.41 0.92-0.2 0.46-0.38 0.93-0.18 0.46-0.34 0.94z"/>
				<path class="s2" d="m816.25 463.91q-0.39 0.39-0.8 0.75-0.41 0.37-0.84 0.71-0.43 0.34-0.88 0.66-0.45 0.32-0.91 0.62 0.05 0.85 0.04 1.71-0.02 0.86-0.1 1.71-0.07 0.85-0.22 1.7-0.14 0.84-0.35 1.67 0.25 0.04 0.5 0.09 0.26 0.06 0.51 0.11 0.25 0.06 0.49 0.12 0.25 0.07 0.5 0.14 0.51-0.28 1.02-0.53 0.52-0.25 1.05-0.48 0.53-0.23 1.07-0.44 0.54-0.2 1.09-0.38c10.18-3.34 20.47 0.21 23 7.92q0.23 0.72 0.37 1.47 0.14 0.75 0.18 1.51 0.04 0.76-0.02 1.52-0.05 0.76-0.21 1.5c3.35-3.94 4.74-8.74 3.3-13.14-2.54-7.71-12.84-11.26-23-7.92q-0.55 0.18-1.09 0.38-0.54 0.21-1.07 0.44-0.53 0.23-1.05 0.48-0.51 0.25-1.02 0.53-0.98-0.28-2-0.46 0.28-1.2 0.44-2.39z"/>
				<path class="s2" d="m740.7 550.4q-0.33 0.44-0.63 0.89-0.31 0.45-0.6 0.92-0.28 0.46-0.55 0.94-0.26 0.47-0.51 0.96-0.23 0.45-0.44 0.91-0.21 0.46-0.4 0.93-0.19 0.47-0.37 0.94-0.17 0.48-0.33 0.96 0.33-0.46 0.69-0.9 0.36-0.44 0.73-0.87 0.38-0.43 0.77-0.83 0.4-0.41 0.81-0.8 0.06-0.51 0.14-1.03 0.08-0.51 0.18-1.01 0.11-0.51 0.23-1.01 0.13-0.5 0.28-1z"/>
				<path class="s2" d="m802.44 434.45q-0.03-0.55-0.04-1.1-0.01-0.56 0.01-1.11 0.03-0.55 0.07-1.1 0.05-0.55 0.13-1.1-0.73 0.72-1.39 1.49-0.67 0.77-1.27 1.6-0.6 0.82-1.13 1.7-0.53 0.87-0.99 1.78-0.23 0.45-0.43 0.91-0.21 0.46-0.4 0.93-0.19 0.46-0.37 0.94-0.17 0.47-0.32 0.95 0.62-0.87 1.32-1.68 0.7-0.81 1.47-1.55 0.77-0.74 1.61-1.41 0.83-0.67 1.73-1.25z"/>
				<path class="s2" d="m786.75 522.01q-0.07 0.56-0.17 1.11-0.1 0.55-0.23 1.1-0.12 0.55-0.27 1.09-0.15 0.55-0.33 1.08 0.29-0.41 0.57-0.83 0.28-0.42 0.54-0.85 0.26-0.43 0.51-0.87 0.24-0.44 0.47-0.89 0.25-0.48 0.47-0.97 0.23-0.49 0.43-1 0.2-0.5 0.39-1 0.18-0.51 0.34-1.03-0.31 0.41-0.63 0.81-0.32 0.39-0.67 0.78-0.34 0.38-0.69 0.75-0.36 0.37-0.73 0.72z"/>
				<path class="s2" d="m771.67 551.83q-0.07 0.56-0.17 1.11-0.1 0.55-0.23 1.1-0.12 0.55-0.27 1.09-0.15 0.55-0.33 1.08 0.3-0.41 0.58-0.83 0.27-0.42 0.54-0.85 0.26-0.43 0.51-0.87 0.24-0.44 0.47-0.89 0.24-0.48 0.47-0.97 0.22-0.5 0.43-1 0.2-0.5 0.38-1.01 0.19-0.5 0.35-1.02-0.31 0.41-0.63 0.81-0.33 0.4-0.67 0.78-0.34 0.38-0.7 0.75-0.36 0.37-0.73 0.72z"/>
				<path class="s2" d="m779.21 536.91q-0.07 0.56-0.17 1.11-0.1 0.55-0.23 1.1-0.12 0.55-0.27 1.09-0.15 0.55-0.33 1.08 0.3-0.4 0.58-0.81 0.29-0.42 0.55-0.84 0.27-0.42 0.52-0.86 0.25-0.43 0.49-0.87 0.25-0.48 0.47-0.97 0.23-0.49 0.43-1 0.2-0.5 0.39-1 0.18-0.51 0.34-1.03-0.31 0.4-0.64 0.79-0.33 0.39-0.68 0.77-0.35 0.37-0.71 0.73-0.36 0.37-0.74 0.71z"/>
				<path class="s2" d="m794.29 507.1q-0.07 0.56-0.17 1.11-0.1 0.55-0.23 1.1-0.12 0.55-0.27 1.09-0.15 0.54-0.33 1.07 0.29-0.41 0.57-0.83 0.28-0.42 0.54-0.84 0.26-0.43 0.51-0.87 0.24-0.44 0.47-0.89 0.25-0.49 0.48-0.99 0.22-0.5 0.43-1.01 0.2-0.51 0.39-1.03 0.18-0.51 0.34-1.04-0.31 0.42-0.63 0.83-0.32 0.4-0.66 0.8-0.35 0.39-0.71 0.76-0.35 0.38-0.73 0.74z"/>
				<path class="s2" d="m744.92 469.39c7.72-2.53 16.68 3.66 20 13.83q0.18 0.55 0.33 1.11 0.15 0.56 0.27 1.12 0.13 0.57 0.23 1.14 0.1 0.57 0.17 1.14 0.64 0.5 1.24 1.05 0.6 0.55 1.16 1.14 0.56 0.6 1.07 1.23 0.51 0.64 0.97 1.31 0.17-0.75 0.39-1.48 0.22-0.74 0.48-1.46 0.26-0.72 0.56-1.42 0.3-0.71 0.65-1.39 0.53-1.01 1.12-2-0.43-0.59-0.89-1.15-0.46-0.55-0.97-1.08-0.5-0.52-1.03-1.01-0.54-0.49-1.11-0.94-0.07-0.57-0.17-1.14-0.1-0.57-0.23-1.13-0.12-0.57-0.27-1.12-0.15-0.56-0.33-1.11c-3.34-10.17-12.3-16.37-20-13.83-4.4 1.44-7.44 5.41-8.62 10.43q0.51-0.56 1.08-1.04 0.57-0.49 1.2-0.9 0.63-0.41 1.31-0.74 0.68-0.32 1.39-0.56z"/>
				<path class="s2" d="m780.72 477.39q-0.03-0.55-0.04-1.1 0-0.55 0.02-1.1 0.02-0.56 0.07-1.1 0.05-0.55 0.13-1.1-0.73 0.72-1.4 1.49-0.67 0.77-1.27 1.6-0.6 0.82-1.13 1.69-0.53 0.88-0.99 1.79-0.23 0.45-0.44 0.91-0.2 0.45-0.39 0.92-0.19 0.47-0.37 0.94-0.17 0.47-0.32 0.95 0.62-0.87 1.32-1.68 0.7-0.81 1.47-1.55 0.77-0.74 1.61-1.41 0.84-0.66 1.73-1.25z"/>
				<path class="s2" d="m791.58 455.91q-0.03-0.55-0.04-1.1 0-0.55 0.02-1.1 0.02-0.56 0.07-1.1 0.05-0.55 0.13-1.1-0.73 0.71-1.4 1.48-0.67 0.78-1.27 1.6-0.6 0.82-1.13 1.7-0.53 0.87-0.99 1.78-0.23 0.45-0.43 0.91-0.21 0.46-0.4 0.93-0.19 0.46-0.37 0.94-0.17 0.47-0.32 0.95 0.62-0.87 1.32-1.68 0.7-0.81 1.47-1.55 0.77-0.74 1.61-1.41 0.83-0.67 1.73-1.25z"/>
				<path class="s2" d="m764.13 566.74q-0.07 0.56-0.17 1.11-0.1 0.56-0.23 1.11-0.12 0.55-0.27 1.09-0.15 0.54-0.33 1.08 0.62-0.85 1.16-1.75 0.54-0.9 1.01-1.84 0.47-0.94 0.86-1.92 0.39-0.98 0.7-1.98-0.31 0.42-0.63 0.82-0.33 0.4-0.67 0.79-0.34 0.39-0.7 0.76-0.36 0.37-0.73 0.73z"/>
			</g>
			<path class="s1" d="m859.87 373.62q1.32-0.87 2.51-1.9 1.19-1.03 2.23-2.21 1.04-1.18 1.92-2.49 0.87-1.31 1.57-2.72c4.91-9.7 2.88-20.61-4.53-24.36-7.41-3.75-17.4 1.08-22.31 10.79q-0.73 1.4-1.26 2.89-0.53 1.48-0.87 3.02-0.33 1.55-0.45 3.12-0.13 1.57-0.04 3.15-2.62 1.76-4.71 4.13-2.09 2.37-3.52 5.19-1.42 2.82-2.09 5.91-0.67 3.08-0.54 6.24-1.32 0.86-2.51 1.9-1.19 1.03-2.23 2.21-1.04 1.18-1.92 2.49-0.88 1.31-1.57 2.72-0.23 0.45-0.43 0.9-0.21 0.45-0.4 0.91-0.19 0.47-0.36 0.94-0.17 0.46-0.32 0.94 0.97-1.41 2.16-2.64 1.19-1.23 2.56-2.25 1.38-1.02 2.9-1.8 1.52-0.79 3.15-1.31c0.5 1.54 1.3 2.97 2.35 4.2 1.05 1.23 2.34 2.23 3.78 2.96 1.45 0.73 3.02 1.17 4.64 1.28 1.61 0.12 3.24-0.09 4.77-0.6q0.55 1.62 0.83 3.31 0.28 1.68 0.28 3.39 0 1.72-0.28 3.4-0.28 1.69-0.83 3.31 0.29-0.4 0.57-0.82 0.28-0.41 0.54-0.84 0.26-0.42 0.5-0.86 0.24-0.44 0.47-0.88 0.72-1.4 1.26-2.88 0.53-1.48 0.86-3.02 0.33-1.54 0.46-3.11 0.12-1.57 0.04-3.14 2.62-1.76 4.72-4.13 2.09-2.37 3.52-5.18 1.42-2.83 2.09-5.91 0.67-3.09 0.53-6.25z"/>
			<path class="s3" d="m979.23 235.98q1.13-0.53 2.24-1.09 1.11-0.57 2.2-1.17 1.09-0.61 2.16-1.25 1.07-0.64 2.12-1.32l-32.33-23.62 38 19.57c3.83-3.05 7.35-6.47 10.49-10.23 3.14-3.76 5.88-7.83 8.2-12.14 2.32-4.31 4.19-8.85 5.58-13.55 1.4-4.69 2.31-9.51 2.73-14.39l-64.58 0.66 64.72-10.82c-1.35-19.79-10.81-38.15-26.14-50.73-15.33-12.59-35.17-18.3-54.85-15.78-19.67 2.53-37.44 13.05-49.09 29.1-11.66 16.05-16.18 36.2-12.5 55.69q-1.76 0.82-3.47 1.73-1.71 0.91-3.38 1.91-1.66 1.01-3.26 2.1-1.61 1.09-3.15 2.26l33.75 46.93-40.52-41.08c-4.26 4.18-7.98 8.88-11.08 13.98-3.11 5.1-5.56 10.56-7.32 16.27-1.75 5.71-2.79 11.61-3.09 17.57-0.3 5.96 0.15 11.94 1.32 17.79-24.98 11.66-41.1 36.55-41.54 64.11-0.43 27.56 14.9 52.95 39.5 65.38 24.6 12.44 54.14 9.75 76.08-6.94 21.93-16.68 32.42-44.42 27.01-71.45 7.27-3.39 13.93-7.96 19.69-13.54 5.77-5.58 10.56-12.08 14.18-19.24 3.62-7.16 6.02-14.87 7.09-22.82 1.08-7.95 0.82-16.03-0.76-23.89z"/>
			<path class="s4" d="m844.35 217.66q-2.72 5.37-4.52 11.11-1.79 5.75-2.6 11.71-0.81 5.96-0.62 11.98 0.2 6.01 1.39 11.91c-24.98 11.66-41.1 36.55-41.54 64.11-0.43 27.56 14.9 52.95 39.5 65.38 24.6 12.44 54.14 9.75 76.08-6.94 21.93-16.68 32.42-44.42 27.01-71.45 14.13-6.56-91.08-105.02-94.7-97.81z"/>
			<path class="s3" d="m925.49 113.41c-5.91 0-10.69-4.78-10.69-10.69 0-5.91 4.78-10.69 10.69-10.69 5.91 0 10.69 4.78 10.69 10.69 0 5.91-4.78 10.69-10.69 10.69z"/>
			<path class="s3" d="m987.93 120.27c-5.91 0-10.69-4.78-10.69-10.69 0-5.91 4.78-10.69 10.69-10.69 5.91 0 10.69 4.78 10.69 10.69 0 5.91-4.78 10.69-10.69 10.69z"/>
			<path class="s3" d="m1012.01 216.33c-5.91 0-10.69-4.78-10.69-10.69 0-5.91 4.78-10.69 10.69-10.69 5.91 0 10.69 4.78 10.69 10.69 0 5.91-4.78 10.69-10.69 10.69z"/>
			<path class="s3" d="m979.51 264.3c-5.91 0-10.69-4.78-10.69-10.69 0-5.91 4.78-10.69 10.69-10.69 5.91 0 10.69 4.78 10.69 10.69 0 5.91-4.78 10.69-10.69 10.69z"/>
			<path class="s3" d="m935.11 363.93c-5.91 0-10.69-4.78-10.69-10.69 0-5.91 4.78-10.69 10.69-10.69 5.91 0 10.69 4.78 10.69 10.69 0 5.91-4.78 10.69-10.69 10.69z"/>
			<path class="s4" d="m935.11 363.93c-5.91 0-10.69-4.78-10.69-10.69 0-5.91 4.78-10.69 10.69-10.69 5.91 0 10.69 4.78 10.69 10.69 0 5.91-4.78 10.69-10.69 10.69z"/>
			<path class="s3" d="m836.39 251.09c-5.91 0-10.69-4.78-10.69-10.69 0-5.91 4.78-10.69 10.69-10.69 5.91 0 10.69 4.78 10.69 10.69 0 5.91-4.78 10.69-10.69 10.69z"/>
			<path class="s4" d="m836.39 251.09c-5.91 0-10.69-4.78-10.69-10.69 0-5.91 4.78-10.69 10.69-10.69 5.91 0 10.69 4.78 10.69 10.69 0 5.91-4.78 10.69-10.69 10.69z"/>
			<path class="s4" d="m824.99 416.23c-7.11-3.59-9.26-13.76-5.11-23.14q-0.33 0.57-0.63 1.18c-4.91 9.7-2.88 20.6 4.53 24.35 7.41 3.75 17.4-1.08 22.3-10.78q0.31-0.61 0.57-1.21c-5.09 8.91-14.56 13.2-21.66 9.6z"/>
			<path class="s4" d="m814.43 437.11c-7.1-3.59-9.26-13.76-5.1-23.15q-0.33 0.58-0.64 1.18c-4.91 9.7-2.88 20.61 4.53 24.35 7.41 3.74 17.4-1.07 22.31-10.78q0.3-0.6 0.57-1.21c-5.1 8.91-14.56 13.2-21.67 9.61z"/>
			<path class="s4" d="m803.87 457.98c-7.1-3.59-9.26-13.76-5.1-23.14q-0.34 0.57-0.64 1.18c-4.91 9.7-2.87 20.6 4.54 24.35 7.41 3.75 17.39-1.08 22.3-10.78q0.3-0.61 0.57-1.21c-5.09 8.91-14.56 13.2-21.67 9.6z"/>
			<path class="s4" d="m793.35 478.91c-7.11-3.59-9.26-13.76-5.11-23.14q-0.33 0.57-0.64 1.17c-4.9 9.7-2.87 20.61 4.54 24.36 7.41 3.75 17.4-1.08 22.3-10.79q0.31-0.6 0.57-1.21c-5.12 8.86-14.59 13.15-21.66 9.61z"/>
			<path class="s4" d="m782.76 499.73c-7.11-3.59-9.26-13.76-5.11-23.14q-0.33 0.57-0.63 1.18c-4.91 9.7-2.88 20.6 4.53 24.35 7.41 3.75 17.4-1.08 22.31-10.78q0.3-0.6 0.57-1.21c-5.08 8.91-14.57 13.2-21.67 9.6z"/>
			<path class="s4" d="m772.2 520.61c-7.1-3.59-9.26-13.76-5.1-23.14q-0.34 0.57-0.64 1.17c-4.91 9.7-2.88 20.61 4.54 24.36 7.42 3.75 17.35-1.09 22.35-10.79q0.3-0.6 0.57-1.21c-5.15 8.91-14.57 13.2-21.72 9.61z"/>
			<path class="s4" d="m761.64 541.48c-7.1-3.59-9.26-13.76-5.1-23.14q-0.33 0.57-0.64 1.18c-4.9 9.7-2.87 20.6 4.54 24.35 7.41 3.75 17.4-1.08 22.3-10.78q0.31-0.61 0.57-1.21c-5.09 8.91-14.56 13.2-21.67 9.6z"/>
			<path class="s4" d="m751.09 562.36c-7.11-3.59-9.26-13.76-5.11-23.14q-0.33 0.57-0.63 1.17c-4.91 9.7-2.88 20.61 4.53 24.36 7.41 3.75 17.4-1.08 22.31-10.79q0.29-0.6 0.56-1.21c-5.09 8.91-14.56 13.16-21.66 9.61z"/>
			<path class="s4" d="m744.15 576.08c-7.1-3.6-9.26-13.76-5.1-23.15q-0.34 0.58-0.64 1.18c-4.91 9.7-2.88 20.61 4.53 24.35 7.41 3.74 17.4-1.07 22.31-10.78q0.3-0.6 0.57-1.21c-5.1 8.91-14.57 13.2-21.67 9.61z"/>
			<path class="s3" d="m934.94 483.17q0.41-1.18 0.75-2.39 0.33-1.21 0.58-2.44 0.25-1.23 0.42-2.47 0.17-1.24 0.25-2.49c1.48 0 2.9-0.62 3.91-1.71 1.01-1.09 1.52-2.56 1.4-4.04-0.11-1.48-0.83-2.84-2-3.77-1.16-0.92-2.65-1.32-4.12-1.1q-0.89-4.06-2.65-7.82-1.77-3.77-4.32-7.05-2.54-3.28-5.75-5.93-3.21-2.64-6.92-4.51c0.63-1.27 0.75-2.73 0.3-4.08-0.44-1.34-1.4-2.46-2.66-3.1-1.27-0.63-2.73-0.75-4.08-0.3-1.34 0.44-2.46 1.4-3.1 2.66q-0.09 0.17-0.16 0.34-0.07 0.18-0.13 0.36-0.06 0.18-0.11 0.36-0.05 0.18-0.08 0.37-4.4-0.82-8.87-0.58-4.47 0.24-8.76 1.52-4.29 1.29-8.15 3.55-3.86 2.26-7.09 5.36-1.22-0.2-2.44-0.31-1.23-0.12-2.46-0.16-1.23-0.03-2.46 0.01-1.23 0.05-2.46 0.17l-4.33 19.71-0.26-19c-10.04 2.2-18.74 8.44-24.04 17.25-5.31 8.81-6.75 19.41-4 29.32 2.75 9.9 9.46 18.24 18.54 23.05 9.09 4.81 19.76 5.67 29.5 2.38q0.19 0.35 0.43 0.66 0.25 0.32 0.53 0.59 0.29 0.27 0.61 0.5 0.33 0.23 0.68 0.41c0.98 0.5 2.09 0.68 3.18 0.53 1.08-0.16 2.1-0.65 2.9-1.4 0.8-0.75 1.34-1.73 1.57-2.81 0.22-1.07 0.11-2.19-0.33-3.2q0.64-0.44 1.26-0.9 0.62-0.47 1.22-0.96 0.6-0.49 1.18-1.01 0.58-0.51 1.14-1.05c3.88 0.63 7.83 0.65 11.72 0.05 3.88-0.6 7.65-1.81 11.16-3.58 3.51-1.77 6.71-4.08 9.5-6.85 2.79-2.77 5.13-5.96 6.93-9.45l-20.15-3.39z"/>
			<g style="opacity: .1">
				<path class="s2" d="m903.81 492.74c-7.44-9.82-12-21.45-17.25-32.61q-0.79-1.72-1.63-3.41-0.84-1.7-1.72-3.37-0.88-1.67-1.81-3.31-0.93-1.65-1.91-3.27l-3.94-4.59q-0.99 0.84-2 1.75-1.22-0.2-2.44-0.31-1.23-0.12-2.46-0.16-1.23-0.03-2.46 0.01-1.23 0.05-2.46 0.17l-4.33 19.71-0.26-19c-10.04 2.2-18.74 8.44-24.04 17.25-5.31 8.81-6.75 19.41-4 29.32 2.75 9.9 9.46 18.24 18.54 23.05 9.09 4.81 19.76 5.67 29.5 2.38q0.19 0.35 0.43 0.66 0.25 0.32 0.53 0.59 0.29 0.27 0.61 0.5 0.33 0.23 0.68 0.41c0.98 0.5 2.09 0.68 3.18 0.53 1.08-0.16 2.1-0.65 2.9-1.4 0.8-0.75 1.34-1.73 1.57-2.81 0.22-1.07 0.11-2.19-0.33-3.2q0.64-0.44 1.26-0.9 0.62-0.47 1.22-0.96 0.6-0.49 1.18-1.01 0.58-0.51 1.14-1.05 2.85 0.46 5.74 0.48 2.88 0.02 5.74-0.4 2.85-0.42 5.61-1.28 2.76-0.85 5.35-2.12-1.74-1.2-3.38-2.54-1.63-1.33-3.16-2.8-1.52-1.46-2.93-3.04-1.4-1.58-2.67-3.27z"/>
			</g>
			<path class="s3" d="m772.06 450.54c0.41-0.82 0.61-1.72 0.57-2.64-0.04-0.91-0.31-1.8-0.79-2.57-0.48-0.78-1.15-1.42-1.95-1.87-0.8-0.44-1.7-0.67-2.61-0.67q-0.56-2.99-1.61-5.86-1.04-2.86-2.53-5.52-1.49-2.65-3.39-5.03-1.91-2.38-4.17-4.42 0.37-1.43 0.62-2.88 0.25-1.46 0.39-2.93 0.14-1.47 0.16-2.94 0.02-1.48-0.07-2.95l-19.65-3.35 19.08-1.2q-0.13-0.67-0.28-1.34-0.15-0.66-0.33-1.33-0.18-0.66-0.38-1.31-0.2-0.65-0.42-1.3 0.28-0.19 0.53-0.41 0.25-0.23 0.47-0.48 0.23-0.25 0.42-0.53 0.19-0.28 0.34-0.58c0.48-0.96 0.66-2.03 0.53-3.1-0.14-1.06-0.59-2.05-1.3-2.85-0.71-0.8-1.65-1.37-2.68-1.64-1.04-0.26-2.13-0.21-3.14 0.15-5.05-7.14-12.45-12.29-20.9-14.54-8.45-2.25-17.43-1.48-25.37 2.2-7.93 3.67-14.33 10.01-18.08 17.92-3.75 7.9-4.61 16.87-2.44 25.34q-0.43 0.18-0.82 0.44-0.39 0.25-0.73 0.57-0.34 0.32-0.62 0.7-0.28 0.37-0.49 0.79c-0.49 0.97-0.67 2.06-0.53 3.14 0.15 1.07 0.62 2.08 1.36 2.88 0.73 0.8 1.69 1.36 2.75 1.6 1.06 0.24 2.16 0.15 3.17-0.25q0.72 1.21 1.52 2.36 0.81 1.14 1.7 2.23 0.89 1.09 1.86 2.1 0.97 1.02 2.01 1.96-0.75 2.94-1.02 5.97-0.27 3.02-0.05 6.05 0.22 3.03 0.93 5.99 0.71 2.95 1.88 5.75l26.35-6.84-23.5 12.36c4.16 6.6 10.27 11.74 17.49 14.7 7.22 2.95 15.18 3.58 22.77 1.79 7.6-1.79 14.44-5.91 19.58-11.78 5.13-5.88 8.3-13.21 9.07-20.97q0.68-0.06 1.32-0.29 0.64-0.22 1.21-0.61 0.56-0.38 1.01-0.89 0.45-0.51 0.76-1.12z"/>
			<path class="s4" d="m772.06 450.54c0.41-0.82 0.61-1.72 0.57-2.64-0.04-0.91-0.31-1.8-0.79-2.57-0.48-0.78-1.15-1.42-1.95-1.87-0.8-0.44-1.7-0.67-2.61-0.67q-0.56-2.99-1.61-5.86-1.04-2.86-2.53-5.52-1.49-2.65-3.39-5.03-1.91-2.38-4.17-4.42 0.24-0.94 0.42-1.88-0.26 0.19-0.51 0.39-0.26 0.2-0.5 0.42-0.24 0.21-0.47 0.44-0.23 0.22-0.45 0.46c-3.55 3.89-5.37 9.12-8.88 13.05-4.14 4.64-10.34 7.06-16.53 7.71-6.19 0.65-12.42-0.3-18.53-1.49-5.06-1-10.19-2.16-15.32-1.67-0.5 0-1 0.11-1.46 0.19q0.45 0.44 0.91 0.86-0.75 2.94-1.02 5.97-0.27 3.02-0.05 6.05 0.22 3.03 0.93 5.99 0.71 2.95 1.88 5.75l26.35-6.85-23.5 12.36c4.16 6.6 10.27 11.74 17.49 14.7 7.22 2.95 15.18 3.58 22.77 1.79 7.6-1.79 14.44-5.91 19.58-11.78 5.13-5.88 8.3-13.21 9.07-20.97q0.68-0.06 1.32-0.29 0.64-0.22 1.21-0.61 0.56-0.38 1.01-0.89 0.45-0.51 0.76-1.12z"/>
		</g>
		<g style="opacity: .1">
			<path class="s1" d="m89.49 511.24c1.28-3.89 6.47-5.68 11.59-4q0.28 0.09 0.55 0.19 0.27 0.11 0.54 0.22 0.26 0.12 0.52 0.24 0.26 0.13 0.52 0.27 0.5-0.14 1-0.23-0.11-0.42-0.18-0.84-0.07-0.43-0.11-0.86-0.04-0.43-0.05-0.86-0.01-0.43 0.02-0.86-1.32-0.89-2.37-2.09-1.05-1.19-1.77-2.61-0.72-1.42-1.06-2.97-0.33-1.56-0.27-3.15-0.66-0.44-1.26-0.96-0.6-0.51-1.12-1.11-0.53-0.59-0.97-1.25-0.44-0.66-0.79-1.37-0.36-0.7-0.63-1.45-0.27-0.75-0.44-1.52-0.17-0.78-0.23-1.57-0.07-0.79-0.03-1.58-0.66-0.44-1.26-0.96-0.6-0.52-1.12-1.12-0.53-0.59-0.97-1.25-0.44-0.66-0.79-1.37c-2.46-4.88-1.46-10.37 2.29-12.27 3.75-1.9 8.77 0.55 11.24 5.43q0.36 0.71 0.63 1.45 0.27 0.75 0.44 1.53 0.16 0.77 0.23 1.57 0.06 0.79 0.02 1.58 1.32 0.89 2.38 2.08 1.05 1.19 1.77 2.61 0.72 1.42 1.05 2.97 0.34 1.56 0.27 3.15 1.32 0.89 2.38 2.08 1.05 1.2 1.77 2.62 0.72 1.42 1.05 2.97 0.34 1.56 0.27 3.15 1.32 0.89 2.38 2.08 1.05 1.19 1.77 2.61 0.72 1.42 1.05 2.97 0.34 1.56 0.27 3.15 0.66 0.44 1.26 0.96 0.6 0.52 1.13 1.11 0.52 0.6 0.97 1.26 0.44 0.66 0.79 1.37 0.17 0.35 0.32 0.7 0.14 0.36 0.27 0.72 0.12 0.36 0.23 0.73 0.1 0.37 0.18 0.75 0.23-0.34 0.49-0.66 0.25-0.32 0.53-0.62 0.28-0.3 0.59-0.58 0.3-0.28 0.62-0.53 0.04-0.29 0.09-0.58 0.05-0.28 0.12-0.57 0.06-0.28 0.14-0.56 0.08-0.28 0.17-0.56c1.69-5.12 6.2-8.24 10.09-7 3.89 1.24 5.67 6.47 4 11.59q-0.26 0.82-0.63 1.59-0.38 0.78-0.86 1.49-0.49 0.71-1.07 1.34-0.58 0.63-1.25 1.17-0.04 0.29-0.09 0.57-0.05 0.29-0.12 0.57-0.06 0.28-0.14 0.56-0.08 0.28-0.17 0.56-0.31 1.01-0.79 1.94-0.49 0.93-1.15 1.76-0.66 0.82-1.46 1.51-0.8 0.69-1.71 1.21 0.07 0.25 0.13 0.49 0.07 0.25 0.12 0.5 0.05 0.25 0.09 0.5 0.05 0.26 0.08 0.51 0.39 0.37 0.74 0.77 0.35 0.41 0.67 0.84 0.32 0.43 0.6 0.88 0.28 0.46 0.52 0.94 0.24 0.48 0.45 0.97 0.2 0.5 0.36 1.01 0.16 0.52 0.27 1.04 0.11 0.53 0.18 1.06 0.39 0.37 0.74 0.77 0.36 0.41 0.68 0.84 0.32 0.43 0.6 0.88 0.28 0.46 0.52 0.94 0.24 0.48 0.45 0.98 0.2 0.49 0.36 1.01 0.16 0.51 0.27 1.03 0.11 0.53 0.18 1.06 0.39 0.37 0.74 0.77 0.36 0.41 0.68 0.84 0.32 0.43 0.6 0.89 0.28 0.46 0.52 0.94c2.47 4.88 1.45 10.38-2.28 12.26-3.73 1.88-8.77-0.54-11.24-5.43q-0.24-0.48-0.45-0.98-0.2-0.49-0.36-1.01-0.15-0.51-0.27-1.03-0.11-0.53-0.18-1.06-0.78-0.74-1.42-1.61-0.63-0.86-1.12-1.82-0.49-0.96-0.8-1.99-0.32-1.02-0.46-2.09-0.78-0.74-1.42-1.61-0.63-0.86-1.12-1.82-0.49-0.96-0.8-1.99-0.32-1.02-0.46-2.09-0.39-0.37-0.74-0.77-0.36-0.41-0.68-0.84-0.32-0.43-0.6-0.88-0.28-0.46-0.52-0.94-0.24-0.48-0.44-0.98-0.2-0.49-0.36-1.01-0.16-0.51-0.28-1.03-0.11-0.53-0.18-1.06-0.39-0.37-0.74-0.77-0.35-0.41-0.67-0.84-0.32-0.43-0.6-0.88-0.28-0.46-0.52-0.94-0.24-0.48-0.45-0.97-0.2-0.5-0.36-1.01-0.16-0.52-0.27-1.04-0.11-0.53-0.18-1.06-0.24-0.22-0.47-0.46-0.23-0.24-0.44-0.49-0.22-0.25-0.42-0.51-0.2-0.27-0.38-0.54-0.77 0.16-1.55 0.21-0.78 0.06-1.57 0.01-0.78-0.05-1.55-0.2-0.77-0.15-1.51-0.4-0.28-0.09-0.55-0.2-0.27-0.1-0.54-0.22-0.27-0.11-0.53-0.24-0.26-0.13-0.52-0.27-0.83 0.22-1.68 0.32-0.86 0.09-1.71 0.06-0.86-0.03-1.7-0.19-0.85-0.15-1.66-0.43c-5.07-1.69-8.2-6.2-6.93-10.09z"/>
			<g style="opacity: .1">
				<path class="s2" d="m98.52 495.91q0.2 0.2 0.41 0.38 0.21 0.19 0.42 0.36 0.22 0.17 0.45 0.34 0.23 0.16 0.46 0.31-0.03 0.54-0.01 1.08 0.02 0.53 0.09 1.07 0.07 0.53 0.19 1.05 0.12 0.53 0.29 1.04-0.15-0.2-0.29-0.42-0.14-0.21-0.28-0.42-0.13-0.22-0.25-0.44-0.13-0.22-0.24-0.45-0.23-0.46-0.43-0.93-0.2-0.48-0.35-0.97-0.16-0.49-0.27-0.99-0.12-0.5-0.19-1.01z"/>
				<path class="s2" d="m93.05 485.11q0.2 0.19 0.41 0.38 0.21 0.18 0.43 0.35 0.21 0.18 0.44 0.34 0.23 0.16 0.46 0.31-0.03 0.54-0.01 1.08 0.02 0.54 0.09 1.07 0.07 0.54 0.19 1.06 0.12 0.53 0.29 1.04-0.45-0.62-0.83-1.29-0.37-0.67-0.66-1.39-0.29-0.71-0.5-1.45-0.2-0.74-0.31-1.5z"/>
				<path class="s2" d="m105.48 481.08q0.02-0.28 0.02-0.56 0.01-0.27 0-0.55-0.01-0.28-0.04-0.56-0.02-0.27-0.06-0.55 0.37 0.36 0.7 0.75 0.34 0.39 0.64 0.81 0.3 0.41 0.57 0.85 0.27 0.44 0.5 0.9 0.11 0.23 0.22 0.46 0.1 0.23 0.2 0.47 0.09 0.23 0.18 0.47 0.08 0.24 0.16 0.48-0.31-0.44-0.66-0.85-0.36-0.41-0.74-0.78-0.39-0.37-0.82-0.71-0.42-0.34-0.87-0.63z"/>
				<path class="s2" d="m140.18 546.54q-0.16-0.23-0.34-0.45-0.17-0.22-0.36-0.44-0.18-0.21-0.38-0.41-0.19-0.21-0.4-0.4-0.03-0.25-0.08-0.51-0.04-0.25-0.1-0.5-0.05-0.25-0.12-0.5-0.06-0.25-0.14-0.49 0.16 0.22 0.32 0.45 0.15 0.22 0.29 0.46 0.15 0.23 0.28 0.47 0.14 0.24 0.26 0.48 0.11 0.22 0.22 0.45 0.1 0.22 0.2 0.46 0.1 0.23 0.18 0.46 0.09 0.23 0.17 0.47z"/>
				<path class="s2" d="m136.35 539.03q-0.16-0.23-0.34-0.45-0.17-0.22-0.36-0.44-0.18-0.21-0.38-0.41-0.19-0.21-0.4-0.4-0.03-0.25-0.07-0.51-0.04-0.25-0.1-0.5-0.05-0.25-0.11-0.5-0.07-0.25-0.14-0.49 0.31 0.42 0.58 0.86 0.27 0.44 0.51 0.9 0.24 0.47 0.43 0.95 0.2 0.48 0.36 0.97z"/>
				<path class="s2" d="m104 506.75q0.2 0.19 0.4 0.38 0.21 0.18 0.43 0.35 0.21 0.17 0.44 0.33 0.23 0.16 0.46 0.31-0.03 0.43-0.02 0.86 0 0.43 0.04 0.86 0.04 0.43 0.12 0.86 0.07 0.42 0.18 0.84-0.13 0.02-0.25 0.05-0.13 0.02-0.25 0.05-0.13 0.03-0.25 0.06-0.13 0.03-0.25 0.07-0.26-0.14-0.52-0.27-0.26-0.12-0.53-0.24-0.27-0.11-0.54-0.22-0.27-0.1-0.55-0.19c-5.12-1.68-10.31 0.11-11.58 4q-0.12 0.36-0.19 0.74-0.07 0.37-0.09 0.75-0.02 0.38 0 0.76 0.03 0.38 0.11 0.75-0.62-0.65-1.05-1.43-0.43-0.79-0.65-1.66-0.22-0.87-0.21-1.76 0.01-0.9 0.25-1.76c1.28-3.89 6.47-5.68 11.59-4q0.28 0.09 0.55 0.19 0.27 0.11 0.54 0.22 0.26 0.12 0.52 0.24 0.26 0.13 0.52 0.27 0.5-0.14 1-0.23-0.04-0.15-0.07-0.29-0.03-0.15-0.06-0.3-0.02-0.14-0.05-0.29-0.02-0.15-0.04-0.3z"/>
				<path class="s2" d="m142.06 550.31q0.16 0.22 0.32 0.45 0.15 0.23 0.3 0.46 0.14 0.23 0.27 0.47 0.14 0.24 0.26 0.49 0.11 0.23 0.22 0.46 0.11 0.23 0.2 0.46 0.1 0.24 0.19 0.48 0.08 0.24 0.16 0.48-0.16-0.23-0.34-0.45-0.17-0.23-0.36-0.44-0.18-0.21-0.38-0.42-0.19-0.2-0.4-0.4-0.03-0.26-0.08-0.52-0.04-0.25-0.1-0.51-0.05-0.25-0.12-0.51-0.06-0.25-0.14-0.5z"/>
				<path class="s2" d="m110.95 491.91q0.02-0.28 0.02-0.56 0.01-0.27 0-0.55-0.01-0.28-0.04-0.56-0.02-0.27-0.06-0.55 0.37 0.36 0.7 0.75 0.34 0.39 0.64 0.81 0.3 0.41 0.57 0.85 0.27 0.44 0.5 0.9 0.11 0.23 0.22 0.46 0.1 0.23 0.2 0.46 0.09 0.23 0.18 0.47 0.08 0.24 0.16 0.48-0.31-0.44-0.66-0.85-0.36-0.4-0.74-0.78-0.39-0.37-0.82-0.7-0.42-0.34-0.87-0.63z"/>
				<path class="s2" d="m118.86 536.01q0.04 0.28 0.08 0.56 0.05 0.28 0.11 0.55 0.06 0.28 0.14 0.55 0.07 0.27 0.16 0.54-0.31-0.43-0.59-0.88-0.27-0.45-0.51-0.93-0.23-0.47-0.43-0.96-0.2-0.49-0.35-1 0.16 0.21 0.32 0.42 0.17 0.2 0.34 0.4 0.17 0.19 0.36 0.38 0.18 0.19 0.37 0.37z"/>
				<path class="s2" d="m126.45 551.03q0.04 0.28 0.09 0.56 0.05 0.28 0.11 0.55 0.06 0.28 0.14 0.55 0.07 0.27 0.16 0.54-0.15-0.2-0.29-0.42-0.14-0.21-0.28-0.42-0.13-0.22-0.25-0.44-0.13-0.22-0.24-0.45-0.12-0.24-0.24-0.49-0.11-0.24-0.21-0.49-0.1-0.25-0.2-0.51-0.09-0.25-0.17-0.51 0.16 0.2 0.32 0.4 0.17 0.2 0.34 0.39 0.17 0.19 0.35 0.38 0.18 0.18 0.37 0.36z"/>
				<path class="s2" d="m122.66 543.52q0.04 0.28 0.08 0.56 0.05 0.28 0.11 0.55 0.06 0.28 0.14 0.55 0.07 0.27 0.16 0.54-0.15-0.21-0.29-0.42-0.14-0.21-0.27-0.42-0.14-0.22-0.26-0.44-0.12-0.22-0.24-0.45-0.12-0.24-0.24-0.49-0.11-0.24-0.21-0.49-0.11-0.25-0.2-0.51-0.09-0.25-0.17-0.51 0.16 0.21 0.32 0.41 0.17 0.19 0.34 0.39 0.18 0.19 0.36 0.37 0.18 0.18 0.37 0.36z"/>
				<path class="s2" d="m115.06 528.49q0.03 0.28 0.08 0.56 0.05 0.28 0.11 0.56 0.06 0.27 0.14 0.55 0.07 0.27 0.16 0.54-0.14-0.21-0.28-0.42-0.13-0.21-0.25-0.42-0.13-0.22-0.25-0.44-0.11-0.22-0.22-0.45-0.13-0.24-0.24-0.49-0.12-0.24-0.22-0.49-0.1-0.25-0.2-0.51-0.09-0.25-0.17-0.51 0.15 0.2 0.31 0.4 0.16 0.2 0.33 0.39 0.16 0.19 0.34 0.37 0.18 0.19 0.36 0.36z"/>
				<path class="s2" d="m139.93 509.5c-3.89-1.28-8.4 1.84-10.08 7q-0.09 0.28-0.17 0.56-0.08 0.28-0.14 0.56-0.07 0.29-0.12 0.57-0.05 0.29-0.09 0.58-0.32 0.25-0.63 0.53-0.3 0.27-0.58 0.57-0.28 0.3-0.54 0.62-0.26 0.32-0.49 0.66-0.09-0.38-0.2-0.75-0.11-0.37-0.24-0.73-0.13-0.37-0.28-0.72-0.16-0.35-0.33-0.7-0.26-0.51-0.56-1 0.21-0.3 0.44-0.58 0.24-0.28 0.49-0.54 0.25-0.26 0.52-0.51 0.27-0.24 0.55-0.47 0.04-0.29 0.09-0.58 0.05-0.28 0.12-0.57 0.06-0.28 0.14-0.56 0.08-0.28 0.17-0.56c1.69-5.12 6.2-8.24 10.09-7q0.84 0.32 1.56 0.84 0.73 0.53 1.3 1.22 0.57 0.69 0.95 1.5 0.37 0.82 0.53 1.7-0.25-0.28-0.54-0.53-0.29-0.24-0.6-0.45-0.32-0.21-0.66-0.37-0.34-0.17-0.7-0.29z"/>
				<path class="s2" d="m121.89 513.53q0.02-0.28 0.02-0.56 0.01-0.27 0-0.55-0.01-0.28-0.04-0.56-0.02-0.27-0.06-0.55 0.37 0.36 0.7 0.75 0.34 0.39 0.64 0.81 0.3 0.41 0.57 0.85 0.27 0.44 0.5 0.9 0.11 0.23 0.22 0.46 0.1 0.23 0.2 0.47 0.09 0.23 0.18 0.47 0.08 0.24 0.16 0.48-0.31-0.44-0.66-0.85-0.35-0.41-0.74-0.78-0.39-0.38-0.81-0.71-0.43-0.34-0.88-0.63z"/>
				<path class="s2" d="m116.42 502.71q0.02-0.28 0.02-0.56 0.01-0.27 0-0.55-0.01-0.28-0.04-0.56-0.02-0.27-0.06-0.55 0.37 0.36 0.7 0.75 0.34 0.39 0.64 0.81 0.3 0.41 0.57 0.85 0.27 0.44 0.5 0.9 0.11 0.23 0.22 0.46 0.1 0.23 0.2 0.47 0.09 0.23 0.18 0.47 0.08 0.24 0.16 0.48-0.31-0.44-0.66-0.85-0.36-0.41-0.74-0.78-0.39-0.37-0.82-0.71-0.42-0.34-0.87-0.63z"/>
				<path class="s2" d="m130.25 558.54q0.04 0.28 0.09 0.56 0.04 0.28 0.11 0.56 0.06 0.27 0.14 0.55 0.07 0.27 0.16 0.54-0.15-0.21-0.29-0.42-0.14-0.21-0.28-0.43-0.13-0.22-0.25-0.44-0.13-0.22-0.24-0.45-0.12-0.24-0.24-0.49-0.11-0.24-0.21-0.49-0.1-0.25-0.2-0.51-0.09-0.25-0.17-0.51 0.16 0.2 0.32 0.4 0.17 0.2 0.34 0.39 0.17 0.19 0.35 0.38 0.18 0.18 0.37 0.36z"/>
			</g>
			<path class="s1" d="m82.02 461.25q-0.66-0.44-1.26-0.96-0.6-0.51-1.12-1.11-0.53-0.59-0.97-1.25-0.44-0.66-0.79-1.37c-2.47-4.89-1.45-10.38 2.28-12.27 3.73-1.89 8.77 0.54 11.24 5.43q0.36 0.7 0.63 1.45 0.27 0.75 0.44 1.52 0.17 0.78 0.23 1.57 0.06 0.79 0.02 1.58 1.32 0.89 2.38 2.08 1.05 1.2 1.77 2.62 0.72 1.42 1.05 2.97 0.34 1.56 0.27 3.15 0.66 0.44 1.26 0.96 0.6 0.52 1.13 1.11 0.52 0.59 0.96 1.25 0.45 0.66 0.8 1.37 0.11 0.22 0.22 0.45 0.1 0.23 0.2 0.47 0.09 0.23 0.18 0.46 0.08 0.24 0.16 0.48-0.49-0.7-1.09-1.32-0.61-0.61-1.3-1.12-0.69-0.51-1.46-0.91-0.76-0.39-1.58-0.65-0.37 1.18-1.17 2.13-0.8 0.95-1.91 1.51-1.1 0.57-2.34 0.66-1.23 0.09-2.41-0.3-0.28 0.82-0.42 1.66-0.14 0.85-0.14 1.72 0 0.86 0.14 1.71 0.14 0.84 0.42 1.66-0.14-0.2-0.27-0.41-0.14-0.21-0.26-0.43-0.13-0.21-0.24-0.43-0.12-0.22-0.23-0.44-0.36-0.7-0.63-1.45-0.27-0.75-0.44-1.52-0.17-0.78-0.23-1.57-0.07-0.79-0.03-1.58-1.32-0.89-2.37-2.08-1.05-1.2-1.77-2.62-0.72-1.42-1.06-2.97-0.34-1.56-0.27-3.15z"/>
			<path class="s3" d="m21.9 391.91q-0.57-0.27-1.13-0.55-0.56-0.29-1.11-0.59-0.55-0.3-1.08-0.63-0.54-0.32-1.07-0.66l16.28-11.9-19.14 9.85q-2.9-2.31-5.28-5.15-2.37-2.85-4.13-6.12-1.75-3.27-2.81-6.82-1.05-3.56-1.37-7.25l32.54 0.34-32.61-5.46c0.57-10.06 5.29-19.42 13.03-25.86 7.75-6.44 17.82-9.37 27.81-8.09 9.99 1.28 19 6.65 24.88 14.84 5.87 8.18 8.08 18.44 6.09 28.31q0.89 0.41 1.75 0.87 0.86 0.45 1.7 0.95 0.83 0.5 1.64 1.05 0.81 0.54 1.59 1.13l-17 23.64 20.41-20.68c2.15 2.11 4.02 4.47 5.58 7.04 1.56 2.57 2.8 5.32 3.69 8.2 0.88 2.87 1.4 5.85 1.55 8.85 0.15 3-0.07 6.01-0.66 8.96 12.6 5.87 20.74 18.41 20.96 32.31 0.23 13.9-7.5 26.7-19.91 32.97-12.4 6.27-27.29 4.91-38.35-3.51-11.06-8.41-16.34-22.41-13.6-36.03-3.66-1.71-7.01-4.01-9.91-6.82-2.9-2.8-5.31-6.08-7.13-9.68-1.83-3.6-3.04-7.48-3.58-11.48-0.55-4-0.42-8.06 0.37-12.02z"/>
			<path class="s4" d="m89.85 382.69q1.37 2.7 2.28 5.6 0.9 2.89 1.31 5.89 0.41 3.01 0.31 6.04-0.1 3.03-0.7 6c12.6 5.87 20.74 18.41 20.96 32.31 0.23 13.9-7.5 26.7-19.91 32.97-12.4 6.27-27.29 4.91-38.35-3.51-11.06-8.41-16.34-22.41-13.6-36.03-7.13-3.31 45.87-52.9 47.7-49.27z"/>
			<path class="s3" d="m48.97 330.17c-2.98 0-5.39-2.41-5.39-5.39 0-2.98 2.41-5.39 5.39-5.39 2.98 0 5.39 2.41 5.39 5.39 0 2.98-2.41 5.39-5.39 5.39z"/>
			<path class="s3" d="m17.51 333.63c-2.98 0-5.39-2.41-5.39-5.39 0-2.98 2.41-5.39 5.39-5.39 2.98 0 5.39 2.41 5.39 5.39 0 2.98-2.41 5.39-5.39 5.39z"/>
			<path class="s3" d="m5.39 382.02c-2.98 0-5.39-2.41-5.39-5.39 0-2.98 2.41-5.39 5.39-5.39 2.98 0 5.39 2.41 5.39 5.39 0 2.98-2.41 5.39-5.39 5.39z"/>
			<path class="s3" d="m21.76 406.19c-2.98 0-5.39-2.41-5.39-5.39 0-2.98 2.41-5.39 5.39-5.39 2.98 0 5.39 2.41 5.39 5.39 0 2.98-2.41 5.39-5.39 5.39z"/>
			<path class="s3" d="m44.12 456.38c-2.98 0-5.39-2.41-5.39-5.39 0-2.98 2.41-5.39 5.39-5.39 2.98 0 5.39 2.41 5.39 5.39 0 2.98-2.41 5.39-5.39 5.39z"/>
			<path class="s4" d="m44.12 456.38c-2.98 0-5.39-2.41-5.39-5.39 0-2.98 2.41-5.39 5.39-5.39 2.98 0 5.39 2.41 5.39 5.39 0 2.98-2.41 5.39-5.39 5.39z"/>
			<path class="s3" d="m93.85 399.53c-2.98 0-5.39-2.41-5.39-5.39 0-2.98 2.41-5.39 5.39-5.39 2.98 0 5.39 2.41 5.39 5.39 0 2.98-2.41 5.39-5.39 5.39z"/>
			<path class="s4" d="m93.85 399.53c-2.98 0-5.39-2.41-5.39-5.39 0-2.98 2.41-5.39 5.39-5.39 2.98 0 5.39 2.41 5.39 5.39 0 2.98-2.41 5.39-5.39 5.39z"/>
			<path class="s4" d="m99.6 482.72c3.58-1.81 4.66-6.93 2.57-11.66q0.17 0.29 0.32 0.59c2.47 4.89 1.45 10.38-2.29 12.27-3.74 1.89-8.76-0.54-11.23-5.43q-0.15-0.3-0.29-0.61c2.57 4.49 7.34 6.65 10.92 4.84z"/>
			<path class="s4" d="m104.91 493.24c3.58-1.81 4.67-6.94 2.58-11.66q0.17 0.29 0.32 0.59c2.47 4.89 1.45 10.38-2.29 12.27-3.74 1.89-8.76-0.54-11.23-5.43q-0.16-0.3-0.29-0.61c2.57 4.51 7.35 6.65 10.91 4.84z"/>
			<path class="s4" d="m110.23 503.75c3.58-1.81 4.67-6.93 2.57-11.66q0.17 0.29 0.33 0.6c2.47 4.88 1.44 10.38-2.29 12.26-3.73 1.88-8.76-0.54-11.23-5.43q-0.16-0.3-0.29-0.61c2.56 4.49 7.33 6.65 10.91 4.84z"/>
			<path class="s4" d="m115.55 514.27c3.58-1.81 4.67-6.93 2.57-11.66q0.17 0.29 0.32 0.59c2.48 4.89 1.45 10.38-2.28 12.27-3.73 1.89-8.77-0.54-11.24-5.43q-0.15-0.3-0.28-0.61c2.56 4.48 7.33 6.65 10.91 4.84z"/>
			<path class="s4" d="m120.87 524.78c3.58-1.81 4.66-6.93 2.57-11.65q0.17 0.29 0.32 0.59c2.47 4.89 1.45 10.38-2.28 12.27-3.73 1.89-8.77-0.55-11.24-5.43q-0.15-0.31-0.29-0.61c2.57 4.48 7.34 6.64 10.92 4.83z"/>
			<path class="s4" d="m126.19 535.3c3.58-1.81 4.66-6.93 2.57-11.66q0.17 0.29 0.32 0.59c2.47 4.89 1.45 10.38-2.28 12.27-3.73 1.89-8.77-0.54-11.24-5.43q-0.15-0.3-0.29-0.61c2.57 4.45 7.34 6.65 10.92 4.84z"/>
			<path class="s4" d="m131.51 545.82c3.57-1.81 4.66-6.94 2.57-11.66q0.17 0.29 0.32 0.59c2.47 4.89 1.45 10.38-2.29 12.27-3.74 1.89-8.76-0.55-11.23-5.43q-0.15-0.31-0.29-0.61c2.57 4.48 7.34 6.65 10.92 4.84z"/>
			<path class="s4" d="m136.82 556.33c3.58-1.81 4.67-6.93 2.57-11.66q0.17 0.29 0.33 0.6c2.47 4.88 1.44 10.38-2.29 12.26-3.73 1.88-8.76-0.54-11.23-5.43q-0.16-0.3-0.29-0.61c2.57 4.49 7.33 6.65 10.91 4.84z"/>
			<path class="s4" d="m140.35 563.24c3.58-1.81 4.66-6.93 2.57-11.66q0.17 0.29 0.32 0.6c2.47 4.88 1.45 10.38-2.28 12.26-3.73 1.88-8.77-0.54-11.24-5.43q-0.15-0.3-0.29-0.61c2.54 4.51 7.31 6.65 10.92 4.84z"/>
			<path class="s3" d="m44.21 516.44q-0.21-0.6-0.38-1.2-0.16-0.61-0.29-1.23-0.12-0.62-0.21-1.24-0.08-0.63-0.12-1.26c-0.75 0-1.46-0.32-1.97-0.87-0.5-0.54-0.76-1.28-0.7-2.03 0.05-0.74 0.42-1.43 1-1.89 0.59-0.47 1.34-0.67 2.08-0.56q0.45-2.04 1.34-3.94 0.89-1.89 2.17-3.55 1.28-1.65 2.9-2.98 1.61-1.34 3.48-2.28c-0.32-0.64-0.37-1.38-0.15-2.06 0.22-0.67 0.71-1.23 1.34-1.56 0.64-0.32 1.38-0.37 2.06-0.15 0.67 0.22 1.23 0.71 1.56 1.34q0.04 0.08 0.08 0.17 0.04 0.09 0.07 0.18 0.03 0.09 0.05 0.18 0.02 0.1 0.04 0.19 2.22-0.41 4.47-0.28 2.25 0.13 4.41 0.78 2.16 0.65 4.11 1.79 1.95 1.14 3.57 2.71 0.62-0.1 1.24-0.16 0.63-0.06 1.26-0.08 0.62-0.02 1.25 0.01 0.63 0.02 1.25 0.09l2.18 9.92 0.05-9.57c5.01 1.16 9.33 4.31 11.96 8.73 2.63 4.42 3.33 9.73 1.96 14.68-1.38 4.96-4.72 9.13-9.25 11.56-4.53 2.44-9.86 2.91-14.75 1.32q-0.1 0.17-0.22 0.33-0.12 0.16-0.27 0.3-0.14 0.14-0.3 0.25-0.16 0.12-0.34 0.21c-0.49 0.25-1.05 0.34-1.6 0.26-0.55-0.08-1.06-0.32-1.46-0.7-0.41-0.38-0.69-0.87-0.8-1.42-0.11-0.54-0.06-1.1 0.16-1.61q-0.32-0.22-0.63-0.46-0.31-0.24-0.62-0.49-0.3-0.25-0.59-0.51-0.29-0.27-0.57-0.54c-1.95 0.32-3.95 0.32-5.9 0.02-1.96-0.3-3.86-0.91-5.62-1.8-1.77-0.9-3.39-2.06-4.79-3.46-1.41-1.39-2.58-3-3.49-4.76l10.15-1.71z"/>
			<g style="opacity: .1">
				<path class="s2" d="m59.89 521.26c3.75-5 6.05-10.8 8.69-16.42q0.4-0.87 0.82-1.72 0.42-0.86 0.86-1.7 0.45-0.84 0.92-1.67 0.47-0.83 0.96-1.65l2-2.31q0.51 0.43 1 0.88 0.62-0.1 1.24-0.16 0.63-0.06 1.26-0.08 0.62-0.02 1.25 0.01 0.63 0.02 1.25 0.09l2.18 9.92 0.03-9.54c5.01 1.16 9.33 4.31 11.96 8.73 2.63 4.42 3.33 9.73 1.96 14.68-1.38 4.96-4.72 9.13-9.25 11.56-4.53 2.44-9.86 2.91-14.75 1.32q-0.1 0.17-0.22 0.33-0.12 0.16-0.27 0.3-0.14 0.14-0.3 0.25-0.16 0.12-0.34 0.21c-0.49 0.25-1.05 0.34-1.6 0.26-0.55-0.08-1.06-0.32-1.46-0.7-0.41-0.38-0.69-0.87-0.8-1.42-0.11-0.54-0.06-1.1 0.16-1.61q-0.32-0.22-0.63-0.46-0.31-0.24-0.62-0.49-0.3-0.25-0.59-0.51-0.29-0.27-0.57-0.54-1.44 0.23-2.89 0.24-1.45 0.01-2.89-0.2-1.44-0.22-2.83-0.65-1.39-0.42-2.7-1.06 0.88-0.61 1.72-1.28 0.83-0.68 1.6-1.42 0.78-0.74 1.49-1.54 0.71-0.8 1.36-1.65z"/>
			</g>
			<path class="s3" d="m126.26 500q-0.24-0.48-0.28-1.01-0.04-0.53 0.12-1.04 0.17-0.51 0.52-0.92 0.35-0.4 0.83-0.64 0.14-0.07 0.29-0.13 0.15-0.05 0.3-0.09 0.16-0.04 0.31-0.05 0.16-0.02 0.32-0.02 0.28-1.51 0.81-2.95 0.52-1.44 1.27-2.78 0.76-1.34 1.71-2.54 0.96-1.2 2.1-2.23-0.19-0.72-0.31-1.45-0.13-0.73-0.2-1.47-0.07-0.74-0.08-1.49-0.01-0.74 0.04-1.48l9.89-1.66-9.61-0.61q0.07-0.34 0.14-0.67 0.08-0.34 0.17-0.67 0.09-0.34 0.19-0.67 0.11-0.32 0.22-0.65-0.14-0.09-0.27-0.2-0.13-0.12-0.24-0.24-0.11-0.13-0.21-0.27-0.09-0.14-0.17-0.29c-0.24-0.48-0.33-1.02-0.26-1.56 0.07-0.53 0.3-1.03 0.65-1.44 0.36-0.4 0.83-0.69 1.35-0.82 0.52-0.13 1.07-0.11 1.58 0.07q0.66-0.94 1.43-1.79 0.77-0.85 1.64-1.6 0.87-0.75 1.82-1.39 0.96-0.63 1.98-1.15c3.23-1.64 6.87-2.31 10.47-1.94 3.61 0.38 7.03 1.78 9.85 4.05 2.83 2.27 4.94 5.31 6.08 8.75 1.15 3.43 1.27 7.13 0.37 10.64q0.72 0.31 1.16 0.96 0.44 0.64 0.47 1.42 0.02 0.79-0.37 1.46-0.41 0.67-1.1 1.03-0.26 0.13-0.53 0.2-0.28 0.08-0.57 0.09-0.29 0.01-0.57-0.04-0.28-0.04-0.55-0.15-0.36 0.61-0.77 1.18-0.4 0.58-0.85 1.12-0.45 0.55-0.94 1.06-0.49 0.51-1.01 0.98 0.38 1.49 0.52 3.01 0.14 1.53 0.03 3.06-0.12 1.53-0.47 3.02-0.36 1.49-0.95 2.91l-13.23-3.48 11.83 6.23c-1.78 2.83-4.27 5.15-7.24 6.7-2.96 1.55-6.28 2.28-9.63 2.12-3.34-0.15-6.58-1.19-9.38-3.02-2.81-1.82-5.08-4.35-6.58-7.34q-0.39-0.78-0.71-1.59-0.32-0.81-0.56-1.65-0.25-0.83-0.41-1.69-0.17-0.85-0.26-1.72-0.34-0.03-0.66-0.15-0.32-0.11-0.61-0.31-0.28-0.19-0.5-0.45-0.23-0.25-0.38-0.56z"/>
			<path class="s4" d="m126.26 500q-0.24-0.48-0.28-1.01-0.04-0.53 0.12-1.04 0.17-0.51 0.52-0.92 0.35-0.4 0.83-0.64 0.14-0.07 0.29-0.13 0.15-0.05 0.3-0.09 0.16-0.04 0.31-0.05 0.16-0.02 0.32-0.02 0.28-1.51 0.81-2.95 0.52-1.44 1.27-2.78 0.76-1.34 1.71-2.54 0.96-1.2 2.1-2.23-0.12-0.47-0.21-0.94 0.13 0.1 0.26 0.2 0.13 0.1 0.26 0.21 0.12 0.1 0.24 0.22 0.13 0.11 0.24 0.23c1.79 2 2.71 4.59 4.47 6.57q0.82 0.85 1.78 1.53 0.96 0.68 2.03 1.18 1.06 0.5 2.2 0.8 1.14 0.29 2.32 0.38 1.17 0.08 2.35 0.07 1.17 0 2.34-0.1 1.17-0.09 2.33-0.27 1.17-0.18 2.31-0.45 0.94-0.24 1.9-0.42 0.96-0.17 1.93-0.28 0.97-0.11 1.94-0.14 0.98-0.04 1.95-0.01l0.74 0.1-0.46 0.43q0.38 1.49 0.52 3.01 0.14 1.53 0.03 3.06-0.12 1.53-0.47 3.02-0.36 1.49-0.95 2.91l-13.26-3.48 11.83 6.23c-1.78 2.83-4.27 5.15-7.24 6.7-2.96 1.55-6.28 2.28-9.63 2.12-3.34-0.15-6.58-1.19-9.38-3.02-2.81-1.82-5.08-4.35-6.58-7.34q-0.39-0.78-0.71-1.59-0.32-0.81-0.56-1.65-0.25-0.83-0.41-1.69-0.17-0.85-0.26-1.72-0.34-0.03-0.66-0.15-0.32-0.11-0.61-0.31-0.28-0.19-0.5-0.45-0.23-0.25-0.38-0.56z"/>
		</g>
		<path class="s0" d="m346.35 51.91q-1.47-0.28-2.97-0.34-1.5-0.06-3 0.1-1.49 0.17-2.94 0.55-1.45 0.38-2.83 0.97-1.66 0.74-3.45 1.12-1.78 0.38-3.6 0.38-1.82 0-3.6-0.38-1.79-0.38-3.45-1.12-1.97-0.86-4.07-1.28-2.11-0.42-4.26-0.38-2.14 0.04-4.23 0.55-2.09 0.5-4.02 1.44-0.55 0.29-1.13 0.51-0.58 0.22-1.18 0.37-0.61 0.15-1.22 0.23-0.62 0.08-1.24 0.08c-6.72 0-12.31-6.77-13.47-15.7q0.5-0.37 0.97-0.78 0.46-0.41 0.88-0.87 0.43-0.46 0.8-0.95 0.38-0.49 0.71-1.02c3.94-6.35 10-10.43 16.89-10.43 6.89 0 12.89 4 16.83 10.31q0.88 1.42 2.1 2.57 1.21 1.15 2.68 1.96 1.46 0.81 3.08 1.22 1.63 0.4 3.3 0.39h0.18c5.3-0.03 9.93 4.26 12.24 10.5z"/>
		<path class="s0" d="m366.77 23.91l-10.86 6.89 6.59-12q-0.7-0.55-1.47-0.99-0.78-0.43-1.62-0.73-0.84-0.3-1.71-0.45-0.88-0.16-1.77-0.17h-0.17q-0.28 0-0.56-0.01-0.29 0-0.57-0.03-0.28-0.02-0.56-0.05-0.28-0.03-0.56-0.08l-3.69 2.34 1.58-2.87q-0.97-0.34-1.87-0.82-0.91-0.48-1.73-1.1-0.82-0.62-1.53-1.35-0.72-0.74-1.31-1.58l-6.61 4.13 4.16-7.57c-3.85-4.63-9.05-7.47-14.76-7.47-6.85 0-13 4.08-16.9 10.43q-0.88 1.42-2.09 2.57-1.22 1.14-2.69 1.93-1.47 0.79-3.09 1.18-1.63 0.37-3.3 0.32h-0.33c-7.56 0-13.7 8.57-13.7 19.16 0 10.59 6.14 19.15 13.7 19.15q0.62 0 1.24-0.08 0.61-0.08 1.22-0.23 0.6-0.15 1.18-0.37 0.58-0.22 1.13-0.51 1.93-0.94 4.02-1.44 2.09-0.51 4.23-0.55 2.15-0.04 4.26 0.38 2.1 0.43 4.07 1.29 1.66 0.74 3.45 1.12 1.78 0.37 3.6 0.38 1.82-0.01 3.6-0.38 1.79-0.38 3.45-1.12 1.95-0.85 4.04-1.26 2.08-0.41 4.21-0.37 2.13 0.04 4.19 0.53 2.07 0.5 3.99 1.42 0.55 0.28 1.12 0.5 0.57 0.21 1.17 0.36 0.6 0.15 1.21 0.22 0.61 0.08 1.22 0.08c7.57 0 13.7-8.57 13.7-19.15q0.01-1.52-0.17-3.02-0.18-1.51-0.54-2.99-0.37-1.47-0.91-2.89-0.54-1.41-1.26-2.75z"/>
		<path class="s0" d="m120.35 190.45q-2.11-0.4-4.25-0.48-2.14-0.09-4.27 0.14-2.13 0.24-4.2 0.78-2.08 0.54-4.05 1.38-2.38 1.05-4.93 1.59-2.54 0.54-5.15 0.53-2.6-0.01-5.14-0.55-2.55-0.55-4.92-1.62-2.81-1.23-5.82-1.83-3.01-0.6-6.07-0.54-3.07 0.06-6.05 0.78-2.98 0.72-5.74 2.06-0.79 0.41-1.62 0.73-0.83 0.32-1.69 0.53-0.86 0.22-1.74 0.33-0.88 0.11-1.77 0.11c-9.6 0-17.59-9.67-19.25-22.43q0.72-0.52 1.38-1.11 0.67-0.59 1.27-1.24 0.6-0.65 1.14-1.36 0.54-0.71 1.01-1.46c5.63-9.07 14.35-14.9 24.14-14.9 9.79 0 18.4 5.76 24 14.73q1.26 2.04 3 3.69 1.74 1.65 3.85 2.8 2.1 1.15 4.43 1.73 2.32 0.58 4.72 0.55h0.25c7.58-0.01 14.2 6.12 17.47 15.06z"/>
		<path class="s0" d="m149.55 150.4l-15.52 9.84 9.42-17.13q-0.99-0.79-2.11-1.41-1.11-0.62-2.31-1.05-1.19-0.43-2.45-0.65-1.25-0.22-2.52-0.24h-0.25q-0.4 0.01-0.81-0.01-0.4-0.01-0.81-0.04-0.4-0.03-0.8-0.08-0.4-0.04-0.8-0.11l-5.24 3.39 2.26-4.1q-1.39-0.49-2.69-1.18-1.29-0.7-2.46-1.59-1.18-0.89-2.19-1.96-1.02-1.06-1.86-2.27l-9.42 6 5.93-10.9c-5.51-6.61-12.93-10.66-21.09-10.66-9.79 0-18.51 5.82-24.14 14.89q-1.25 2.04-2.99 3.69-1.74 1.64-3.85 2.78-2.11 1.13-4.44 1.68-2.33 0.54-4.72 0.46h-0.53c-10.81 0-19.57 12.25-19.57 27.37 0 15.12 8.76 27.37 19.57 27.37q0.89 0 1.77-0.11 0.88-0.11 1.74-0.33 0.87-0.21 1.7-0.53 0.83-0.32 1.61-0.74 2.76-1.34 5.74-2.06 2.98-0.71 6.05-0.77 3.07-0.06 6.07 0.54 3.01 0.6 5.82 1.83 2.37 1.07 4.92 1.62 2.54 0.54 5.14 0.55 2.61 0.01 5.15-0.53 2.55-0.54 4.93-1.59 2.79-1.21 5.77-1.8 2.98-0.59 6.02-0.53 3.04 0.06 5.99 0.76 2.96 0.7 5.7 2.02 0.78 0.41 1.6 0.72 0.82 0.31 1.67 0.52 0.85 0.21 1.72 0.32 0.87 0.11 1.75 0.11c10.81 0 19.57-12.26 19.57-27.37q0.03-2.18-0.22-4.34-0.24-2.16-0.75-4.27-0.51-2.12-1.28-4.15-0.77-2.04-1.79-3.96z"/>
		<path class="s0" d="m747.97 90.91q1.47-0.28 2.97-0.34 1.5-0.06 3 0.1 1.49 0.17 2.94 0.55 1.45 0.38 2.83 0.97 1.66 0.74 3.44 1.12 1.78 0.38 3.6 0.38 1.83 0 3.61-0.38 1.78-0.38 3.44-1.12 1.97-0.86 4.07-1.28 2.11-0.42 4.26-0.38 2.14 0.04 4.23 0.55 2.09 0.5 4.02 1.44 0.55 0.29 1.13 0.51 0.58 0.22 1.18 0.37 0.61 0.15 1.22 0.23 0.62 0.08 1.24 0.08c6.72 0 12.32-6.77 13.48-15.7q-0.5-0.37-0.97-0.78-0.46-0.41-0.88-0.87-0.43-0.45-0.8-0.95-0.38-0.49-0.71-1.02c-3.92-6.37-10.05-10.48-16.92-10.48-6.87 0-12.88 4-16.82 10.31q-0.88 1.43-2.1 2.58-1.21 1.16-2.68 1.97-1.47 0.81-3.1 1.22-1.62 0.41-3.3 0.4h-0.17c-5.32-0.01-9.96 4.28-12.21 10.52z"/>
		<path class="s0" d="m727.49 62.91l10.86 6.87-6.6-12q0.7-0.55 1.47-0.99 0.78-0.43 1.62-0.73 0.84-0.3 1.71-0.45 0.88-0.16 1.77-0.17h0.18q0.28 0 0.56-0.01 0.29 0 0.57-0.03 0.28-0.02 0.56-0.05 0.28-0.03 0.56-0.08l3.68 2.34-1.58-2.87q0.98-0.33 1.89-0.81 0.91-0.48 1.74-1.09 0.83-0.62 1.55-1.36 0.72-0.73 1.32-1.57l6.59 4.18-4.17-7.57c3.86-4.63 9-7.47 14.77-7.47 6.85 0 13 4.08 16.9 10.43q0.88 1.42 2.09 2.57 1.22 1.14 2.69 1.94 1.47 0.79 3.09 1.17 1.63 0.38 3.3 0.32h0.36c7.57 0 13.7 8.57 13.7 19.16 0 10.59-6.13 19.15-13.7 19.15q-0.62 0-1.24-0.08-0.61-0.08-1.22-0.23-0.6-0.15-1.18-0.37-0.58-0.22-1.13-0.51-1.93-0.94-4.02-1.44-2.09-0.51-4.23-0.55-2.15-0.04-4.26 0.38-2.1 0.43-4.07 1.29-1.66 0.74-3.44 1.12-1.78 0.37-3.61 0.37-1.82 0-3.6-0.37-1.78-0.38-3.44-1.12-1.95-0.85-4.04-1.26-2.09-0.41-4.21-0.37-2.13 0.04-4.2 0.53-2.07 0.5-3.99 1.42-0.55 0.28-1.12 0.5-0.57 0.22-1.17 0.36-0.6 0.15-1.21 0.22-0.61 0.08-1.22 0.08c-7.56 0-13.7-8.57-13.7-19.15q-0.02-1.52 0.15-3.03 0.17-1.52 0.53-3 0.35-1.48 0.89-2.9 0.54-1.42 1.25-2.77z"/>
		<path class="s0" d="m615.63 776.88c-63.6 0-115-8.94-115-20 0-11.06 51.4-20 115-20 63.6 0 115 8.94 115 20 0 11.06-51.4 20-115 20z"/>
		<path class="s5" d="m555.44 661.88l-178.19-2.29 0.53-4.57 8.61-75.39h156.49l11.51 75.39 0.88 5.72 0.17 1.14z"/>
		<path class="s4" d="m555.27 660.74h-88.92l-89.1-1.15 0.53-4.57h176.61l0.88 5.72z"/>
		<path class="s5" d="m347.55 656.17h236.45v5.71h-236.45z"/>
		<path class="s1" d="m809.59 126.83c0.01-1.95-0.37-3.88-1.11-5.69-0.74-1.81-1.83-3.45-3.2-4.83-1.38-1.39-3.01-2.49-4.81-3.24-1.8-0.76-3.73-1.15-5.68-1.16h-660.32c-1.95 0.01-3.88 0.4-5.69 1.16-1.8 0.75-3.43 1.86-4.8 3.24-1.38 1.39-2.47 3.04-3.2 4.84-0.74 1.81-1.12 3.75-1.11 5.7v400.25h689.92z"/>
		<path class="s5" d="m119.67 523.1v46.88c0 1.94 0.38 3.87 1.13 5.66 0.74 1.8 1.83 3.43 3.2 4.81 1.38 1.37 3.01 2.46 4.81 3.2 1.79 0.75 3.72 1.13 5.66 1.13h660.32c1.94 0 3.87-0.38 5.66-1.13 1.8-0.74 3.43-1.83 4.81-3.2 1.37-1.38 2.46-3.01 3.2-4.81 0.75-1.79 1.13-3.72 1.13-5.66v-46.88z"/>
		<path class="s6" d="m148.23 137.01h636.23v359.81h-636.23z"/>
		<path class="s7" d="m468.06 566.99q1.75 0 3.46-0.39 1.71-0.39 3.28-1.16 1.58-0.76 2.94-1.86 1.37-1.1 2.45-2.48 0.16-0.21 0.32-0.42 0.16-0.22 0.31-0.44 0.15-0.22 0.29-0.45 0.14-0.22 0.28-0.45l-8.47-1.43 9.15 0.06q0.66-1.43 1.01-2.97 0.36-1.53 0.4-3.11 0.03-1.57-0.25-3.12-0.28-1.55-0.87-3.01l-12.27 6.36 11.32-8.32c-2.15-3.69-5.73-6.33-9.9-7.28-4.17-0.95-8.54-0.13-12.08 2.27-3.54 2.4-5.92 6.15-6.58 10.38-0.66 4.22 0.46 8.53 3.09 11.89q1.08 1.38 2.44 2.49 1.36 1.1 2.94 1.87 1.57 0.77 3.28 1.17 1.71 0.4 3.46 0.4z"/>
		<path class="s4" d="m483.48 584.77l71.09 71.4-10.91-71.4h-60.18z"/>
		<path class="s8" d="m147.73 137.05h636.92v21.02h-636.92z"/>
		<path class="s9" d="m369.45 140.71h190.74c0.32 0 0.58 0.26 0.58 0.58v11.63c0 0.32-0.26 0.58-0.58 0.58h-190.74c-0.32 0-0.58-0.26-0.58-0.58v-11.63c0-0.32 0.26-0.58 0.58-0.58z"/>
		<path class="s1" d="m555.07 148.43h-0.47l-0.17-0.15q0.22-0.26 0.38-0.55 0.17-0.3 0.29-0.62 0.11-0.31 0.17-0.65 0.06-0.33 0.06-0.67c-0.01-1.53-0.94-2.9-2.36-3.47-1.41-0.58-3.03-0.24-4.11 0.84-1.07 1.09-1.39 2.71-0.8 4.12 0.59 1.41 1.97 2.32 3.5 2.32q0.34 0 0.67-0.06 0.34-0.06 0.65-0.18 0.32-0.11 0.62-0.28 0.29-0.17 0.55-0.39l0.17 0.15v0.47l2.93 2.93 0.87-0.88zm-3.51 0c-1.07 0-2.03-0.64-2.45-1.62-0.41-0.99-0.18-2.13 0.57-2.88 0.75-0.76 1.89-0.99 2.88-0.58 0.99 0.41 1.63 1.37 1.63 2.44q0 0.52-0.19 1.01-0.2 0.49-0.57 0.86-0.37 0.37-0.86 0.57-0.49 0.2-1.01 0.2z"/>
		<path class="s10" d="m159.18 151.41c-2.13 0-3.85-1.72-3.85-3.85 0-2.13 1.72-3.85 3.85-3.85 2.13 0 3.85 1.72 3.85 3.85 0 2.13-1.72 3.85-3.85 3.85z"/>
		<path class="s11" d="m169.77 151.41c-2.13 0-3.85-1.72-3.85-3.85 0-2.13 1.72-3.85 3.85-3.85 2.13 0 3.85 1.72 3.85 3.85 0 2.13-1.72 3.85-3.85 3.85z"/>
		<path class="s12" d="m180.37 151.41c-2.13 0-3.85-1.72-3.85-3.85 0-2.13 1.72-3.85 3.85-3.85 2.13 0 3.85 1.72 3.85 3.85 0 2.13-1.72 3.85-3.85 3.85z"/>
		<path class="s7" d="m500.05 291.4c-8.73-11.6-21.38-18.92-35.46-18.92-14.08 0-26.73 7.32-35.46 18.92q0.72 1.77 1.62 3.46 0.89 1.69 1.95 3.28 1.06 1.6 2.27 3.08 1.21 1.48 2.56 2.83c4.47 4.46 9.97 7.75 16.01 9.58 6.05 1.82 12.45 2.12 18.64 0.87 6.19-1.26 11.98-4.02 16.84-8.05 4.86-4.03 8.65-9.2 11.03-15.05z"/>
		<path class="s7" d="m424.52 298.19q-0.23-0.1-0.46-0.21-0.23-0.12-0.45-0.24-0.22-0.13-0.43-0.26-0.21-0.14-0.42-0.29-0.31-0.25-0.59-0.54-0.28-0.29-0.52-0.6-0.25-0.32-0.46-0.66-0.2-0.35-0.37-0.71c1.17-2.4 0.91-5.24-0.67-7.39-1.57-2.15-4.21-3.25-6.84-2.85-2.64 0.39-4.84 2.2-5.72 4.72-0.88 2.51-0.3 5.31 1.51 7.26q0.19 0.2 0.39 0.39 0.2 0.18 0.41 0.35 0.22 0.18 0.44 0.33 0.23 0.16 0.46 0.3 0.3 0.18 0.58 0.39 0.28 0.22 0.52 0.47 0.24 0.26 0.44 0.54 0.21 0.29 0.37 0.6 0.31 0.62 0.67 1.2 0.36 0.59 0.78 1.14 0.42 0.55 0.89 1.05 0.47 0.51 0.98 0.97 0.53 0.45 1.08 0.88 0.55 0.43 1.12 0.83 0.57 0.4 1.16 0.77 0.58 0.38 1.19 0.72-0.83 2.36-1.49 4.77-0.65 2.41-1.12 4.87-0.47 2.45-0.75 4.94-0.28 2.48-0.38 4.98-0.97 0.02-1.93 0.1-0.97 0.09-1.92 0.24-0.96 0.16-1.9 0.38-0.95 0.22-1.87 0.51-0.47 0.15-0.93 0.33-0.46 0.19-0.91 0.41-0.44 0.22-0.86 0.47-0.43 0.26-0.83 0.55-0.11-0.01-0.22-0.02-0.11-0.01-0.21-0.02-0.11-0.01-0.22-0.01-0.11-0.01-0.22-0.01c-2.67 0-5.13 1.48-6.37 3.85-1.24 2.37-1.06 5.23 0.46 7.43 1.52 2.2 4.14 3.37 6.79 3.05 2.66-0.33 4.91-2.11 5.85-4.61q0.21-0.59 0.58-1.11 0.36-0.51 0.85-0.91 0.5-0.4 1.07-0.65 0.58-0.25 1.21-0.33 0.23-0.03 0.46-0.05 0.23-0.02 0.46-0.04 0.23-0.01 0.47-0.02 0.23-0.01 0.46-0.01 0.32 3.52 1.03 6.98 0.7 3.46 1.78 6.83 1.08 3.36 2.52 6.59 1.44 3.22 3.22 6.27c-4.24 3.29-6.85 6.88-7.95 10.86q-0.08 0.04-0.15 0.09-0.08 0.05-0.15 0.1-0.07 0.05-0.14 0.11-0.07 0.05-0.13 0.11-0.11 0.09-0.22 0.18-0.11 0.09-0.22 0.19-0.1 0.1-0.2 0.2-0.1 0.1-0.2 0.21c-1.74 1.92-2.32 4.63-1.5 7.09 0.81 2.46 2.89 4.29 5.44 4.79 2.54 0.49 5.16-0.42 6.84-2.39 1.68-1.98 2.17-4.71 1.27-7.14q-0.24-0.65-0.29-1.34-0.05-0.7 0.11-1.38 0.15-0.67 0.5-1.28 0.35-0.6 0.85-1.08c0.48-0.45 1-0.93 1.7-1.46 8.11 9.47 17.76 15.54 29.81 16.26v-64.25c-15.93-0.87-29.81-11.24-36.51-24.79zm99.83 31.72q-0.11 0-0.22 0.01-0.11 0-0.22 0.01-0.1 0.01-0.21 0.02-0.11 0.01-0.22 0.02-0.41-0.28-0.83-0.54-0.43-0.25-0.87-0.47-0.44-0.22-0.9-0.41-0.46-0.19-0.93-0.34-0.92-0.29-1.87-0.51-0.94-0.23-1.9-0.38-0.95-0.15-1.92-0.24-0.96-0.08-1.93-0.1-0.1-2.5-0.39-4.98-0.29-2.48-0.76-4.93-0.47-2.46-1.12-4.87-0.65-2.41-1.47-4.77 0.61-0.34 1.19-0.72 0.59-0.37 1.16-0.77 0.57-0.4 1.12-0.83 0.55-0.43 1.08-0.88 0.53-0.49 1.01-1.02 0.49-0.53 0.92-1.11 0.43-0.57 0.81-1.18 0.38-0.62 0.7-1.26 0.15-0.28 0.34-0.53 0.19-0.26 0.41-0.48 0.23-0.22 0.48-0.41 0.26-0.18 0.54-0.33c2.49-1.4 3.92-4.15 3.62-6.99-0.29-2.85-2.24-5.25-4.97-6.11-2.73-0.87-5.7-0.03-7.58 2.13-1.88 2.15-2.3 5.22-1.07 7.8q-0.16 0.37-0.37 0.71-0.21 0.34-0.45 0.66-0.25 0.32-0.53 0.6-0.28 0.29-0.59 0.54-0.21 0.17-0.43 0.34-0.21 0.17-0.43 0.33-0.22 0.16-0.45 0.32-0.22 0.15-0.45 0.3c-6.7 13.54-20.57 23.62-36.48 24.49v64.31c12-0.72 21.71-6.82 29.81-16.26q0.94 0.75 1.61 1.37 0.53 0.49 0.89 1.11 0.36 0.62 0.53 1.31 0.17 0.7 0.13 1.42-0.04 0.72-0.29 1.39c-0.89 2.43-0.4 5.15 1.27 7.12 1.68 1.98 4.29 2.89 6.83 2.4 2.54-0.49 4.62-2.31 5.45-4.76 0.82-2.46 0.26-5.17-1.47-7.09q-0.1-0.11-0.2-0.21-0.1-0.1-0.2-0.2-0.11-0.1-0.22-0.19-0.11-0.09-0.22-0.18c-0.33-0.26-0.57-0.41-0.57-0.41-1.1-4-3.7-7.57-8-10.86q1.78-3.05 3.22-6.27 1.44-3.23 2.52-6.59 1.08-3.37 1.78-6.83 0.71-3.46 1.03-6.98 0.22 0 0.44 0.01 0.23 0.01 0.45 0.03 0.22 0.01 0.44 0.03 0.22 0.02 0.44 0.05 0.64 0.08 1.23 0.33 0.6 0.25 1.1 0.64 0.51 0.4 0.9 0.92 0.38 0.51 0.62 1.11c0.6 1.52 1.7 2.79 3.11 3.61 1.42 0.81 3.08 1.11 4.69 0.86 1.61-0.25 3.09-1.05 4.19-2.26 1.1-1.21 1.76-2.76 1.86-4.39q0.07-1.48-0.44-2.88-0.51-1.39-1.53-2.48-1.01-1.08-2.37-1.68-1.36-0.6-2.85-0.62z"/>
		<path class="s13" d="m681 745.22q-0.22-0.34-0.46-0.67-0.25-0.32-0.52-0.63-0.27-0.3-0.57-0.58-0.3-0.28-0.62-0.53c-4.37-4.13-6.4-10.19-7.48-16.13-1.08-5.94-1.39-12-3.12-17.81q-0.35-1.12-0.75-2.22-0.4-1.1-0.84-2.19-0.44-1.08-0.92-2.15-0.48-1.06-1.01-2.11c-1-2.14-2.26-6.33-4.09-7.83q-0.13-0.12-0.28-0.21-0.15-0.1-0.31-0.18-0.16-0.08-0.33-0.13-0.17-0.06-0.34-0.09-0.32-0.69-0.72-1.34-0.39-0.65-0.84-1.26-0.46-0.6-0.97-1.16-0.52-0.56-1.09-1.06c-2.86-2.59-6.35-4.65-8.26-8q-0.2-0.44-0.42-0.86-0.22-0.42-0.46-0.84-0.24-0.41-0.5-0.81-0.27-0.4-0.55-0.78c-1.29-1.42-3.33-2-4.52-3.5-1.55-1.94-1.2-4.72-1-7.19 0.2-2.47 0-5.43-2.14-6.73-1.28-0.79-2.93-0.71-4.26-1.41-2-1-2.79-3.52-2.75-5.77 0.04-2.25 0.74-4.44 0.92-6.69 0.56-7.16-4.16-14.28-2.34-21.22 0.69-2.63 2.27-4.91 3.44-7.36q0.15-0.31 0.29-0.62 0.14-0.31 0.27-0.63 0.12-0.32 0.23-0.64 0.11-0.32 0.21-0.65 1.17 0.46 2.37 0.84 1.2 0.38 2.42 0.68 1.22 0.29 2.46 0.5 1.24 0.21 2.49 0.33c-5.51-12.36-4.11-26.72-6.68-40l0.33-0.45q0.97-1.28 1.73-2.69 0.76-1.4 1.3-2.91 0.53-1.51 0.83-3.09 0.3-1.57 0.36-3.17c0-4.94-2.31-9.56-3.35-14.4-0.89-4.11-0.85-8.41-2-12.45q-0.3-0.94-0.65-1.86-0.34-0.93-0.74-1.83-0.4-0.91-0.84-1.79-0.44-0.88-0.93-1.74-1.87-3.47-3.93-6.83-1.92-6.36-3.85-12.72c-1.8-5.95-3.65-12-7.15-17.14-1.28-1.88-1.67-5.7-3.64-6.84q-0.6-0.31-1.23-0.52-0.64-0.22-1.3-0.33-0.66-0.12-1.33-0.13-0.67-0.02-1.34 0.07c-2.78-1.56-5.22-3.81-5.57-6.89q-0.01-0.25-0.01-0.5 0.01-0.26 0.03-0.51 0.03-0.25 0.07-0.5 0.05-0.25 0.11-0.49h0.34c4.4-0.4 6.63-4.28 8.92-7.68 3.7-5.5 2.29-12.94 0-19.2q-0.21-0.74-0.51-1.45-0.3-0.7-0.68-1.37-0.38-0.67-0.83-1.29-0.46-0.62-0.98-1.18c-3.21-3-8.29-2.34-12.43-3.79-1.39-0.48-2.69-1.21-4.11-1.55-2.75-0.64-5.63 0.26-8.15 1.53-2.52 1.27-4.87 2.91-7.51 3.91-2.64 1-5.9 1.79-6.55 4.5q-0.07 0.34-0.09 0.69-0.02 0.34 0.01 0.69 0.03 0.35 0.1 0.69 0.08 0.33 0.2 0.66 0.23 0.65 0.54 1.26 0.31 0.61 0.7 1.18 0.39 0.56 0.86 1.07 0.46 0.51 0.99 0.95c-1.12 2.32-1.73 4.85-1.78 7.43-0.05 2.57 0.46 5.13 1.49 7.49 1.03 2.36 2.57 4.46 4.49 6.17 1.93 1.71 4.2 2.98 6.67 3.73q1.14 1.83 2.12 3.73c1.16 2.24 2.14 4.88 1.74 7.28q-0.27 0.29-0.53 0.59-0.26 0.29-0.51 0.6-0.25 0.31-0.49 0.62-0.24 0.32-0.47 0.64c-2.87 4-4.5 8.69-6 13.37q-0.76 2.24-1.44 4.5-0.68 2.27-1.28 4.55-0.6 2.29-1.13 4.59-0.53 2.31-0.98 4.63c-2.44 5.19-5.42 10.15-7.19 15.6q-1.19 0-2.37-0.08-1.19-0.08-2.36-0.23-1.18-0.16-2.34-0.4-1.17-0.24-2.31-0.55l-8.44-1.91c-2.94-0.67-6-1.39-8.3-3.33-1.22-1-2.17-2.33-3.41-3.32-1.24-0.99-3.73-2.15-5.09-1.33q-0.09 0.06-0.18 0.12-0.09 0.06-0.18 0.13-0.09 0.06-0.17 0.13-0.08 0.07-0.16 0.15c-1.24-2.51-2.42-5-3.86-7.43-2.07-3.4-5.15-6.51-9.05-7.16q-0.89-0.14-1.78-0.11-0.9 0.03-1.77 0.23-0.87 0.21-1.69 0.57-0.82 0.37-1.55 0.89c-2.28 1.62-3.71 5-2 7.28q0.16 0.19 0.33 0.37 0.16 0.19 0.34 0.37 0.17 0.17 0.35 0.34 0.18 0.18 0.37 0.34 0.43 0.5 0.84 1.02 0.42 0.52 0.8 1.05 0.39 0.54 0.75 1.1 0.36 0.55 0.7 1.12 1.2 1.68 2.69 3.11 1.49 1.43 3.22 2.55 1.73 1.13 3.65 1.91 1.91 0.78 3.93 1.19l-0.35 1c-0.71 2.08-2.22 4.59-1.84 6.75l37.54 12.85q0.9 0.37 1.83 0.65 0.93 0.29 1.88 0.5 0.95 0.21 1.91 0.34 0.97 0.13 1.94 0.18 0.38 0 0.76-0.03 0.38-0.03 0.75-0.08 0.38-0.05 0.75-0.12 0.37-0.07 0.74-0.17v1.92 0.08c0.1 13.19-2 26.29-2.39 39.47-0.07 2.41 0 5 1.52 6.88 1.7 2.06 4.72 2.47 7.35 2q0.95-0.16 1.86-0.42 0.33 1.24 0.62 2.5 0.29 1.25 0.53 2.52 0.24 1.26 0.43 2.54 0.19 1.27 0.34 2.55l2.48 17.86q0.12 0.69 0.2 1.38 0.09 0.69 0.14 1.38 0.05 0.69 0.06 1.39 0.01 0.69-0.01 1.39c-0.29 4.19-2.5 7.94-4.1 11.81-1.6 3.87-2.55 8.5-0.45 12.12 0.66 1.12 1.57 2.07 2.16 3.23q0.28 0.67 0.48 1.37 0.21 0.7 0.34 1.41 0.12 0.72 0.17 1.45 0.04 0.72 0.01 1.45 0.23 8.08 0.44 16.18-0.16-0.03-0.33-0.02-0.16 0-0.32 0.03-0.16 0.03-0.32 0.09-0.15 0.06-0.29 0.15c-2.08 1.62-1.85 9.33-2 11.72-0.16 4 0 8.08-0.22 12.12q-0.1 2.04-0.31 4.07-0.21 2.03-0.54 4.05-0.33 2.01-0.77 4.01-0.44 1.99-0.99 3.96-0.13 0.64-0.35 1.25-0.21 0.62-0.5 1.2-0.29 0.58-0.65 1.13-0.36 0.54-0.79 1.03-0.44 0.38-0.92 0.71-0.47 0.32-0.99 0.59-0.51 0.26-1.06 0.47-0.54 0.2-1.1 0.34-1.87 0.58-3.77 1.01-1.91 0.43-3.85 0.69-1.93 0.26-3.88 0.36-1.96 0.1-3.91 0.04c-2.11-0.07-4.31-0.27-6.27 0.53-1.96 0.8-3.54 3-2.83 5 0.61 1.68 2.46 2.48 4.13 3.11q1.43 0.5 2.83 1.07 1.41 0.57 2.79 1.21 1.37 0.63 2.72 1.33 1.35 0.69 2.66 1.45 0.51 0.34 1.02 0.67 0.52 0.32 1.06 0.62 0.53 0.3 1.07 0.58 0.55 0.28 1.1 0.54 0.53 0.19 1.07 0.35 0.54 0.17 1.09 0.3 0.55 0.14 1.11 0.25 0.55 0.1 1.11 0.18l17.73 3.06c3.63 0.62 8 1 10.31-2 1.25-1.62 1.43-3.82 1.37-5.88-0.1-4-0.9-8.07-0.38-12.07q0.15-0.89 0.34-1.76 0.19-0.88 0.42-1.75 0.24-0.87 0.51-1.72 0.27-0.86 0.59-1.7 2.65-7.87 5.32-15.73c1.78-5.26 3.58-10.57 4.27-16.09 0.25-2 0.23-4.28-1.3-5.53q-0.14-0.12-0.3-0.22-0.16-0.1-0.32-0.19-0.17-0.09-0.34-0.15-0.18-0.07-0.36-0.12c-0.06-4.82-0.69-9.65-0.42-14.47 0.07-1.2 0.19-2.4 0.29-3.61q0.35 0.33 0.68 0.68 0.33 0.35 0.63 0.71 0.31 0.37 0.6 0.75 0.29 0.38 0.56 0.78c1.71 2.68 2.34 6.22 4.95 8 2.22 1.52 5.51 1.44 7.07 3.64q0.19 0.32 0.35 0.65 0.17 0.32 0.31 0.66 0.14 0.34 0.25 0.69 0.12 0.35 0.21 0.71 0.34 0.88 0.76 1.73 0.43 0.84 0.93 1.64 0.5 0.8 1.08 1.55 0.58 0.74 1.23 1.43 0.22 0.82 0.49 1.63 0.27 0.81 0.58 1.61 0.31 0.79 0.66 1.57 0.35 0.77 0.74 1.53 2.21 4.67 4.4 9.31 0.56 1.25 1.16 2.49 0.59 1.24 1.22 2.46 0.62 1.22 1.28 2.43 0.65 1.2 1.34 2.39 0.52 0.75 1 1.53 0.47 0.78 0.89 1.59 0.42 0.81 0.78 1.65 0.37 0.83 0.68 1.69c1.41 4.94-0.89 10.36-4.53 14-3.64 3.64-8.44 5.73-13.17 7.68q-0.19 0.06-0.36 0.15-0.18 0.08-0.35 0.18-0.17 0.1-0.33 0.22-0.16 0.12-0.3 0.25-0.15 0.18-0.27 0.39-0.12 0.2-0.2 0.42-0.07 0.23-0.11 0.46-0.04 0.23-0.03 0.47c0 2.31 1.9 4.29 4.08 5q0.83 0.22 1.69 0.35 0.85 0.13 1.71 0.16 0.86 0.03 1.72-0.03 0.86-0.07 1.71-0.23c12.78-1.55 25.52-4.67 36.82-10.88q0.63-0.3 1.23-0.67 0.59-0.36 1.15-0.79 0.55-0.43 1.06-0.91 0.5-0.48 0.95-1.02 0.44-0.54 0.71-1.18 0.28-0.64 0.37-1.32 0.1-0.69 0.01-1.38-0.09-0.69-0.36-1.33z"/>
		<path class="s14" d="m626.99 520.97q3.2 4.91 6 10.06 0.49 0.85 0.93 1.73 0.45 0.87 0.85 1.77 0.39 0.9 0.74 1.82 0.35 0.91 0.65 1.85c1.16 4 1.13 8.27 2 12.35 1 4.8 3.34 9.38 3.34 14.3q-0.06 1.59-0.36 3.15-0.3 1.56-0.84 3.06-0.53 1.49-1.29 2.89-0.76 1.4-1.73 2.66-0.97 1.26-2.01 2.46-1.04 1.2-2.14 2.34-1.11 1.14-2.27 2.22-1.17 1.07-2.4 2.08-2.83-7.32-5.03-14.86-2.21-7.53-3.78-15.22-1.56-7.69-2.48-15.49-0.92-7.79-1.19-15.64c-0.1-2.9-0.12-5.89 0.94-8.6 0.65-1.7 3.77-6.36 5.78-4.53 0.73 0.67 0.92 3.69 1.37 4.7q0.32 0.64 0.66 1.27 0.34 0.62 0.7 1.24 0.37 0.61 0.76 1.21 0.39 0.6 0.8 1.18z"/>
		<path class="s4" d="m626.99 520.97q3.2 4.91 6 10.06 0.49 0.85 0.93 1.73 0.45 0.87 0.85 1.77 0.39 0.9 0.74 1.82 0.35 0.91 0.65 1.85c1.16 4 1.13 8.27 2 12.35 1 4.8 3.34 9.38 3.34 14.3q-0.06 1.59-0.36 3.15-0.3 1.56-0.84 3.06-0.53 1.49-1.29 2.89-0.76 1.4-1.73 2.66-0.97 1.26-2.01 2.46-1.04 1.2-2.14 2.34-1.11 1.14-2.27 2.22-1.17 1.07-2.4 2.08-2.83-7.32-5.03-14.86-2.21-7.53-3.78-15.22-1.56-7.69-2.48-15.49-0.92-7.79-1.19-15.64c-0.1-2.9-0.12-5.89 0.94-8.6 0.65-1.7 3.77-6.36 5.78-4.53 0.73 0.67 0.92 3.69 1.37 4.7q0.32 0.64 0.66 1.27 0.34 0.62 0.7 1.24 0.37 0.61 0.76 1.21 0.39 0.6 0.8 1.18z"/>
		<path class="s5" d="m363.35 384.54c-7.91 7.9-8.86 11.38-13.61 12.95-4.75 1.57-21.84 10.42-16.47 20.23l14.44 9.54 0.42 0.28 2.21 6.64-21.84 38.88c0 0-36-16.46-39.53 7.89-3.53 24.35-1.29 31-2.24 44-0.95 13 0.31 16.76-2.86 16.76-3.17 0-4.42-8.54-4.42-8.54 0 0-0.2-0.39-0.55-1.12-4.71-9.79-36.68-81.66 14.53-131.06 0 0 23.72-1.56 29.43-28.76 3.94-18.8 17.72-17.18 26.88-13.35q1.11 0.44 2.19 0.96 1.08 0.52 2.11 1.13 1.03 0.61 2.01 1.29 0.99 0.69 1.91 1.45 0.83 0.79 1.62 1.62 0.79 0.84 1.52 1.71 0.74 0.88 1.43 1.8 0.69 0.92 1.32 1.87c2.61 4.12 4.03 9.29-0.5 13.83z"/>
		<path class="s4" d="m348.13 427.54l2.21 6.64-21.84 38.88c0 0-36-16.46-39.53 7.89-3.53 24.35-1.29 31-2.24 44-0.95 13 0.31 16.76-2.86 16.76-3.17 0-4.42-8.54-4.42-8.54 0 0-0.2-0.39-0.55-1.12-1.59-12.16-9.65-83.29 19.57-79.51 0 0 23.71 11.08 27.5 6.66 3-3.5 16.32-23.63 21.74-31.89z"/>
		<path class="s4" d="m363.85 370.65l-14.44 16.41c0 0-16.77 22.44-20.25 21.49q-0.39-0.09-0.78-0.15-0.4-0.07-0.8-0.11-0.39-0.05-0.79-0.08-0.4-0.02-0.8-0.03c-1.16-0.09-2.27-0.51-3.21-1.2-0.93-0.7-1.65-1.64-2.07-2.73-0.42-1.08-0.52-2.27-0.29-3.41 0.22-1.14 0.77-2.2 1.57-3.04 5.72-6 16.26-17.39 16.95-19.92 0.69-2.53 7.4-13.62 10.76-19.05q1.11 0.44 2.19 0.96 1.08 0.52 2.11 1.13 1.03 0.61 2.01 1.29 0.99 0.69 1.91 1.45 0.84 0.79 1.63 1.62 0.79 0.83 1.53 1.71 0.75 0.87 1.44 1.79 0.69 0.92 1.33 1.87z"/>
		<path class="s15" d="m772.41 606.74c-2.45 4.9-15 23.28-20.49 31.31l-2.57 3.78c0 0-1 6.64-17.39-1.59-16.39-8.23-401.48-170.72-401.48-170.72l-2.61-7.84 19-28.45 422.07 163.07c0 0 6.64 4.11 3.47 10.44z"/>
		<path class="s4" d="m751.92 638.05l-2.57 3.78c0 0-1 6.64-17.39-1.59-16.39-8.23-401.48-170.72-401.48-170.72l-2.61-7.84z"/>
		<path class="s16" d="m519.64 531.91c-3.91-0.64-8.25-0.33-11.29 2.21q-0.68 0.58-1.24 1.28-0.56 0.69-0.98 1.49-0.41 0.79-0.67 1.64-0.26 0.86-0.35 1.75c-0.26 2.77 1.35 6.06 4.13 6.27q0.25 0 0.5 0 0.25-0.01 0.5-0.03 0.25-0.01 0.5-0.04 0.25-0.02 0.5-0.06 0.66 0 1.32 0.02 0.65 0.03 1.31 0.08 0.66 0.06 1.31 0.14 0.65 0.09 1.3 0.2 2.55 0.24 5.09-0.13 2.54-0.37 4.92-1.33 2.38-0.96 4.46-2.46 2.09-1.49 3.76-3.44c2.39-3-0.76-4.3-3.58-4.9-3.86-0.82-7.63-2.07-11.49-2.69z"/>
		<path class="s1" d="m586.52 622.22l2.48 17.62q0.12 0.68 0.2 1.37 0.08 0.69 0.13 1.38 0.05 0.69 0.06 1.38 0.01 0.69-0.01 1.38c-0.29 4.15-2.5 7.87-4.09 11.71-1.59 3.84-2.56 8.44-0.45 12 0.65 1.11 1.56 2.06 2.15 3.21q0.28 0.66 0.48 1.36 0.21 0.69 0.34 1.4 0.12 0.71 0.17 1.43 0.04 0.72 0.01 1.44l0.68 25q2.89 0.2 5.79 0.29 2.9 0.09 5.8 0.07 2.9-0.01 5.8-0.14 2.9-0.12 5.79-0.35 0.11 0.01 0.22-0.01 0.12-0.01 0.22-0.05 0.11-0.03 0.21-0.08 0.1-0.05 0.19-0.12 0.08-0.1 0.13-0.2 0.06-0.11 0.1-0.23 0.03-0.12 0.05-0.24 0.02-0.12 0.01-0.24c0.34-5.85-0.68-11.71-0.35-17.56 0.12-2.14 0.42-4.27 0.46-6.42 0.12-8.71-4.18-17.24-2.88-25.85q0.15-0.81 0.33-1.62 0.18-0.81 0.38-1.62 0.2-0.8 0.42-1.6 0.22-0.8 0.47-1.59c4.11-15 3.24-30.76 2.33-46.25q0.01-0.09 0-0.19-0.01-0.09-0.04-0.18-0.03-0.09-0.07-0.17-0.04-0.08-0.09-0.16-0.06-0.06-0.12-0.1-0.06-0.05-0.13-0.08-0.07-0.04-0.14-0.07-0.07-0.02-0.15-0.04-3.28-0.98-6.7-1.16-3.42-0.18-6.79 0.46-3.36 0.64-6.48 2.06-3.12 1.42-5.81 3.54c-1.09 0.88-3.84 1.73-4.56 2.78-1 1.46 0.31 2.92 0.89 4.47q0.48 1.46 0.88 2.94 0.41 1.48 0.73 2.98 0.32 1.5 0.56 3.01 0.24 1.51 0.4 3.04z"/>
		<path class="s4" d="m586.52 622.22l2.48 17.62q0.12 0.68 0.2 1.37 0.08 0.69 0.13 1.38 0.05 0.69 0.06 1.38 0.01 0.69-0.01 1.38c-0.29 4.15-2.5 7.87-4.09 11.71-1.59 3.84-2.56 8.44-0.45 12 0.65 1.11 1.56 2.06 2.15 3.21q0.28 0.66 0.48 1.36 0.21 0.69 0.34 1.4 0.12 0.71 0.17 1.43 0.04 0.72 0.01 1.44l0.68 25q2.89 0.2 5.79 0.29 2.9 0.09 5.8 0.07 2.9-0.01 5.8-0.14 2.9-0.12 5.79-0.35 0.11 0.01 0.22-0.01 0.12-0.01 0.22-0.05 0.11-0.03 0.21-0.08 0.1-0.05 0.19-0.12 0.08-0.1 0.13-0.2 0.06-0.11 0.1-0.23 0.03-0.12 0.05-0.24 0.02-0.12 0.01-0.24c0.34-5.85-0.68-11.71-0.35-17.56 0.12-2.14 0.42-4.27 0.46-6.42 0.12-8.71-4.18-17.24-2.88-25.85q0.15-0.81 0.33-1.62 0.18-0.81 0.38-1.62 0.2-0.8 0.42-1.6 0.22-0.8 0.47-1.59c4.11-15 3.24-30.76 2.33-46.25q0.01-0.09 0-0.19-0.01-0.09-0.04-0.18-0.03-0.09-0.07-0.17-0.04-0.08-0.09-0.16-0.06-0.06-0.12-0.1-0.06-0.05-0.13-0.08-0.07-0.04-0.14-0.07-0.07-0.02-0.15-0.04-3.28-0.98-6.7-1.16-3.42-0.18-6.79 0.46-3.36 0.64-6.48 2.06-3.12 1.42-5.81 3.54c-1.09 0.88-3.84 1.73-4.56 2.78-1 1.46 0.31 2.92 0.89 4.47q0.48 1.46 0.88 2.94 0.41 1.48 0.73 2.98 0.32 1.5 0.56 3.01 0.24 1.51 0.4 3.04z"/>
		<path class="s1" d="m632.89 616.91c-1.17 2.43-2.74 4.69-3.44 7.3-1.82 6.89 2.89 14 2.33 21.06-0.18 2.23-0.87 4.4-0.92 6.63-0.05 2.23 0.77 4.71 2.75 5.74 1.33 0.68 3 0.61 4.25 1.39 2.11 1.29 2.35 4.22 2.14 6.68-0.21 2.46-0.56 5.21 1 7.13 1.19 1.49 3.23 2.07 4.51 3.48q0.29 0.38 0.55 0.77 0.26 0.4 0.51 0.81 0.24 0.41 0.46 0.83 0.21 0.42 0.41 0.85c1.91 3.34 5.4 5.38 8.26 8 2.86 2.62 5.28 6.46 4 10.09-0.94 2.66-3.58 4.3-6.12 5.55q-1.74 0.86-3.52 1.61-1.79 0.75-3.61 1.4-1.83 0.65-3.69 1.18-1.86 0.54-3.75 0.96-0.2 0.06-0.41 0.1-0.21 0.03-0.42 0.05-0.21 0.01-0.42-0.01-0.21-0.01-0.42-0.05-0.21-0.08-0.41-0.18-0.2-0.1-0.38-0.23-0.19-0.12-0.36-0.27-0.16-0.15-0.31-0.32c-2.95-2.89-6-5.92-7.36-9.81q-0.09-0.35-0.21-0.7-0.11-0.34-0.25-0.68-0.14-0.34-0.31-0.66-0.16-0.33-0.35-0.64c-1.56-2.19-4.85-2.11-7.07-3.62-2.6-1.77-3.23-5.28-4.93-7.93-1.7-2.65-4.19-4.23-6-6.56-3.06-3.88-3.81-9.06-6-13.49-0.93-1.88-2.12-3.64-2.86-5.6q-0.28-0.88-0.51-1.78-0.22-0.89-0.39-1.8-0.18-0.91-0.29-1.82-0.12-0.92-0.18-1.84c-1.41-11.68-5-23.44-2.74-35 0.5-2.54 1.27-5 1.59-7.62 0.55-4.53-0.32-9.17 0.35-13.69q0.01-0.43 0.12-0.84 0.11-0.41 0.3-0.79 0.2-0.38 0.47-0.7 0.28-0.32 0.62-0.58 0.2-0.09 0.41-0.16 0.21-0.07 0.43-0.11 0.22-0.04 0.44-0.06 0.22-0.02 0.44-0.02 2.22-0.12 4.45-0.15 2.22-0.04 4.45 0.01 2.22 0.05 4.44 0.19 2.23 0.13 4.44 0.35c3 0.29 6.36 0.9 8.16 3.35 1.53 2.1 1.45 4.91 1.94 7.46 0.61 3.14 2.2 4.85 3.87 7.31 1.67 2.46 0.77 4.89-0.46 7.43z"/>
		<path class="s14" d="m609.82 698.17c1.58 0 3.33-0.1 4.55 0.9 1.52 1.25 1.54 3.54 1.3 5.49-0.7 5.48-2.49 10.75-4.28 16l-5.32 15.61q-0.32 0.83-0.59 1.68-0.27 0.85-0.51 1.71-0.23 0.87-0.42 1.74-0.19 0.87-0.34 1.75c-0.52 4 0.28 8 0.38 12 0 2-0.13 4.22-1.38 5.83-2.26 2.91-6.67 2.57-10.3 2l-17.71-3q-0.56-0.07-1.11-0.18-0.56-0.1-1.11-0.24-0.55-0.13-1.09-0.29-0.54-0.17-1.07-0.36-0.55-0.26-1.1-0.53-0.54-0.28-1.07-0.58-0.53-0.3-1.05-0.62-0.52-0.32-1.03-0.66-1.31-0.75-2.66-1.44-1.35-0.69-2.72-1.31-1.38-0.63-2.79-1.19-1.4-0.56-2.83-1.06c-1.66-0.62-3.52-1.41-4.12-3.08-0.71-2 0.87-4.2 2.83-5 1.96-0.8 4.15-0.6 6.27-0.54q1.95 0.06 3.9-0.04 1.95-0.1 3.89-0.36 1.93-0.26 3.84-0.68 1.9-0.42 3.77-1 0.56-0.14 1.1-0.34 0.54-0.2 1.05-0.47 0.52-0.26 1-0.59 0.47-0.32 0.91-0.7 0.44-0.5 0.82-1.05 0.37-0.55 0.67-1.15 0.29-0.6 0.51-1.23 0.21-0.63 0.34-1.28 0.57-1.95 1.02-3.94 0.45-1.98 0.78-3.98 0.34-2.01 0.56-4.03 0.22-2.02 0.32-4.05c0.21-4 0.07-8 0.23-12 0.1-2.37-0.13-10 1.95-11.63 1.59-1.22 8.13 2.15 10.28 2.64q1.51 0.35 3.05 0.6 1.53 0.25 3.08 0.41 1.54 0.16 3.09 0.22 1.56 0.06 3.11 0.02z"/>
		<path class="s14" d="m668.16 709.29c1.73 5.73 2 11.79 3.12 17.68 1.12 5.89 3.1 11.9 7.47 16q0.32 0.25 0.61 0.53 0.3 0.28 0.57 0.58 0.28 0.3 0.52 0.62 0.25 0.33 0.47 0.67 0.28 0.64 0.37 1.34 0.09 0.69-0.01 1.38-0.1 0.69-0.38 1.33-0.28 0.64-0.73 1.18-0.45 0.53-0.96 1.01-0.5 0.48-1.06 0.91-0.55 0.42-1.14 0.79-0.6 0.36-1.23 0.66c-11.29 6.16-24 9.27-36.81 10.81q-0.85 0.16-1.7 0.22-0.86 0.07-1.72 0.03-0.86-0.03-1.72-0.15-0.85-0.13-1.68-0.35c-2.18-0.74-4.11-2.7-4.07-5q-0.01-0.23 0.03-0.47 0.03-0.23 0.11-0.45 0.08-0.22 0.19-0.43 0.12-0.2 0.27-0.38 0.15-0.13 0.3-0.25 0.16-0.12 0.33-0.22 0.17-0.1 0.35-0.18 0.18-0.08 0.37-0.14c4.72-1.94 9.51-4.05 13.16-7.63 3.65-3.58 5.94-9 4.53-13.86q-0.31-0.85-0.68-1.68-0.37-0.83-0.79-1.64-0.43-0.8-0.9-1.57-0.47-0.78-1-1.52-0.69-1.18-1.34-2.37-0.66-1.2-1.28-2.41-0.63-1.21-1.22-2.44-0.6-1.23-1.16-2.47l-4.4-9.23c-1.29-2.7-2.59-5.48-2.81-8.46q2.07 0.09 4.13-0.03 2.07-0.11 4.11-0.44 2.05-0.33 4.05-0.86 2-0.54 3.93-1.27 0.9-0.37 1.78-0.81 0.87-0.43 1.71-0.93 0.84-0.51 1.63-1.07 0.8-0.57 1.55-1.19c1.7-1.42 3.25-4.07 5.54-2.22 1.84 1.48 3 5.65 4.08 7.76q0.53 1.04 1.01 2.1 0.48 1.06 0.92 2.14 0.44 1.08 0.84 2.17 0.39 1.1 0.74 2.21z"/>
		<path class="s16" d="m603.68 480.1c0.44 3.84 4.16 6.37 7.71 7.89l-22.47 7.17c1.45-2.78 0.28-6.18-1.16-9q-0.44-0.84-0.91-1.66-0.47-0.82-0.97-1.62-0.5-0.8-1.03-1.58-0.53-0.79-1.09-1.55c-0.22-0.31-0.47-0.7-0.31-1.06q0.05-0.09 0.12-0.16 0.07-0.08 0.15-0.14 0.08-0.07 0.17-0.11 0.09-0.05 0.19-0.08c4.62-2.06 9.38-4.19 14.43-4.94 1.46-0.21 4.22-0.79 5.31 0.69 1.09 1.48-0.35 4.38-0.14 6.15z"/>
		<path class="s4" d="m603.68 480.1c0.44 3.84 4.16 6.37 7.71 7.89l-22.47 7.17c1.45-2.78 0.28-6.18-1.16-9q-0.44-0.84-0.91-1.66-0.47-0.82-0.97-1.62-0.5-0.8-1.03-1.58-0.53-0.79-1.09-1.55c-0.22-0.31-0.47-0.7-0.31-1.06q0.05-0.09 0.12-0.16 0.07-0.08 0.15-0.14 0.08-0.07 0.17-0.11 0.09-0.05 0.19-0.08c4.62-2.06 9.38-4.19 14.43-4.94 1.46-0.21 4.22-0.79 5.31 0.69 1.09 1.48-0.35 4.38-0.14 6.15z"/>
		<path class="s16" d="m590.62 483.21c-9.74 0-17.62-7.88-17.62-17.62 0-9.74 7.88-17.62 17.62-17.62 9.74 0 17.62 7.88 17.62 17.62 0 9.74-7.88 17.62-17.62 17.62z"/>
		<path class="s14" d="m575.35 610.59c1.71 2.05 4.72 2.45 7.35 2 6.15-1 11.18-5.53 17.2-7.16 7.38-2 15.19 0.57 22.16 3.72 6.97 3.15 13.9 7 21.52 7.54-6.89-15.36-2.95-33.84-9.54-49.33-1.61-3.79-3.86-7.44-4.22-11.54-0.45-5.09 2.09-10 2.48-15.06 0.36-4.51-1-9-2.3-13.3q-2.41-7.92-4.82-15.84c-1.8-5.91-3.65-11.92-7.14-17-1.29-1.87-1.68-5.66-3.64-6.79-4.28-2.47-10.77 0.64-15.41 0.81-4.64 0.17-8.87 3.47-11.58 7.2-2.87 3.94-4.5 8.63-6 13.27q-0.9 2.59-1.68 5.22-0.78 2.62-1.45 5.28-0.66 2.66-1.21 5.34-0.56 2.68-0.99 5.39-0.23 1.62-0.38 3.25c-1 10.27 0.46 20.6 0.54 30.92v0.07c0.1 13.09-2 26.1-2.39 39.18-0.04 2.39 0.02 5 1.5 6.83z"/>
		<path class="s4" d="m576.27 564.52c3.45-0.87 6.57-3.1 9.25-5.54q0.87-0.78 1.69-1.61 0.82-0.83 1.59-1.7 0.77-0.88 1.49-1.8 0.71-0.93 1.37-1.89 0.83-1.3 1.58-2.64 0.74-1.34 1.41-2.73 0.66-1.39 1.24-2.82 0.57-1.42 1.06-2.88 1.39-3.9 2.52-7.88 1.14-3.98 2.01-8.03 0.88-4.05 1.5-8.14 0.62-4.09 0.97-8.22c0.26-3 0.34-6.22-1.45-8.6q-0.75-0.97-1.78-1.63-1.03-0.67-2.23-0.96-1.19-0.28-2.41-0.16-1.22 0.12-2.33 0.63c-2.36 1.15-3.89 3.48-5.31 5.71-2.81 4.42-5.64 8.9-7.45 13.82-0.8 2.18-1.39 4.42-2.17 6.61q-0.3 0.81-0.62 1.61-0.32 0.8-0.66 1.59-0.34 0.8-0.71 1.58-0.36 0.78-0.75 1.55-0.23 1.62-0.38 3.25c-0.93 10.27 0.49 20.56 0.57 30.88z"/>
		<path class="s14" d="m602.45 498.11c1.79 2.38 1.71 5.63 1.46 8.59q-0.35 4.13-0.97 8.22-0.62 4.09-1.49 8.14-0.88 4.05-2.02 8.03-1.13 3.98-2.52 7.88-0.48 1.47-1.06 2.91-0.57 1.44-1.24 2.84-0.66 1.39-1.41 2.75-0.75 1.35-1.58 2.66-0.66 0.96-1.38 1.88-0.71 0.93-1.48 1.8-0.77 0.88-1.59 1.71-0.82 0.83-1.69 1.61c-3.4 3.1-7.54 5.87-12.15 5.91q-0.97-0.05-1.94-0.17-0.96-0.13-1.91-0.34-0.95-0.2-1.88-0.49-0.93-0.29-1.83-0.65l-37.55-12.78c-0.38-2.14 1.13-4.64 1.84-6.7l2-5.93c0.57-1.64 1.23-3.41 2.72-4.3 1.49-0.89 3.85 0.33 5.09 1.32 1.24 0.99 2.18 2.29 3.4 3.3 2.31 1.92 5.36 2.64 8.3 3.3l8.43 1.89q1.14 0.31 2.31 0.55 1.16 0.23 2.34 0.39 1.17 0.16 2.36 0.24 1.18 0.07 2.37 0.07c2.35-7.18 6.82-13.5 9.35-20.62 0.78-2.18 1.37-4.43 2.18-6.61 1.8-4.92 4.64-9.39 7.45-13.82 1.41-2.22 2.94-4.55 5.31-5.71q1.12-0.52 2.34-0.64 1.23-0.12 2.42 0.16 1.2 0.3 2.23 0.97 1.04 0.67 1.79 1.64z"/>
		<path class="s14" d="m596.24 469.57q-0.05-0.43-0.14-0.86-0.09-0.43-0.23-0.84-0.13-0.42-0.3-0.82-0.18-0.4-0.39-0.78-0.22-0.38-0.55-0.68-0.33-0.29-0.73-0.47-0.41-0.18-0.85-0.22-0.44-0.05-0.87 0.05c-1.76 0.55-2.35 3.27-4.19 3.36-1.24 0.06-2.13-1.2-2.52-2.38-0.39-1.18-0.6-2.53-1.53-3.36q-0.24-0.18-0.5-0.34-0.26-0.15-0.54-0.28-0.27-0.12-0.56-0.22-0.28-0.09-0.58-0.16c-4.27-1.35-8.68-3.84-10.1-8.09q-0.12-0.32-0.2-0.66-0.08-0.33-0.11-0.68-0.03-0.34-0.01-0.69 0.02-0.34 0.09-0.68c0.65-2.69 4-3.5 6.55-4.47 2.55-0.97 5-2.63 7.5-3.89 2.5-1.26 5.4-2.15 8.15-1.51q0.52 0.16 1.04 0.34 0.52 0.18 1.03 0.37 0.52 0.19 1.03 0.4 0.51 0.2 1.01 0.42c4.14 1.44 9.21 0.77 12.42 3.76q0.52 0.55 0.98 1.17 0.45 0.61 0.83 1.27 0.38 0.66 0.68 1.37 0.3 0.7 0.51 1.43c2.24 6.22 3.66 13.6-0.05 19.06-2.29 3.37-4.51 7.22-8.91 7.63-5.12 0.43-7.15-4.21-7.96-8.55z"/>
		<g style="opacity: .1">
			<path class="s2" d="m588.42 463.81c-0.39-1.18-0.6-2.53-1.52-3.36q-0.24-0.18-0.5-0.34-0.26-0.15-0.54-0.28-0.27-0.12-0.56-0.22-0.28-0.09-0.58-0.16c-4.28-1.35-8.68-3.84-10.11-8.09q-0.12-0.32-0.2-0.66-0.07-0.34-0.1-0.68-0.03-0.34-0.01-0.69 0.02-0.34 0.09-0.68 0.04-0.16 0.09-0.32 0.05-0.15 0.12-0.3 0.06-0.15 0.14-0.29 0.09-0.15 0.18-0.28c-1.63 0.71-3.05 1.65-3.45 3.31q-0.07 0.34-0.09 0.68-0.02 0.35 0.01 0.69 0.03 0.35 0.11 0.68 0.08 0.34 0.2 0.66c1.42 4.25 5.83 6.74 10.1 8.09q0.3 0.07 0.58 0.16 0.29 0.1 0.56 0.22 0.28 0.13 0.54 0.28 0.26 0.16 0.5 0.34c0.93 0.83 1.13 2.17 1.53 3.36 0.4 1.19 1.28 2.44 2.52 2.38 1.24-0.06 1.84-1.19 2.63-2.14-1.09-0.14-1.88-1.26-2.24-2.36z"/>
			<path class="s2" d="m607.14 475.97c-5.14 0.47-7.17-4.21-8-8.52q-0.04-0.43-0.13-0.86-0.08-0.42-0.2-0.84-0.13-0.42-0.3-0.82-0.16-0.4-0.37-0.78-0.22-0.38-0.55-0.68-0.33-0.29-0.73-0.47-0.41-0.18-0.85-0.22-0.44-0.04-0.87 0.05-0.34 0.17-0.65 0.38-0.32 0.21-0.6 0.46-0.28 0.26-0.52 0.55-0.24 0.29-0.44 0.61 0.34 0.03 0.67 0.14 0.33 0.11 0.62 0.3 0.3 0.18 0.54 0.42 0.25 0.25 0.43 0.54 0.21 0.38 0.39 0.78 0.17 0.4 0.3 0.82 0.14 0.41 0.23 0.84 0.09 0.43 0.14 0.86c0.81 4.31 2.84 9 8 8.52q0.76-0.08 1.49-0.3 0.73-0.23 1.41-0.58 0.67-0.35 1.27-0.82 0.6-0.47 1.11-1.04-0.28 0.13-0.57 0.24-0.3 0.11-0.6 0.19-0.3 0.08-0.6 0.14-0.31 0.06-0.62 0.09z"/>
		</g>
		<path class="s7" d="m813.11 661.99c-17.86 0-32.29-2.78-32.29-6.21 0-3.43 14.43-6.21 32.29-6.21 17.86 0 32.29 2.78 32.29 6.21 0 3.43-14.43 6.21-32.29 6.21z"/>
		<path class="s1" d="m812.57 658.06c-2.08 0-3.76-2.2-3.76-4.92 0-2.72 1.68-4.92 3.76-4.92 2.08 0 3.76 2.2 3.76 4.92 0 2.72-1.68 4.92-3.76 4.92z"/>
		<path class="s1" d="m812.57 652.04c-2.08 0-3.76-2.2-3.76-4.92 0-2.72 1.68-4.92 3.76-4.92 2.08 0 3.76 2.2 3.76 4.92 0 2.72-1.68 4.92-3.76 4.92z"/>
		<path class="s1" d="m812.57 646.03c-2.08 0-3.76-2.2-3.76-4.92 0-2.72 1.68-4.92 3.76-4.92 2.08 0 3.76 2.2 3.76 4.92 0 2.72-1.68 4.92-3.76 4.92z"/>
		<path class="s1" d="m812.57 640.01c-2.08 0-3.76-2.2-3.76-4.92 0-2.72 1.68-4.92 3.76-4.92 2.08 0 3.76 2.2 3.76 4.92 0 2.72-1.68 4.92-3.76 4.92z"/>
		<path class="s1" d="m812.57 633.99c-2.08 0-3.76-2.2-3.76-4.92 0-2.72 1.68-4.92 3.76-4.92 2.08 0 3.76 2.2 3.76 4.92 0 2.72-1.68 4.92-3.76 4.92z"/>
		<path class="s1" d="m812.57 627.98c-2.08 0-3.76-2.2-3.76-4.92 0-2.72 1.68-4.92 3.76-4.92 2.08 0 3.76 2.2 3.76 4.92 0 2.72-1.68 4.92-3.76 4.92z"/>
		<path class="s1" d="m812.57 621.96c-2.08 0-3.76-2.2-3.76-4.92 0-2.72 1.68-4.92 3.76-4.92 2.08 0 3.76 2.2 3.76 4.92 0 2.72-1.68 4.92-3.76 4.92z"/>
		<path class="s7" d="m826.64 575.91q0.19-0.25 0.38-0.5 0.18-0.25 0.36-0.51 0.17-0.25 0.34-0.52 0.16-0.26 0.32-0.53l-9.88-1.62 10.69 0.07q0.76-1.67 1.18-3.47 0.41-1.79 0.46-3.63 0.04-1.84-0.29-3.65-0.33-1.81-1.01-3.52l-14.34 7.44 13.22-9.72c-2.51-4.32-6.69-7.4-11.56-8.51-4.87-1.11-9.98-0.15-14.11 2.66-4.13 2.8-6.91 7.19-7.68 12.12-0.77 4.93 0.55 9.96 3.63 13.89q-0.3 0.38-0.58 0.78-0.28 0.39-0.54 0.8-0.26 0.42-0.49 0.84-0.24 0.42-0.45 0.86l12.83 6.67-13.68-4.59q-0.72 2.13-0.89 4.36-0.17 2.24 0.21 4.45 0.38 2.21 1.29 4.26 0.91 2.05 2.3 3.81c-4.26 5.42-5.05 12.79-2.03 18.99 3.01 6.2 9.29 10.13 16.19 10.13 6.89 0 13.17-3.93 16.18-10.13 3.02-6.2 2.23-13.57-2.03-18.99 1.24-1.58 2.21-3.35 2.87-5.24 0.65-1.9 0.99-3.89 0.99-5.89 0-2.01-0.34-4-0.99-5.9-0.66-1.89-1.63-3.66-2.87-5.24z"/>
		<path class="s4" d="m794.47 587.01q0 1.51 0.25 2.99 0.25 1.49 0.75 2.91 0.49 1.42 1.22 2.74 0.72 1.32 1.66 2.5c-4.26 5.42-5.05 12.79-2.03 18.99 3.01 6.2 9.29 10.13 16.18 10.13 6.9 0 13.18-3.93 16.19-10.13 3.02-6.2 2.23-13.57-2.03-18.99 2.39-3.07-32.19-13.16-32.19-11.14z"/>
		<path class="s7" d="m148.42 785.81c-25.71 0-46.49-4-46.49-8.94 0-4.94 20.78-8.94 46.49-8.94 25.71 0 46.49 4 46.49 8.94 0 4.94-20.78 8.94-46.49 8.94z"/>
		<path class="s1" d="m147.64 780.16c-2.99 0-5.41-3.17-5.41-7.09 0-3.92 2.42-7.09 5.41-7.09 2.99 0 5.41 3.17 5.41 7.09 0 3.92-2.42 7.09-5.41 7.09z"/>
		<path class="s1" d="m147.64 771.5c-2.99 0-5.41-3.17-5.41-7.09 0-3.92 2.42-7.09 5.41-7.09 2.99 0 5.41 3.17 5.41 7.09 0 3.92-2.42 7.09-5.41 7.09z"/>
		<path class="s1" d="m147.64 762.84c-2.99 0-5.41-3.17-5.41-7.09 0-3.92 2.42-7.09 5.41-7.09 2.99 0 5.41 3.17 5.41 7.09 0 3.92-2.42 7.09-5.41 7.09z"/>
		<path class="s1" d="m147.64 754.18c-2.99 0-5.41-3.17-5.41-7.09 0-3.92 2.42-7.09 5.41-7.09 2.99 0 5.41 3.17 5.41 7.09 0 3.92-2.42 7.09-5.41 7.09z"/>
		<path class="s1" d="m147.64 745.52c-2.99 0-5.41-3.17-5.41-7.09 0-3.92 2.42-7.09 5.41-7.09 2.99 0 5.41 3.17 5.41 7.09 0 3.92-2.42 7.09-5.41 7.09z"/>
		<path class="s1" d="m147.64 736.85c-2.99 0-5.41-3.17-5.41-7.09 0-3.92 2.42-7.09 5.41-7.09 2.99 0 5.41 3.17 5.41 7.09 0 3.92-2.42 7.09-5.41 7.09z"/>
		<path class="s1" d="m147.64 728.19c-2.99 0-5.41-3.17-5.41-7.09 0-3.92 2.42-7.09 5.41-7.09 2.99 0 5.41 3.17 5.41 7.09 0 3.92-2.42 7.09-5.41 7.09z"/>
		<path class="s7" d="m167.9 661.84q0.27-0.36 0.54-0.72 0.26-0.37 0.51-0.75 0.25-0.37 0.49-0.76 0.24-0.38 0.46-0.77l-14.22-2.34 15.38 0.12q1.1-2.41 1.7-4.99 0.6-2.58 0.66-5.23 0.06-2.65-0.41-5.26-0.47-2.61-1.46-5.07l-20.62 10.74 19-14c-3.6-6.24-9.63-10.7-16.65-12.32-7.01-1.62-14.39-0.24-20.35 3.8-5.97 4.04-9.98 10.37-11.09 17.49-1.1 7.12 0.8 14.37 5.26 20.03q-0.44 0.55-0.84 1.12-0.41 0.57-0.79 1.16-0.37 0.59-0.72 1.2-0.34 0.61-0.65 1.24l18.47 9.6-19.69-6.61q-1.03 3.07-1.28 6.31-0.25 3.23 0.31 6.43 0.56 3.19 1.89 6.15 1.33 2.96 3.34 5.5c-6.14 7.8-7.28 18.43-2.94 27.36 4.33 8.93 13.39 14.6 23.32 14.6 9.93 0 18.99-5.67 23.32-14.6 4.34-8.93 3.2-19.56-2.94-27.36 1.79-2.27 3.18-4.82 4.12-7.55 0.95-2.73 1.43-5.59 1.43-8.48 0-2.89-0.48-5.75-1.43-8.48-0.94-2.73-2.33-5.28-4.12-7.55z"/>
		<path class="s4" d="m121.59 677.91q0 2.16 0.36 4.29 0.36 2.13 1.07 4.18 0.71 2.04 1.74 3.94 1.04 1.89 2.38 3.59c-6.14 7.8-7.28 18.43-2.94 27.36 4.33 8.93 13.39 14.6 23.32 14.6 9.93 0 18.99-5.67 23.32-14.6 4.34-8.93 3.2-19.56-2.94-27.36 3.45-4.42-46.31-18.95-46.31-16z"/>
	</g>
</svg>